<svg id="Layer_1" data-name="Layer 1" xmlns="http://www.w3.org/2000/svg" viewBox="0 0 150 150"><defs><style>.cls-1{fill:#ffdc8c;}.cls-2{fill:#424242;}</style></defs><title>sound_on</title><path class="cls-1" d="M150,75A75,75,0,1,1,75,0a75,75,0,0,1,75,75Zm0,0"/><path class="cls-2" d="M50.88,54.52H32.1a4.75,4.75,0,0,0-4.75,4.75V88.15A4.75,4.75,0,0,0,32.1,92.9H50.88a4.79,4.79,0,0,1,2.41.65l30.1,28a4.75,4.75,0,0,0,7.15-4.1V29.94a4.74,4.74,0,0,0-7.15-4.09l-30.1,28a4.79,4.79,0,0,1-2.41.65Zm0,0"/><path class="cls-2" d="M107.58,104.28a2.25,2.25,0,0,1-1.6-3.85,36.18,36.18,0,0,0,0-51.09,2.25,2.25,0,1,1,3.19-3.19,40.66,40.66,0,0,1,0,57.45,2.23,2.23,0,0,1-1.59.66Zm0,0"/><path class="cls-2" d="M99.57,95.15A2.25,2.25,0,0,1,98,91.3a24.91,24.91,0,0,0,0-35.18,2.26,2.26,0,1,1,3.19-3.19,29.42,29.42,0,0,1,0,41.56,2.25,2.25,0,0,1-1.6.66Zm0,0"/></svg>