<svg xmlns="http://www.w3.org/2000/svg" viewBox="0 0 4000.01 2504.53"><defs><style>.cls-1{isolation:isolate;}.cls-2{fill:none;}.cls-3{fill:#adaa9c;}.cls-3,.cls-4{fill-rule:evenodd;}.cls-4{fill:#989e9d;}</style></defs><title>1</title><g id="Layer_2" data-name="Layer 2"><g id="mountain_last" class="cls-1"><rect class="cls-2" width="4000.01" height="2504.53"/><path class="cls-3" d="M1393,743l99-62,66-57,100-65,62,6s69.53-53.8,100-46,269.77,88.63,294,57,176.62-135.16,199-122,152,6,152,6l125-50,73,7s74.29-68.95,98-55,64,.7,96,10,65,53,65,53,132.93-50.46,161-52,186.39,65.79,218,45,620,219,620,219l-27,986-2594,31Z"/><path class="cls-4" d="M2963,622.61s-103.28-23.19-139.11-21.08,145.44-29.51,153.87-56.91l8.43-27.4s-57.38-6.32-83.49,0l-26.11,6.32,26.11-44.26h-70.38L2922,425l154.14-57.61,306.26,84.49Z"/><path class="cls-4" d="M2486.59,685.85l-223.43-46.37-130.68,23.19s-69.56-14.75-84.31-12.65-153.87,35.83-153.87,35.83l-73.77,33.72s122.25,33.72,132.79,31.62,99.07-23.19,137-21.08,86.42-12.65,128.58-4.22S2486.59,685.85,2486.59,685.85Z"/></g></g></svg>