<svg xmlns="http://www.w3.org/2000/svg" viewBox="0 0 4000.01 2491"><defs><style>.cls-1{isolation:isolate;}.cls-2{fill:none;}.cls-3{fill:#4c5654;fill-rule:evenodd;}</style></defs><title>2</title><g id="Layer_2" data-name="Layer 2"><g id="mountain_middle" class="cls-1"><rect class="cls-2" width="3997.35" height="2491"/><path class="cls-3" d="M4000,366.52V1598l-2.19,0-103.17,1.24-355.6,4.26-62.57.75a.09.09,0,0,1-.07,0h0s0,0,0,0,0,0,0,0l-119.24,1.43h-.25l-130.41,1.57L3021,1609.76l-31.69.38h0l-12,.14-15.22.18-57.12.69-11.71.14-81.93,1-561.1,6.73-178.67,2.15-310,3.72L1532,1627.62l-27.83.33-75.59.91-126.17,1.51L1168.52,1632,2.87,1646,0,1646l.48-515.53v-1.39l.07-66.45.08-88v0L.81,785.93v-.21L1,580c9.23-.05,58.46-6.23,85-16s184.3,35,181,59,20.84,16.47,22,36,12.23,46.19,37.11,42.82c0,0,74,19.34,90.89,34.18l31-13,36,22s41.51-13.63,61-50-16.4-42.86,33-105c5.25-6.6,10.75-12.9,16.38-18.87C641.81,520.85,699,493,699,493S820.72,357.83,863,365l162.91-28.44L1052,332c45.19-19.21,74.19,6.19,101,14,15.59,4.54,30,58,30,58l11,91,70,49,14,55,117,118,5.5,21.3,2.5,9.7s32.47,15.3,72.88,37.72c49.5,27.45,110.91,65.57,139.12,99.28,9.64,11.52,36.75-27.48,88-11,30.9,9.94,11.77,1,143,47,11.75,4.11,36.06-12.23,49.13-10.4C1933.39,916,2019.62,928.26,2062,933c79.81,8.93,210.91-26.81,249-30,21.29-1.78,122.56,28.48,179.15,35.94,18.55,2.45,32.3,2.45,36.85-1.94,18.49-17.84,99.15-78.36,200.27-151.28,46.77-33.72,97.9-70.1,149.29-106.13,27.81-19.51,55.69-38.91,83-57.73C3107.29,520,3238,434.95,3248,442c6.87,4.84,20.6-3.28,37.51-16.85q2.17-1.76,4.43-3.61h0c38.5-31.9,91-87.14,118.05-84.53,40.34,3.9,46.56-72.24,79-61s71.23-25.33,121-3,133,69,133,69,79.05-32.05,112-22,67.52-5.65,87,24c18.83,28.66,40.66,27.41,60,22.52Z"/></g></g></svg>