<svg xmlns="http://www.w3.org/2000/svg" viewBox="0 0 4000.01 2498"><defs><style>.cls-1{isolation:isolate;}.cls-2{fill:none;}.cls-3{fill:#364c48;}.cls-3,.cls-4{fill-rule:evenodd;}.cls-4{fill:#444f4d;}</style></defs><title>3</title><g id="Layer_2" data-name="Layer 2"><g id="mountain_first" class="cls-1"><rect class="cls-2" width="3998.07" height="2498"/><path class="cls-3" d="M0,785.72,201,838c1.55,20.78,133,48,133,48l122,13s412.09,80.07,413,91c2.51,30.17,173.68-20,198,9s127.31,54.3,127.31,54.3L1356,1058l114,25s571.26,71.94,580,76c0,0,322.87-189.27,380-183l211-130,208-154c28.38-7.74,72.2-52,140-13s109-62,109-62,92.82-22.88,174-26,251.22,81.44,257,59,139.67-25.8,157-35,70.86-107.22,293-25l21,7.77L3997,1976,4,1985Z"/><path class="cls-4" d="M2898.72,1228.45s215.56-260.68,236.86-334.62,37.6-169.19,37.6-169.19,26.32,10,28.82,30.08-7.52,97.75-7.52,97.75l45.12,376Z"/><path class="cls-4" d="M3617.12,625.77s70,39,98.15,34.48,154.33-20.88,198.81-7.26,85.81-6.35,85.81-6.35l.12-55.23A632.89,632.89,0,0,0,3909.55,564c-52.53-11.49-128.27-17.86-169.88,5.79S3686,615,3686,615Z"/></g></g></svg>