<svg xmlns="http://www.w3.org/2000/svg" viewBox="0 0 4000.01 2498"><defs><style type="text/css">.cls-1{fill:#585450;}.cls-2{fill:#4c4f4a;}.cls-3{fill:#909385;}.cls-4{fill:#3d2614;}.cls-5{fill:#b79b86;}.cls-6{opacity:0.2;}.cls-7{isolation:isolate;}.cls-8{fill:none;}.cls-9{fill:#596246;}.cls-10,.cls-11,.cls-12,.cls-13,.cls-9{fill-rule:evenodd;}.cls-10{fill:#8b8e7c;}.cls-11{fill:#95c6c0;}.cls-12{fill:#e8e8e2;}.cls-13{fill:#c8e8e3;}
    #small-troll{
    animation: trolls-away 1.5s ease-in-out 1s forwards;
    transform-origin: center;
    }
    
    @keyframes trolls-away {
    0% {
        opacity: 1;}
    
    100% {
        opacity: 0;}
    }
    
    </style></defs><title>4</title><g id="Layer_2" data-name="Layer 2">
    
    <g id="small-troll" data-name="Layer 25"><polygon class="cls-1" points="1597.5 1112.71 1597.5 1121.58 1601.94 1139.32 1601.94 1158.53 1601.94 1176.27 1616.72 1180.71 1624.11 1179.23 1627.07 1168.88 1627.07 1155.58 1627.07 1148.19 1631.5 1143.75 1631.5 1151.14 1631.5 1160.01 1631.5 1173.32 1634.46 1180.71 1641.85 1180.71 1656.63 1180.71 1659.59 1171.84 1659.59 1161.49 1659.59 1145.23 1662.54 1137.84 1665.5 1128.97 1662.54 1115.67 1656.63 1120.1 1650.72 1120.1 1637.41 1120.1 1624.11 1120.1 1609.33 1118.62 1601.94 1114.19 1597.5 1112.71"/><polygon class="cls-2" points="1597.5 1112.71 1598.98 1100.88 1593.07 1099.41 1588.63 1102.36 1588.63 1109.75 1588.63 1118.62 1584.2 1124.54 1572.37 1124.54 1566.46 1120.1 1566.46 1109.75 1569.42 1096.45 1572.37 1087.58 1581.24 1077.23 1594.55 1062.45 1604.89 1053.58 1615.24 1053.58 1630.02 1052.11 1649.24 1052.11 1661.07 1060.97 1666.98 1065.41 1669.93 1078.71 1672.89 1087.58 1672.89 1106.8 1671.41 1120.1 1669.93 1130.45 1664.02 1134.88 1665.5 1128.97 1662.54 1115.67 1656.63 1120.1 1624.11 1120.1 1609.33 1118.62 1597.5 1112.71"/><polygon class="cls-3" points="1631.5 1037.32 1621.15 1037.32 1618.2 1041.76 1609.33 1050.63 1604.89 1053.58 1594.55 1062.45 1591.59 1071.32 1591.59 1078.71 1591.59 1087.58 1596.03 1071.32 1596.03 1081.67 1597.5 1096.45 1600.46 1080.19 1603.42 1093.49 1604.89 1106.8 1607.85 1096.45 1609.33 1112.71 1613.76 1096.45 1615.24 1105.32 1616.72 1093.49 1621.15 1103.84 1624.11 1094.97 1625.59 1106.8 1628.55 1112.71 1631.5 1100.88 1632.98 1109.75 1637.41 1102.36 1637.41 1114.19 1644.81 1103.84 1644.81 1114.19 1650.72 1102.36 1650.72 1087.58 1655.15 1100.88 1653.67 1112.71 1659.59 1105.32 1662.54 1097.93 1662.54 1089.06 1662.54 1078.71 1665.5 1089.06 1665.5 1075.76 1666.98 1065.41 1653.67 1052.11 1646.28 1043.24 1638.89 1037.32 1631.5 1037.32"/><polygon class="cls-4" points="1575.52 1124.54 1576.81 1179.23 1578.29 1185.14 1581.24 1185.14 1579.77 1177.75 1579.77 1157.06 1581.24 1124.54 1575.52 1124.54"/><polygon class="cls-5" points="1622.63 1058.02 1625.59 1062.45 1627.07 1058.02 1628.55 1063.93 1633.73 1053.01 1635.94 1058.02 1640.37 1056.54 1641.85 1060.97 1644.81 1065.41 1638.89 1066.89 1638.89 1071.32 1635.94 1075.76 1634.46 1080.19 1631.5 1080.19 1628.55 1077.23 1627.07 1071.32 1624.11 1069.84 1619.68 1066.89 1622.63 1058.02"/><polygon class="cls-6" points="1632.98 1062.45 1633.72 1064.67 1633.72 1067.63 1634.46 1069.84 1633.72 1072.06 1632.98 1066.89 1632.98 1062.45"/><path d="M1616,1078"/>
    </g>
    
    <g id="waterfall" class="cls-7"><rect class="cls-8" width="4000.01" height="2498"/><path class="cls-9" d="M1207.16,1232.73s57.64,1.53,97-38.87S1530,1159,1530,1159l488,34,156-2,106,595-1120-66Z"/><path class="cls-10" d="M1655.76,1301.56c-9.76,14-39.07,40.47-43.25,55.82-2.58,9.46-15.77,41.73-25.51,65.09-26.61,1.14-44.26,3.28-44.26,3.28s-42.45-17.34-81.14-32.71c-28.95-11.5-55.8-21.9-61.18-23.1-5-1.11-12.17-11.23-20.76-25.65-13.06-21.92-29.39-53.76-46.22-79-27.91-41.86-68.08-50.09-68.08-50.09l21.78-12.21s32.34,1.19,40.72,12.21,69.76,5.72,87.9,0,43.26-9.82,58.61-2.89,48.84,30.66,65.58,27.87,57.21-24.84,72.56-25,83.72,20.32,101.86,33.81S1665.53,1287.61,1655.76,1301.56Z"/><path class="cls-10" d="M1587,1422.47c-6,14.53-10.77,25.6-10.77,25.6l-330.7-44.65,19.83-188.23s40.17,8.23,68.08,50.09c16.83,25.25,33.16,57.09,46.22,79,8.59,14.42,15.78,24.54,20.76,25.65,5.38,1.2,32.23,11.6,61.18,23.1,38.69,15.37,81.14,32.71,81.14,32.71S1560.39,1423.61,1587,1422.47Z"/><path class="cls-11" d="M1859.49,1472.14l-14,89-632.09-108.84L1198.61,1321l-6.47-94.57,73.22-11.25s40.17,8.23,68.08,50.09c16.83,25.25,33.16,57.09,46.22,79,8.59,14.42,15.78,24.54,20.76,25.65,5.38,1.2,32.23,11.6,61.18,23.1,38.69,15.37,81.14,32.71,81.14,32.71s17.65-2.14,44.26-3.28c37.77-1.62,93.61-1.2,142.72,10.26C1813.44,1452.26,1859.49,1472.14,1859.49,1472.14Z"/><path class="cls-12" d="M1408.79,1520.63"/><path class="cls-13" d="M1463,1394l-128.79,10.56-59.18-43,59.18,1.82,15.48-14.57,30-4.51c8.59,14.42,15.78,24.54,20.76,25.65,5.38,1.2,32.23,11.6,61.18,23.1Z"/></g></g></svg>
