<svg xmlns="http://www.w3.org/2000/svg" viewBox="0 0 4000.01 2498"><defs><style>.cls-1{isolation:isolate;}.cls-2{fill:none;}.cls-3{fill:#596246;}.cls-3,.cls-4,.cls-5,.cls-6,.cls-7{fill-rule:evenodd;}.cls-4{fill:#8b8e7c;}.cls-5{fill:#95c6c0;}.cls-6{fill:#e8e8e2;}.cls-7{fill:#c8e8e3;}</style></defs><title>4</title><g id="Layer_2" data-name="Layer 2"><g id="waterfall" class="cls-1"><rect class="cls-2" width="4000.01" height="2498"/><path class="cls-3" d="M1207.16,1232.73s57.64,1.53,97-38.87S1530,1159,1530,1159l488,34,156-2,106,595-1120-66Z"/><path class="cls-4" d="M1655.76,1301.56c-9.76,14-39.07,40.47-43.25,55.82-2.58,9.46-15.77,41.73-25.51,65.09-26.61,1.14-44.26,3.28-44.26,3.28s-42.45-17.34-81.14-32.71c-28.95-11.5-55.8-21.9-61.18-23.1-5-1.11-12.17-11.23-20.76-25.65-13.06-21.92-29.39-53.76-46.22-79-27.91-41.86-68.08-50.09-68.08-50.09l21.78-12.21s32.34,1.19,40.72,12.21,69.76,5.72,87.9,0,43.26-9.82,58.61-2.89,48.84,30.66,65.58,27.87,57.21-24.84,72.56-25,83.72,20.32,101.86,33.81S1665.53,1287.61,1655.76,1301.56Z"/><path class="cls-4" d="M1587,1422.47c-6,14.53-10.77,25.6-10.77,25.6l-330.7-44.65,19.83-188.23s40.17,8.23,68.08,50.09c16.83,25.25,33.16,57.09,46.22,79,8.59,14.42,15.78,24.54,20.76,25.65,5.38,1.2,32.23,11.6,61.18,23.1,38.69,15.37,81.14,32.71,81.14,32.71S1560.39,1423.61,1587,1422.47Z"/><path class="cls-5" d="M1859.49,1472.14l-14,89-632.09-108.84L1198.61,1321l-6.47-94.57,73.22-11.25s40.17,8.23,68.08,50.09c16.83,25.25,33.16,57.09,46.22,79,8.59,14.42,15.78,24.54,20.76,25.65,5.38,1.2,32.23,11.6,61.18,23.1,38.69,15.37,81.14,32.71,81.14,32.71s17.65-2.14,44.26-3.28c37.77-1.62,93.61-1.2,142.72,10.26C1813.44,1452.26,1859.49,1472.14,1859.49,1472.14Z"/><path class="cls-6" d="M1408.79,1520.63Z"/><path class="cls-7" d="M1463,1394l-128.79,10.56-59.18-43,59.18,1.82,15.48-14.57,30-4.51c8.59,14.42,15.78,24.54,20.76,25.65,5.38,1.2,32.23,11.6,61.18,23.1Z"/></g></g></svg>