<svg xmlns="http://www.w3.org/2000/svg" viewBox="0 0 4002.01 2498"><defs><style>.cls-1{isolation:isolate;}.cls-2{fill:#596246;}.cls-2,.cls-3,.cls-4,.cls-5{fill-rule:evenodd;}.cls-3{fill:#7dafac;}.cls-4{fill:#8b8e7c;}.cls-5{fill:#baddd8;}.cls-6{fill:none;}.cls-7{fill:#424148;}.cls-8,.cls-9{fill:#d5c16a;}.cls-10,.cls-8{opacity:0.2;}.cls-10{fill:#241d14;}.cls-11{fill:#3e362e;}</style></defs><title>5</title><g id="Layer_2" data-name="Layer 2"><g id="water_ground" class="cls-1"><path class="cls-2" d="M1956,2490l-1435.56.73L2,2491l-.15-104.44,0-31.82-1-702L.09,1129.25v-.06L0,1063l2-.3.55-.07.37,0C31.05,1058.69,179,1042,179,1042c38.09,31.77,163,21,163,21l95-15,80,28,77-10,156,31,401,103,45,20,2.68,5.74,9.24,19.77L1246,1327l8.44,10.82L1278,1368l9.94,1.47,42.46,6.3,127,18.83,16.16,2.39,67.48,10,22.27,17,19,14.51L1668,1504l3.14,4,20.82,26.34,71.58,90.56,18.49,23.39,45.56,57.64,44.2,55.93,2.44,3.08.44.55,26,32.95L1932,1838l5.25,142.65,18.36,498.71Z"/><path class="cls-3" d="M2052.53,1980.39c-10.2,144.8-29.43,320.07-41,419.88-5.68,49.08-9.52,79.92-9.52,79.92l-46.39-.83-1395-24.91L2,2444.47l-.15-57.91-.08-31.81L0,1652.69H54s-6,14.89,98.23,20.84,172.64,14.88,172.64,14.88l-35.72,38.7s62.51,23.81,104.18,20.83l29.77,18.56s384-.7,422.68-12.6,98.22,0,98.22,0,89.3-8.93,101.21-17.86,38.69-26.1,56.55-26.44c10.69-.21,40.55-8.82,62.82-15.7,14.95-4.62,26.48-8.46,26.48-8.46h68.46s32.75-11.91,98.23-20.84c14.77-2,27.87-4.48,39.3-7.09,7-1.59,13.32-3.24,19.06-4.87,26.58-7.58,39.87-14.83,39.87-14.83l-25.35-9-25.25-8.91.15,0c.61-.19,3-.94,6.75-2l.18,0c19.55-5.63,75.06-20,109-12.77h0a25.23,25.23,0,0,1,9.73,4c6,4.44,6,11.25,2.86,18.6-3.39,8.06-10.4,16.79-16.92,23.81-5.76,6.21-11.15,11.09-13.33,13-.66.59-1,.9-1,.9l-2.71.22c-13.85,1.17-75.72,7.09-62.49,18.27,12.85,10.84,1.71,15.24-1.58,16.25,8-2.16,70.91-18.37,96-1.66,26.79,17.86,137.69-1.46,137.69-1.46s74.64,2.68,158,8.93c36.68,2.75,75,6.19,109.48,10.4,53.57,6.55,97.64,15,111.07,25.5,4.37,3.44,7.32,14.28,9.09,31q.3,2.75.54,5.7C2061.38,1821,2058.51,1895.48,2052.53,1980.39Z"/><path class="cls-4" d="M0,1129.2s112.39-5.65,125.58,0S197.17,1116,249.93,1116s169.56,10.48,231.74,7.12,205.36-2.3,243,0,111.16,7.12,111.16,7.12-103.62,21.55-122.46,29.09S596.59,1182,568.33,1178.18,466.59,1252,430.8,1249s-147-44.44-147-44.44-26.38,5.65-39.57,24.49S0,1129.2,0,1129.2Z"/><path class="cls-4" d="M1246,1327s-114.34-26.35-133.18-22.58-64.06-26.38-64.06-26.38-90.43-1.91-99.85,24.48-41.45,58.42-17,77.26,122.46,39.57,162,35.8,150.72-10.41,177.1.45,92.32,24,105.51,18.39S1541,1407,1541,1407l-224.7-38.53Z"/><polygon class="cls-5" points="655.26 1790.53 515.36 1804.29 491.56 1795.85 385.01 1794.65 399.53 1784.55 830.13 1771 922.83 1790.23 797.94 1787.52 655.26 1790.53"/><polygon class="cls-5" points="416.77 2168.83 629.18 2108.38 755.81 2059.36 723.13 2077.33 902.86 2044.84 831.79 2075.7 658.31 2188.15 447.77 2207.18 373.47 2220.3 531.14 2145.96 416.77 2168.83"/><polygon class="cls-5" points="1440.16 1715.49 1524.39 1758.27 1661.28 1758.27 1577.59 1766.5 1496.85 1761.93 1491.36 1746.07 1440.16 1715.49"/><rect class="cls-6" x="2" width="4000.01" height="2498"/></g><g id="nokken"><polygon class="cls-7" points="227.19 1671.84 223.46 1670.44 220.66 1668.58 217.87 1667.65 209.49 1671.84 201.11 1683.95 198.78 1686.74 189 1690.93 184.81 1695.59 178.75 1700.71 173.63 1704.91 170.84 1711.43 174.56 1705.37 179.68 1702.11 186.2 1696.52 189.93 1692.33 198.78 1689.54 205.76 1683.02 210.42 1673.7 212.75 1672.77 212.75 1677.43 210.89 1680.69 214.15 1677.89 214.15 1672.77 218.34 1669.98 220.66 1670.44 223.46 1673.24 223.93 1674.63 224.39 1679.29 230.44 1676.5 227.19 1671.84"/><polygon class="cls-7" points="175.03 1710.96 182.01 1704.91 180.15 1703.51 177.82 1704.91 181.08 1702.11 182.48 1703.51 190.4 1699.32 192.72 1697.45 197.85 1692.33 198.78 1689.54 205.76 1683.02 210.89 1680.69 214.15 1677.89 215.08 1676.03 217.87 1674.17 221.6 1674.17 223.93 1674.63 227.65 1690.47 218.8 1677.89 212.75 1683.02 208.09 1683.95 200.17 1691.87 197.85 1695.13 194.12 1698.39 191.79 1701.65 189.93 1705.84 183.41 1712.36 182.01 1712.36 188.53 1705.84 190.86 1700.71 175.03 1710.96"/><path class="cls-7" d="M264.91,1703.51l-.93-2.33-1.86-1.86-5.12-7-1.4-4.19-3.73-4.66-2.33.93-3.26-2.33-1.4-5.12-2.79-4.19-3.73-.47-3.26-2.79L230,1670l-2.79,1.86,1.75,2.49-10.59,6.36-4.19,5.12-3.73.93-2.33,3.73-4.66,3.73-4.19,3.26-3.73,2.33-6.05,9.31,8.85-9.31,5.12-2.33-4.66,6.05-3.26,2.33-3.26,3.26-3.73,3.26,5.12-.93,3.26,3.26,3.73,1.86,7.45,1,1.12.06,23.22,1.31h0l4.53-.4,20.25-1.76,3-.27,9.78-5.12ZM230.49,1674l3.21-2.17,2.33,1.86,4.66.93.47,3.26,1.86,3.73Z"/><polygon class="cls-7" points="212.75 1683.02 211.24 1686.54 213.19 1686.54 214.15 1683.02 216.43 1683.02 215.4 1680.77 212.75 1683.02"/><polygon class="cls-7" points="253.25 1685.21 263.51 1677.43 265.84 1678.36 268.17 1684.41 270.03 1685.81 270.5 1688.61 271.89 1689.54 269.56 1689.54 269.1 1687.67 268.17 1686.74 266.77 1684.41 265.37 1681.62 263.05 1679.76 262.58 1681.15 265.37 1683.48 266.3 1686.74 268.63 1689.54 270.5 1692.33 271.43 1695.13 273.29 1697.92 273.76 1700.25 275.62 1702.58 272.36 1700.25 271.43 1696.99 269.1 1692.8 266.77 1690 266.3 1688.61 264.44 1685.81 263.98 1684.41 261.18 1682.55 260.25 1683.48 264.44 1691.4 264.44 1694.19 268.17 1697.92 270.5 1700.71 272.36 1702.11 272.82 1704.91 269.56 1701.18 268.17 1700.25 266.3 1698.39 267.24 1701.18 268.63 1703.51 268.17 1704.91 267.24 1703.51 265.84 1701.18 263.05 1694.19 262.11 1691.4 261.65 1689.54 259.32 1686.74 258.85 1684.88 257.92 1685.81 259.32 1688.61 260.25 1691.4 262.11 1694.19 262.11 1699.32 260.25 1694.19 258.85 1692.33 257.92 1689.07 257.46 1687.21 256.35 1690.42 255.59 1688.14 253.25 1685.21"/><polygon class="cls-8" points="210.89 1719.08 209.02 1717.48 230.49 1718.5 230.44 1719.39 231.84 1720.67 230.44 1721.63 231.84 1722.9 230.44 1723.54 230.44 1725.77 229.05 1726.73 230.91 1728.32 231.38 1729.92 230.44 1731.51 225.79 1732.15 220.66 1732.15 217.87 1731.51 213.21 1731.83 213.21 1729.6 209.02 1728.96 210.42 1726.73 209.02 1726.09 211.35 1724.82 209.02 1723.22 211.35 1721.94 210.42 1720.03 210.89 1719.08"/><polygon class="cls-8" points="238.36 1718.03 238.36 1719.17 237.9 1720.11 238.36 1721.67 236.97 1724.8 236.97 1727.31 237.9 1729.18 240.22 1731.68 245.35 1731.68 247.68 1731.06 249.54 1731.68 251.87 1729.49 256.52 1731.06 256.99 1728.56 255.59 1727.31 256.52 1726.68 255.13 1724.49 256.99 1721.99 255.13 1721.36 256.06 1719.8 254.2 1718.23 255.99 1716.92 238.36 1718.03"/><path class="cls-9" d="M257.22,1716.81,237,1718.57v-9.48l3.73-8.38,7.45-1.86,4.66,2.79,4.19,4.19-.47,7A33.5,33.5,0,0,1,257.22,1716.81Z"/><path class="cls-9" d="M232.44,1719h0l-24.34-1.37v-6.17l5.12-3.73-.47-4.19,9.31-4.66,7.45,4.66,2.33,7.92S232.08,1719.11,232.44,1719Z"/><polygon class="cls-10" points="222.29 1700.95 214.38 1704.67 214.38 1708.87 209.72 1712.13 209.22 1717.66 207.86 1717.71 204.13 1712.13 216.24 1695.36 225.56 1695.36 236.27 1702.81 234.65 1718.78 232.54 1719.11 231.04 1718.89 230.68 1713.99 228.81 1705.14 222.29 1700.95"/><polygon class="cls-10" points="238.59 1708.87 238.36 1718.58 234.87 1718.64 235.34 1700.95 247.91 1693.03 257.69 1701.41 262.81 1706.54 260.95 1713.52 258.48 1716.7 255.35 1716.98 254.9 1713.06 255.36 1706.54 252.1 1702.81 247.91 1700.48 241.85 1702.35 239.99 1705.61 238.59 1708.87"/><polygon class="cls-11" points="210.65 1700.95 216.24 1696.76 221.06 1695.36 227.88 1697.69 221.83 1693.96 219.03 1693.96 215.31 1695.83 210.65 1700.95"/><polygon class="cls-11" points="242.79 1697.69 248.84 1697.22 252.1 1698.15 248.84 1696.29 242.79 1697.69"/><polygon class="cls-5" points="175.03 1719.11 204.13 1732.15 234.87 1734.49 264.44 1734.49 285.17 1718.58 270.03 1740.14 240.04 1740.14 208.09 1740.14 175.03 1719.11"/><polygon class="cls-5" points="154.61 1727.93 198.85 1750.32 238.95 1757.5 273.85 1757 300.69 1741.05 276.52 1761.48 238.93 1761.48 197.45 1756.98 154.61 1727.93"/></g></g></svg>