<svg xmlns="http://www.w3.org/2000/svg" viewBox="0 0 4002.01 2498"><defs><style>.cls-1{isolation:isolate;}.cls-2{fill:#596246;}.cls-2,.cls-3,.cls-4,.cls-5{fill-rule:evenodd;}.cls-3{fill:#7dafac;}.cls-4{fill:#8b8e7c;}.cls-5{fill:#baddd8;}.cls-6{fill:none;}</style></defs><title>5</title><g id="Layer_2" data-name="Layer 2"><g id="water_ground" class="cls-1"><path class="cls-2" d="M1956,2490l-1435.56.73L2,2491l-.15-104.44,0-31.82-1-702L.09,1129.25v-.06L0,1063l2-.3.55-.07.37,0C31.05,1058.69,179,1042,179,1042c38.09,31.77,163,21,163,21l95-15,80,28,77-10,156,31,401,103,45,20,2.68,5.74,9.24,19.77L1246,1327l8.44,10.82L1278,1368l9.94,1.47,42.46,6.3,127,18.83,16.16,2.39,67.48,10,22.27,17,19,14.51L1668,1504l3.14,4,20.82,26.34,71.58,90.56,18.49,23.39,45.56,57.64,44.2,55.93,2.44,3.08.44.55,26,32.95L1932,1838l5.25,142.65,18.36,498.71Z"/><path class="cls-3" d="M2052.53,1980.39c-10.2,144.8-29.43,320.07-41,419.88-5.68,49.08-9.52,79.92-9.52,79.92l-46.39-.83-1395-24.91L2,2444.47l-.15-57.91-.08-31.81L0,1652.69H54s-6,14.89,98.23,20.84,172.64,14.88,172.64,14.88l-35.72,38.7s62.51,23.81,104.18,20.83l29.77,18.56s384-.7,422.68-12.6,98.22,0,98.22,0,89.3-8.93,101.21-17.86,38.69-26.1,56.55-26.44c10.69-.21,40.55-8.82,62.82-15.7,14.95-4.62,26.48-8.46,26.48-8.46h68.46s32.75-11.91,98.23-20.84c14.77-2,27.87-4.48,39.3-7.09,7-1.59,13.32-3.24,19.06-4.87,26.58-7.58,39.87-14.83,39.87-14.83l-25.35-9-25.25-8.91.15,0c.61-.19,3-.94,6.75-2l.18,0c19.55-5.63,75.06-20,109-12.77h0a25.23,25.23,0,0,1,9.73,4c6,4.44,6,11.25,2.86,18.6-3.39,8.06-10.4,16.79-16.92,23.81-5.76,6.21-11.15,11.09-13.33,13-.66.59-1,.9-1,.9l-2.71.22c-13.85,1.17-75.72,7.09-62.49,18.27,12.85,10.84,1.71,15.24-1.58,16.25,8-2.16,70.91-18.37,96-1.66,26.79,17.86,137.69-1.46,137.69-1.46s74.64,2.68,158,8.93c36.68,2.75,75,6.19,109.48,10.4,53.57,6.55,97.64,15,111.07,25.5,4.37,3.44,7.32,14.28,9.09,31q.3,2.75.54,5.7C2061.38,1821,2058.51,1895.48,2052.53,1980.39Z"/><path class="cls-4" d="M0,1129.2s112.39-5.65,125.58,0S197.17,1116,249.93,1116s169.56,10.48,231.74,7.12,205.36-2.3,243,0,111.16,7.12,111.16,7.12-103.62,21.55-122.46,29.09S596.59,1182,568.33,1178.18,466.59,1252,430.8,1249s-147-44.44-147-44.44-26.38,5.65-39.57,24.49S0,1129.2,0,1129.2Z"/><path class="cls-4" d="M1246,1327s-114.34-26.35-133.18-22.58-64.06-26.38-64.06-26.38-90.43-1.91-99.85,24.48-41.45,58.42-17,77.26,122.46,39.57,162,35.8,150.72-10.41,177.1.45,92.32,24,105.51,18.39S1541,1407,1541,1407l-224.7-38.53Z"/><polygon class="cls-5" points="655.26 1790.53 515.36 1804.29 491.56 1795.85 385.01 1794.65 399.53 1784.55 830.13 1771 922.83 1790.23 797.94 1787.52 655.26 1790.53"/><polygon class="cls-5" points="416.77 2168.83 629.18 2108.38 755.81 2059.36 723.13 2077.33 902.86 2044.84 831.79 2075.7 658.31 2188.15 447.77 2207.18 373.47 2220.3 531.14 2145.96 416.77 2168.83"/><polygon class="cls-5" points="1440.16 1715.49 1524.39 1758.27 1661.28 1758.27 1577.59 1766.5 1496.85 1761.93 1491.36 1746.07 1440.16 1715.49"/><rect class="cls-6" x="2" width="4000.01" height="2498"/></g></g></svg>