<svg xmlns="http://www.w3.org/2000/svg" xmlns:xlink="http://www.w3.org/1999/xlink" viewBox="0 0 4000.01 2498"><defs><style>.cls-1{isolation:isolate;}.cls-2{fill:none;}.cls-3{fill:#adac76;}.cls-20,.cls-21,.cls-22,.cls-23,.cls-24,.cls-25,.cls-26,.cls-29,.cls-3,.cls-30,.cls-31,.cls-4{fill-rule:evenodd;}.cls-4{fill:#a59565;}.cls-24,.cls-5{fill:#514339;}.cls-25,.cls-6{fill:#493628;}.cls-7{fill:#858951;}.cls-23,.cls-8{fill:#604f38;}.cls-26,.cls-9{fill:#725d47;}.cls-10,.cls-21{fill:#594233;}.cls-11{fill:#878677;}.cls-12{fill:#68675d;}.cls-13{fill:#635247;}.cls-14{fill:#494949;}.cls-15{fill:#474942;}.cls-16{fill:#73756d;}.cls-17{fill:#444443;}.cls-18,.cls-22{fill:#3f2e23;}.cls-19{fill:#5b5e54;}.cls-20{opacity:0.5;mix-blend-mode:screen;fill:url(#linear-gradient);}.cls-27{fill:#a1aa5f;}.cls-28{fill:#8c8e7d;}.cls-29{fill:#9e8564;}.cls-30{fill:#c1bcb6;}.cls-31{fill:#a9b76c;}</style><linearGradient id="linear-gradient" x1="2715.05" y1="0" x2="2834.56" y2="2834.56" gradientUnits="userSpaceOnUse"><stop offset="0" stop-color="#fff"/><stop offset="1"/></linearGradient></defs><title>6</title><g id="Layer_2" data-name="Layer 2"><g id="ground_house" class="cls-1"><rect class="cls-2" width="4000.01" height="2498"/><path class="cls-3" d="M4000,877.14V2343.55c-.3,24.14-.56,46-.81,65.32v0c-.57,46.22-1,77.52-1.13,89.11h-78.51l-110.06-6.93h0l-40.81-2.54c-275.15-17.14-748.43-45.88-1140.75-66-283.55-14.52-524.81-24.5-618.39-22.31h0c-25.74.59-40.32,2.12-41.52,4.72-9.18,19.83,7.56-231.93,20.74-424.47,6.29-91.92,11.77-170.35,13.22-199.28.33-6.53.46-10.54.34-11.61,0-.21-.06-.31-.1-.29l-.51.25c-13.37,6.47-5.17.9-8,1.48-27.87,5.73-74.64,1.31-120.55-6l-.94-.16c-8.76-1.4-17.48-2.91-26-4.47h0C1788.65,1749.93,1739,1737,1739,1737s-181.67,13.85-221-1-106.32-38.54-106.32-38.54L1395,1684l92.83-32.24h0l2.14-.75s5.75-9.84,14.17-23c4.46-7,9.68-15,15.19-22.89,15.19-21.88,32.6-43.61,42.64-45.06,11.56-1.66,46.78-19.46,75.4-34.74,12.8-6.83,24.28-13.15,31.74-17.29,5.54-3.09,8.86-5,8.86-5l147,16,15.89-54,4.11-14,94-99s118.43-114.34,147-105c9.24,3,29.3-2.8,53.31-12.11,9-3.51,18.67-7.51,28.48-11.72l11.09-4.8,14.41-6.34,1.31-.59h0c35.88-15.82,69.92-30.93,84.38-31.44,6.78-.24,17.76-1.57,31.26-3.52,3.55-.51,7.27-1.06,11.13-1.65l7.58-1.17c20.37-3.18,43.93-7.09,66.77-10.65l5.56-.87c24.94-3.85,48.63-7.16,65.91-8.5,5.69-.45,10.68-.68,14.79-.64l1.88,0c6.61.13,21.58.57,42.86,1.26,17.4.57,39,1.3,63.73,2.16l27.29,1h.07c13.63.47,28,1,42.87,1.51l7.4.27,10.51.37c46.55,1.66,97.68,3.51,149.29,5.38h0l32.8,1.19,2.23.09h0l10.85.39,3.58.14,25.88.94,14.39.53,3.21.12,9.42.34,11.33.42,4.94.18h0l43,1.58,23.48.86,10.6.39q8.45.31,16.66.61l158.33,5.88,3.71.13,7.64.29s2.14-.4,6-1.07c4-.7,9.92-1.71,17.2-2.87,8.13-1.31,18-2.81,28.84-4.33,7.55-1.06,15.59-2.12,23.9-3.11,11.32-1.36,23.13-2.6,34.83-3.56h.09c25.67-2.12,50.83-2.89,69.22-.55A88.94,88.94,0,0,1,3403,1166a37.82,37.82,0,0,0,11.65,1.46c42.08-1.39,71.65-75.34,128.35-95.46l-11-23,34-37c41.65-2.21,68-56,68-56l161-36s62.16,1.15,118.45-7.2c39-5.78,75.17-16.11,85.94-34.54C3999.61,877.89,3999.82,877.52,4000,877.14Z"/><path class="cls-4" d="M2086.48,1281l52.82-46.09,128-55.74,208.28-27.4,708.68,24.71s87,11.26,80.54,24.82-34.38,38.24-28.23,56.43-6.84,18-49.71,23.27-110.41-39.17-180.56-9.79-164.91-18.68-226-4.39-237.91,0-304.72,29.88-182.42-22.08-214.9-13-174.17,39.08-174.17,18.19Z"/><g id="house_behind"><rect class="cls-5" x="2467.21" y="1081.73" width="16.67" height="81.05"/><polygon class="cls-6" points="2439.68 1036.07 2446.92 1086.3 2672.78 1083.18 2672.78 1073.05 2450.48 1074.5 2445.41 1036.07 2439.68 1036.07"/><polygon class="cls-7" points="2672.78 1036.07 2445.41 1036.07 2450.48 1074.5 2672.78 1073.05 2672.78 1036.07"/><polygon class="cls-8" points="2669.66 1155.3 2483.88 1162.78 2483.88 1085.79 2672.78 1083.18 2669.66 1155.3 2669.66 1155.3"/><rect class="cls-5" x="2526.74" y="1093.34" width="63.73" height="63.98"/></g><g id="house_multiple"><polygon class="cls-9" points="2663.6 1002.5 2668.67 1179.08 2860.71 1173.56 2860.71 997.77 2757.81 945.74 2663.6 1002.5"/><polygon class="cls-10" points="2860.71 1000.09 2860.71 1173.56 2877.38 1170.29 2877.38 1008.37 2860.71 1000.09 2860.71 1000.09"/><rect class="cls-8" x="2877.38" y="1013.13" width="43.48" height="157.25"/><polygon class="cls-11" points="2715.05 895.72 2715.05 962.19 2738.97 949.5 2738.97 895.72 2715.05 895.72"/><polygon class="cls-12" points="2745.49 946.46 2745.49 902.26 2738.97 895.72 2738.97 949.5 2745.49 946.46 2745.49 946.46"/><rect class="cls-10" x="2660.7" y="993.6" width="17.91" height="185.48"/><polygon class="cls-6" points="2615.77 1008.78 2756.36 936.32 2890.42 996.46 2966.51 1005.16 2966.51 1021.83 2886.8 1017.48 2757.08 955.88 2615.77 1024 2615.77 1008.78"/><rect class="cls-13" x="2709.25" y="1067.48" width="47.1" height="47.83"/><rect class="cls-13" x="2780.27" y="1067.48" width="45.65" height="47.83"/><polygon class="cls-7" points="2756.36 936.32 2825.2 943.56 2966.51 1005.16 2890.42 996.46 2756.36 936.32"/><path class="cls-14" d="M2641.86,1191.4Z"/><path class="cls-15" d="M2862.88,1166s8-6,15.22-5.88,19.63,5.88,19.63,5.88l19.92-5.88v31.4s-23.19,4.19-27.38-3.06-21.12-7.25-21.12-7.25Z"/><path class="cls-16" d="M2631.95,1191.4s20.7,1.45,25.13-4.35,0-18.84,5.17-20.29,11.83-4.35,24.39,0,20-1.69,29.57-2.3,30.31,4.47,33.26,4.47,15.52-4.69,24.39-4.52,33.26,3.07,33.26,3.07,20-1.24,28.09-4.61,29-3.88,33.74,0,9.13,6,9.13,10v10.56a74.67,74.67,0,0,1-31,0c-17-3.62-42.87,2.17-42.87,2.17s-39.18,2.9-52.48,0-61.35,6-61.35,6Z"/><rect class="cls-17" x="2920.86" y="1019.34" width="9.42" height="151.05"/><rect class="cls-10" x="2310.26" y="1102.77" width="11.13" height="109.25"/><rect class="cls-10" x="2170.15" y="1099.23" width="9.1" height="112.79"/><polygon class="cls-18" points="2328.97 1111.37 2328.97 1212.03 2321.39 1212.03 2321.39 1108.84 2328.97 1111.37"/><rect class="cls-18" x="2395.74" y="1115.25" width="5.56" height="73"/><rect class="cls-11" x="2182.29" y="1043.09" width="17.2" height="45.52"/><polygon class="cls-12" points="2206.06 1080.01 2206.06 1045.11 2199.49 1043.09 2199.49 1088.61 2206.06 1080.01"/><polygon class="cls-7" points="2244.5 1056.74 2325.18 1056.74 2417.99 1103.28 2334.54 1099.23 2244.5 1056.74"/><polygon class="cls-9" points="2179.26 1212.03 2310.26 1212.03 2310.26 1102.77 2246.02 1074.73 2179.26 1099.23 2179.26 1212.03"/><polygon class="cls-8" points="2328.97 1111.37 2328.97 1215.1 2395.74 1190.6 2395.74 1115.37 2328.97 1111.37"/><polygon class="cls-6" points="2128.17 1108.84 2128.17 1120.48 2246.02 1074.73 2334.03 1115.98 2417.99 1118.33 2417.99 1103.28 2334.54 1099.23 2244.5 1056.74 2128.17 1108.84"/><rect class="cls-13" x="2219.21" y="1139.7" width="48.05" height="39.45"/><path class="cls-19" d="M2398.75,1187.55s-16.16,3.31-21.67,7.71-20.2,4-20.2,4-17.63,3.31-20.93,8.81-26.81,2.2-26.81,2.2l7.35,12.49s12.49,7,20.93,2.2,10.65-11.39,22.4-9.92,20.57-9.92,22-11.57,14.32-9.73,16.89-7.16S2404.12,1186.28,2398.75,1187.55Z"/><path class="cls-16" d="M2157.08,1229.05s9.92-1.1,10.65-5.51-.73-12.85,1.84-14,5.88-4.41,12.12-2.94,11,6.24,15.79,4.41,15.43-1.11,17.63-4.78,16.89-3.68,19.1,0,13.59-.36,13.59-.36,17.63-1.84,25.71.37,23.14-.73,23.14-.73,18.36-.73,23.87,6.24,2.57,8.08,2.57,8.08-.37,8.45-9.18,6.61-18-4.41-27.55-2.57-16.53,6.61-28.65,2.94-33.79,2.2-33.79,2.2a44.81,44.81,0,0,1-27.18,5.14c-15.06-2.2-35.63.82-36.73.41s-11,1.79-7-1.88Z"/><path class="cls-20" d="M2732.81,895.72s7.57-14,12.68-9.66,9.49,5.82,13.87-.85,6.88-4,8.14,0-3.13-15.42,6.88-11,14.39-1.92,23.78-.65,18.15-10.62,33.17-8.74-27.53-4.38-19.4-9.39,14.39-28.79-5-20-38.17,15-38.17,4.38-16.48-28.87-23.26-6.3-4.19,42-12.68,39.47-17.75,6-17.75,14.39v8.41Z"/></g><g id="house_right"><polygon class="cls-21" points="2903.26 1203.2 2903.26 1086.57 2917.65 1086.57 2917.65 1209.16 2903.26 1203.2"/><polygon class="cls-21" points="3013.06 1090.54 3013.06 1215.04 3023.66 1219.01 3023.66 1086.57 3013.06 1090.54"/><polygon class="cls-22" points="3040.32 1076.87 3040.32 1219.01 3023.66 1219.01 3023.66 1085.66 3040.32 1076.87"/><polygon class="cls-22" points="3202.36 1082.21 3202.36 1209.16 3215.99 1209.16 3215.99 1087.15 3202.36 1082.21"/><polygon class="cls-23" points="3040.32 1219.01 3040.32 1074.59 3119.83 1040.51 3202.36 1083.51 3202.36 1208.46 3040.32 1219.01"/><polygon class="cls-24" points="3079.57 1133.6 3079.57 1172.87 3161.51 1170.93 3161.51 1133.6 3079.57 1133.6"/><polygon class="cls-25" points="2869.15 1100.13 3013.06 1096.34 3120.55 1052.14 3252.18 1103.06 3252.18 1088.51 3120.55 1033.72 3013.06 1078.33 2869.15 1079.3 2869.15 1100.13"/><polygon class="cls-26" points="2917.65 1098.85 2917.65 1209.16 3013.06 1215.22 3013.06 1096.34 2917.65 1098.85"/><polygon class="cls-13" points="2941.61 1116.6 2941.61 1206.55 2989.58 1209.16 2989.58 1116.6 2941.61 1116.6"/><polygon class="cls-27" points="2869.15 1079.3 2972.82 1043.11 3120.55 1033.72 3013.06 1078.33 2869.15 1079.3 2869.15 1079.3 2869.15 1079.3"/><path class="cls-28" d="M2897.73,1213.64s-.38-11,9.09-12.12,12.5,2.27,12.5,2.27,9.47,1.14,14.4-.38,22.35,1.14,22.35,1.14l11.37,2.92s13.26,1,17.43,0,21.22.87,26.9,3.9,4.93-2.27,10.61-1.89,11.75.38,17.43,4.17,10.23,12.12,10.23,12.12-18.94,2.65-22,4.55-31.83,1.52-34.48,0a32.45,32.45,0,0,0-19.7-4.55c-10.61.76-25.38-1.14-26.52-1.89s-18.19-5.3-23.11-3.41S2897.73,1213.64,2897.73,1213.64Z"/><path class="cls-19" d="M3222.82,1209.85s-8.71-6.82-19.32-4.17-22-.61-22-.61-17,1-23.11,4.78-22,2.27-22,2.27-17-6.75-25.76-3.38-30.31,0-30.31,0-16.29-2.47-23.49,3.68-12.12,5.76-12.12,5.76l1.31,8.18s24.83,3.57,32.79,2.44,28,.22,28,.22,25.39.91,29.17-2.12,31.45-1.14,31.45-1.14,20.46.76,28-1.14a28.49,28.49,0,0,1,14.4.38s12.12-.38,14.4-6.06S3222.82,1209.85,3222.82,1209.85Z"/></g><g id="path_tree"><path class="cls-29" d="M3255.28,1601.7s50.94-101.89,109.72-113.64,141.07-3.92,176.34-23.51,98-58.78,101.89-82.29-19.59-94-125.4-117.56-197.09-100.64-197.09-100.64H3365s90.13,69.26,199.86,84.95,168.51,101.9,168.51,101.9,39.19,70.54,0,176.34S3255.28,1601.7,3255.28,1601.7Z"/><path class="cls-30" d="M3223.93,1225.5s37.74-22.4,40.34-70.63,0-156.42,0-156.42H3276s1.44,57.43,4.31,88.12c1,10.66,2.17,18.1,3.51,18.77,5.21,2.61,2.61,76.91,0,79.51s-14.34,29.16-5.21,40.65S3223.93,1225.5,3223.93,1225.5Z"/><path class="cls-31" d="M3286.84,660.85s53,10.43,72.59,48.23-14.34,66.48-14.34,66.48v18.25l40.41-13,27.37,13s23.46,39.1,18.25,52.14-41.71,67.78-41.71,67.78h-13s-3.91,33.89,14.34,46.93,28.68,37.8,28.68,37.8l-23.46,26.07s34.1,15.64,36,31.28a137.55,137.55,0,0,1,0,30l-28.13-13,29,56L3409,1179.64l-62.57-53.44s-39.1-39.1-33.89-58.66-36.5-69.08-36.5-69.08h-11.73s-7.82,130.35-19.55,126.44-20.79-49.53-20.79-49.53l-36.56-7.82-18.25,37.8s-18.25-1.3-16.95-39.1,24.77-76.91,24.77-76.91l10.43-30-15.64,18.25s-15.64-9.12-1.3-28.68,36.5-28.68,36.5-28.68l5.21-20.86-26.07,20.86s-6.52-15.64,7.82-35.19a162.89,162.89,0,0,1,30-31.28l26-16.95s-24.77-6.52-37.8,3.91-13-27.37-13-27.37,6.64-33.89,24.83-27.37,18.19-6.52,18.19-6.52-6.52-15.64-26.07-11.73-1.3-16.95-1.3-16.95l9.19-16.95s-19.62,2.61-13.1-14.34,44.45-27.37,44.45-27.37,4.68-31.28,18.12-31.28Z"/><path class="cls-30" d="M3317.1,1076.87l-42.77,9.7v-9.7s49.3-1,51.47-9.39S3317.1,1076.87,3317.1,1076.87Z"/><path class="cls-30" d="M3311.3,1024s-27.76,31.46-37,27.11,0,25.76,0,25.76,32.62-33.43,34.8-43.15Z"/></g></g></g></svg>
