<svg xmlns="http://www.w3.org/2000/svg" viewBox="0 0 4006.43 2504.53"><defs><style>.cls-1{isolation:isolate;}.cls-2{fill:#596246;}.cls-2,.cls-4{fill-rule:evenodd;}.cls-3{fill:none;}.cls-4{fill:#77654f;}</style></defs><title>7</title><g id="Layer_2" data-name="Layer 2"><g id="ground_two" class="cls-1"><path class="cls-2" d="M4000.24,1342.08V2404.63c-.27,1.43-.53,2.85-.81,4.24v0c-6.55,33.66-14.83,56-25.2,63.11-9.74,6.71-68.3,13.11-164.5,19.07h0q-15.9,1-33.17,2c-30,1.69-63.09,3.34-98.9,5H.23v-7L.08,2386.56,0,2354.75H0l.19-.06c15.92-5.12,219.54-70.87,389.7-137.6,92.48-36.26,175.08-72.81,212.3-100.08,1.1-.81,2.23-1.61,3.4-2.42,73.62-51.09,269.21-102.22,397.48-131.83h.08c69.34-16,119-25.75,119-25.75s397.66-63.82,398-87,228.53-6.6,313-73c11.78-9.26,25.17-20,39.67-31.54l.5-.39,3.55-2.83h0c18.14-14.47,37.88-30.14,58.34-45.94,32.08-24.8,65.89-49.9,97.82-71.06,13.31-8.82,26.29-17,38.69-24.09,32.3-18.6,60.63-30.46,80.42-30.15,16,.25,49.45-4.57,91.11-12.08,133.9-24.11,352.89-75.92,352.89-75.92s62.63-50.47,190,14a232.83,232.83,0,0,0,91.2,24.94c6.94.44,13.75.56,20.43.42a273.45,273.45,0,0,0,63-8.93c45.69-11.85,76.88-31.33,81.42-32.43,8.95-2.16,134.54-41.71,285.17,6.36q3.57,1.14,7.16,2.35c2.22.74,4.44,1.51,6.67,2.29,114.09,40.15,203.07,8.81,249.19-6.36,17.22-5.65,28.47-9.06,32.81-5.64,12.68,10,47.66-49.4,127.4-78.84a255.75,255.75,0,0,1,71.6-15.16,399.53,399.53,0,0,0,78.29-12.84c55.7-15.24,86.37-38.87,98.09-49.56C3999.2,1343.06,3999.75,1342.55,4000.24,1342.08Z"/><rect class="cls-3" x="0.23" width="4006.2" height="2504.53"/><g id="path_two"><path class="cls-4" d="M2882.45,1881.73s153-181.67,210.36-204,108.37-41.43,130.68-66.93,111.07-101.1,111.07-101.1,140.91,38.46,240.3,1l-93.21,182.13L3325.48,1901.5Z"/></g></g></g></svg>