<svg xmlns="http://www.w3.org/2000/svg" viewBox="0 0 4006.43 2504.53"><defs><style>.cls-1{isolation:isolate;}.cls-2{fill:#596246;}.cls-2,.cls-4{fill-rule:evenodd;}.cls-3{fill:none;}.cls-4{fill:#77654f;}.cls-11,.cls-13,.cls-5,.cls-6{fill:#424148;}.cls-5,.cls-7{opacity:0.3;}.cls-7{fill:#2d2c31;}.cls-8{fill:#cca97a;}.cls-9{fill:#928c80;}.cls-10{fill:#4c4f4a;}.cls-11{opacity:0.5;}.cls-12{fill:#2b2f2f;}.cls-13{opacity:0.1;}.cls-14{fill:#585450;}.cls-15{fill:#948d80;}.cls-16{fill:#746a63;}.cls-17{fill:#ccc6ae;}
    #troll_gubber{
    animation: trolls-away 1s ease-in-out 4s forwards;
    transform-origin: center;
    }
    
    @keyframes trolls-away {
    0% {
        opacity: 1;}
    
    100% {
        opacity: 0;}
    }
    </style></defs><title>7</title><g id="Layer_2" data-name="Layer 2"><g id="ground_two" class="cls-1"><path class="cls-2" d="M4000.24,1342.08V2404.63c-.27,1.43-.53,2.85-.81,4.24v0c-6.55,33.66-14.83,56-25.2,63.11-9.74,6.71-68.3,13.11-164.5,19.07h0q-15.9,1-33.17,2c-30,1.69-63.09,3.34-98.9,5H.23v-7L.08,2386.56,0,2354.75H0l.19-.06c15.92-5.12,219.54-70.87,389.7-137.6,92.48-36.26,175.08-72.81,212.3-100.08,1.1-.81,2.23-1.61,3.4-2.42,73.62-51.09,269.21-102.22,397.48-131.83h.08c69.34-16,119-25.75,119-25.75s397.66-63.82,398-87,228.53-6.6,313-73c11.78-9.26,25.17-20,39.67-31.54l.5-.39,3.55-2.83h0c18.14-14.47,37.88-30.14,58.34-45.94,32.08-24.8,65.89-49.9,97.82-71.06,13.31-8.82,26.29-17,38.69-24.09,32.3-18.6,60.63-30.46,80.42-30.15,16,.25,49.45-4.57,91.11-12.08,133.9-24.11,352.89-75.92,352.89-75.92s62.63-50.47,190,14a232.83,232.83,0,0,0,91.2,24.94c6.94.44,13.75.56,20.43.42a273.45,273.45,0,0,0,63-8.93c45.69-11.85,76.88-31.33,81.42-32.43,8.95-2.16,134.54-41.71,285.17,6.36q3.57,1.14,7.16,2.35c2.22.74,4.44,1.51,6.67,2.29,114.09,40.15,203.07,8.81,249.19-6.36,17.22-5.65,28.47-9.06,32.81-5.64,12.68,10,47.66-49.4,127.4-78.84a255.75,255.75,0,0,1,71.6-15.16,399.53,399.53,0,0,0,78.29-12.84c55.7-15.24,86.37-38.87,98.09-49.56C3999.2,1343.06,3999.75,1342.55,4000.24,1342.08Z"/><rect class="cls-3" x="0.23" width="4006.2" height="2504.53"/><g id="path_two"><path class="cls-4" d="M2882.45,1881.73s153-181.67,210.36-204,108.37-41.43,130.68-66.93,111.07-101.1,111.07-101.1,140.91,38.46,240.3,1l-93.21,182.13L3325.48,1901.5Z"/></g></g><g id="troll_gubber"><polygon class="cls-5" points="3329.63 1634.53 3364.63 1629.33 3389.63 1624.01 3398.13 1636.89 3385.63 1654 3360.13 1666.77 3321.49 1665.89 3317.63 1651.89 3291.63 1656.89 3271.39 1678.27 3243.63 1674.76 3234.79 1665.89 3247.71 1643.89 3290.63 1625.89 3329.63 1634.53"/><polygon class="cls-5" points="3404.63 1545.89 3385.63 1561.39 3385.63 1575.89 3403.19 1585.91 3437.63 1593.09 3458.24 1590.56 3470.47 1585.91 3488.8 1593.09 3497.13 1593.09 3510.63 1599.2 3504.63 1585.91 3519.63 1576.89 3509.63 1557.89 3404.63 1545.89"/><polygon id="right_shoe" class="cls-6" points="3499.63 1547.89 3509.63 1557.89 3510.63 1562.89 3510.63 1568.89 3508.63 1577.89 3497.63 1581.89 3486.63 1581.89 3478.63 1579.89 3468.63 1575.89 3455.63 1571.89 3451.63 1547.89 3483.63 1540.89 3499.63 1547.89"/><polygon id="shoe_shadow" class="cls-7" points="3462.8 1562.59 3463.63 1570.89 3462.63 1573.89 3476.63 1578.89 3478.63 1579.89 3477.63 1575.89 3472.63 1570.89 3470.63 1564.89 3477.63 1557.89 3462.8 1562.59"/><polygon id="left_shoe" class="cls-6" points="3402.63 1540.89 3393.63 1544.89 3391.63 1553.89 3391.63 1562.89 3393.63 1569.89 3404.63 1579.89 3416.63 1579.89 3431.63 1579.89 3453.63 1582.89 3461.63 1576.89 3463.63 1570.89 3462.63 1560.89 3460.63 1555.89 3448.63 1547.89 3423.63 1541.89 3402.63 1540.89"/><polygon id="face" class="cls-8" points="3347.63 1388.89 3347.63 1381.89 3349.63 1378.89 3353.63 1375.89 3357.63 1371.89 3362.63 1370.89 3366.63 1363.89 3364.63 1357.89 3363.41 1356.47 3365.63 1348.89 3391.63 1342.89 3407.63 1357.89 3411.63 1368.89 3402.63 1379.89 3391.63 1391.89 3381.63 1402.89 3375.4 1400.83 3374.63 1398.89 3372.63 1397.89 3372.63 1395.89 3367.63 1394.89 3364.63 1388.89 3363.63 1383.89 3358.63 1387.89 3355.63 1390.89 3353.63 1392.89 3350.63 1392.89 3347.63 1390.89 3347.63 1388.89"/><polygon id="hair" class="cls-9" points="3400.63 1329.89 3395.63 1324.89 3394.63 1329.89 3385.63 1329.89 3380.63 1328.89 3380.63 1330.89 3373.63 1330.89 3374.63 1333.89 3367.63 1334.89 3366.63 1338.89 3373.63 1338.89 3360.63 1345.89 3362.63 1347.89 3359.63 1348.89 3359.63 1350.89 3355.63 1353.89 3359.63 1356.89 3362.63 1353.89 3361.63 1357.89 3366.63 1353.89 3370.63 1355.89 3374.63 1352.89 3376.63 1354.89 3383.63 1347.89 3378.63 1357.89 3380.63 1361.89 3378.63 1367.89 3381.63 1373.89 3383.63 1367.89 3383.63 1372.89 3386.63 1374.89 3386.63 1379.89 3390.63 1373.89 3391.63 1363.89 3394.63 1359.89 3399.63 1361.89 3401.63 1363.89 3404.63 1366.89 3404.63 1370.89 3404.63 1377.45 3411.63 1368.89 3429.63 1358.89 3428.63 1355.89 3425.63 1351.89 3424.63 1347.89 3420.63 1344.89 3418.63 1340.89 3414.63 1339.89 3412.63 1336.89 3409.63 1333.89 3405.63 1332.89 3400.63 1329.89"/><polygon id="shirt" class="cls-10" points="3429.63 1358.89 3411.63 1368.89 3402.63 1379.89 3379.63 1395.89 3367.63 1409.89 3367.63 1416.89 3356.63 1429.89 3347.63 1433.89 3371.63 1459.89 3400.63 1455.89 3435.63 1465.89 3494.63 1420.89 3499.63 1411.89 3479.63 1393.89 3479.63 1387.89 3471.63 1380.89 3468.63 1374.89 3459.63 1372.89 3458.63 1367.89 3442.63 1367.89 3439.63 1362.89 3429.63 1358.89"/><polygon id="arm_shadow" class="cls-11" points="3394.07 1444.74 3399.63 1434.89 3399.63 1427.89 3401.63 1429.89 3401.63 1411.89 3401.63 1406.89 3397.63 1400.89 3395.63 1396.89 3389.63 1395.89 3387.63 1393.89 3391.63 1393.89 3397.63 1393.89 3401.63 1396.89 3402.63 1400.89 3405.63 1404.89 3406.63 1407.89 3406.63 1412.89 3408.63 1414.89 3405.63 1418.89 3405.63 1425.89 3404.63 1431.89 3410.63 1422.89 3412.63 1411.89 3413.63 1418.89 3413.63 1423.89 3410.63 1430.89 3409.63 1436.89 3410.63 1442.89 3411.78 1447.89 3413.63 1455.89 3401.63 1452.89 3394.07 1444.74"/><polygon id="shadow" class="cls-11" points="3471.63 1405.89 3478.63 1411.89 3480.63 1417.89 3484.63 1415.89 3480.63 1411.89 3471.63 1405.89"/><polygon id="shadow-2" data-name="shadow" class="cls-11" points="3452.63 1403.89 3454.63 1407.89 3458.63 1409.89 3458.63 1412.89 3466.63 1414.89 3462.63 1409.89 3462.63 1406.89 3452.63 1403.89"/><polygon id="shadow-3" data-name="shadow" class="cls-11" points="3408.63 1379.89 3415.63 1379.89 3420.63 1375.89 3426.63 1373.89 3431.63 1373.89 3435.63 1373.89 3440.63 1371.89 3434.63 1370.89 3429.63 1371.89 3423.63 1371.89 3421.63 1372.89 3417.63 1374.89 3414.63 1376.89 3408.63 1379.89"/><polygon id="shadow-4" data-name="shadow" class="cls-11" points="3443.63 1412.89 3441.63 1418.89 3443.63 1420.89 3440.63 1427.89 3442.63 1432.89 3445.63 1434.89 3445.63 1440.89 3429.63 1437.89 3430.63 1435.89 3437.63 1434.89 3435.63 1429.89 3439.63 1424.89 3437.63 1419.89 3443.63 1412.89"/><polygon id="shadow-5" data-name="shadow" class="cls-11" points="3418.63 1445.89 3416.63 1439.89 3417.63 1435.89 3414.63 1431.89 3418.63 1432.89 3420.63 1426.89 3420.63 1432.89 3421.63 1435.89 3419.63 1440.89 3426.63 1447.89 3421.63 1449.89 3413.63 1453.55 3411.63 1447.89 3418.63 1445.89"/><polygon id="pant" class="cls-12" points="3504.63 1552.89 3504.63 1545.89 3502.63 1542.89 3498.63 1510.89 3498.63 1485.89 3501.63 1464.89 3501.63 1442.89 3494.63 1420.89 3497.63 1416.89 3476.63 1425.89 3460.63 1427.89 3451.63 1431.89 3445.63 1436.89 3437.63 1434.89 3434.63 1437.89 3429.63 1437.89 3424.63 1443.89 3383.63 1467.89 3388.63 1502.89 3402.63 1523.89 3402.84 1533.39 3403.63 1535.89 3403.01 1540.83 3404.63 1545.89 3405.63 1551.89 3408.63 1556.89 3408.63 1560.89 3412.63 1563.89 3442.36 1564.42 3454.63 1561.89 3457.63 1562.89 3468.94 1561.36 3474.63 1559.89 3488.22 1559.13 3499.63 1556.89 3502.63 1554.89 3504.63 1552.89"/><polygon id="pant_shadow" class="cls-11" points="3411.13 1450.39 3424.63 1443.89 3429.63 1437.89 3434.63 1437.89 3437.63 1434.89 3445.63 1436.89 3451.63 1431.89 3450.13 1429.39 3445.13 1431.39 3447.13 1426.39 3452.13 1426.39 3459.13 1426.39 3461.63 1427.89 3471.13 1426.39 3476.63 1425.89 3484.63 1421.89 3497.13 1416.89 3494.13 1421.39 3495.15 1424.59 3489.13 1423.39 3479.13 1427.39 3474.13 1429.39 3468.13 1429.39 3462.13 1432.39 3456.13 1443.39 3454.13 1437.39 3446.13 1441.39 3440.13 1439.39 3432.13 1442.39 3430.13 1446.39 3432.13 1447.39 3430.13 1450.39 3426.13 1450.39 3423.13 1454.39 3420.13 1454.39 3419.13 1459.39 3414.13 1459.39 3405.13 1474.39 3409.13 1479.39 3403.13 1493.39 3403.13 1502.39 3406.13 1508.39 3406.13 1516.39 3408.13 1521.39 3403.13 1530.37 3403.13 1524.39 3388.63 1502.89 3384.13 1467.39 3411.13 1450.39"/><polygon id="leg_shadow" class="cls-11" points="3479.63 1467.89 3479.63 1474.89 3475.63 1482.89 3469.63 1490.89 3465.63 1497.89 3465.63 1507.89 3466.63 1511.89 3465.63 1515.89 3466.63 1520.89 3465.63 1527.89 3467.63 1539.89 3465.63 1546.89 3468.63 1552.89 3467.63 1556.89 3467.13 1561.57 3458.24 1562.59 3463.63 1557.89 3465.63 1552.89 3462.63 1547.89 3464.63 1539.89 3462.63 1526.89 3463.63 1520.89 3461.63 1514.89 3463.63 1510.89 3462.63 1495.89 3467.63 1489.89 3474.63 1481.89 3478.63 1474.89 3479.63 1467.89"/><polygon id="ear" class="cls-5" points="3394.63 1367.89 3395.63 1365.89 3395.63 1363.89 3397.63 1363.89 3398.63 1365.89 3399.63 1365.89 3400.63 1367.89 3401.63 1369.89 3401.63 1371.89 3400.63 1372.89 3399.63 1374.89 3398.63 1373.89 3398.63 1375.89 3395.63 1375.89 3395.63 1370.89 3398.63 1370.89 3399.63 1368.89 3398.63 1366.89 3397.63 1365.89 3394.63 1367.89"/><polygon id="ear_shadow" class="cls-5" points="3404.63 1370.89 3400.08 1381.66 3402.63 1379.89 3404.63 1377.45 3404.63 1370.89"/><polygon id="nose_shadow" class="cls-13" points="3370.63 1375.89 3370.63 1372.89 3367.63 1371.89 3369.63 1368.89 3367.63 1366.89 3365.63 1369.89 3364.63 1371.89 3361.63 1372.89 3358.63 1375.89 3358.63 1378.89 3361.63 1375.89 3363.63 1373.89 3365.63 1372.89 3369.63 1373.89 3370.63 1375.89"/><path id="tail" class="cls-8" d="M3473.63,1449.89s16,10,19,26-8,39-8,39-16,19-7,43,42,24,42,24,13.44,2.14,25-3c9-4,11-7,11-7l-2-2-10,6s-9.55,2.81-24,1c-8-1-21,1-33-19-11.66-19.44,3-40,3-40s15.19-34.5,10-48c-5-13-8.12-15.84-19-24l-4-3s-2.76-2.24-5,0a3.1,3.1,0,0,0-1,2C3469.63,1446.89,3473.63,1449.89,3473.63,1449.89Z"/><polygon id="tail_tip" class="cls-9" points="3549.63 1572.09 3549.63 1563.22 3552.16 1559.42 3550.9 1556.26 3553.43 1557.53 3556.6 1555.63 3556.6 1559.42 3561.03 1553.72 3561.03 1559.42 3564.83 1559.42 3564.83 1563.22 3568.63 1563.22 3568.63 1567.03 3564.2 1567.03 3566.1 1569.56 3561.66 1570.19 3562.93 1573.99 3554.7 1575.89 3549.63 1572.09"/><polygon id="shoe" class="cls-6" points="3241.63 1636.89 3237.63 1651.89 3239.63 1658.89 3247.63 1665.89 3273.63 1665.89 3285.63 1658.89 3291.63 1656.89 3299.63 1648.89 3305.63 1648.89 3310.63 1642.89 3308.63 1633.89 3298.63 1625.89 3284.63 1624.01 3270.63 1638.89 3241.63 1636.89"/><polygon id="shoe-2" data-name="shoe" class="cls-6" points="3336.3 1646.08 3333.63 1651.89 3336.63 1657.89 3348.63 1658.89 3361.63 1658.89 3368.63 1653.89 3379.63 1651.89 3389.63 1634.89 3388.63 1617.89 3375.63 1616.89 3366.63 1618.89 3351.63 1625.89 3336.3 1646.08"/><polygon id="leg" class="cls-14" points="3241.63 1557.02 3241.71 1611.89 3243.71 1619.89 3241.71 1623.89 3243.71 1629.89 3241.71 1636.89 3247.71 1643.89 3286.71 1640.89 3284.71 1636.89 3287.71 1626.89 3286.71 1614.89 3287.71 1605.89 3292.63 1596.89 3276.71 1599.89 3241.63 1557.02"/><polygon id="leg-2" data-name="leg" class="cls-14" points="3359.63 1557.89 3363.63 1570.89 3368.63 1577.89 3368.63 1583.89 3371.63 1588.89 3371.63 1594.89 3368.63 1598.89 3371.63 1608.89 3371.63 1622.89 3373.63 1628.89 3366.63 1636.89 3333.63 1646.89 3334.63 1627.89 3333.63 1624.89 3334.63 1619.89 3335.63 1616.89 3331.63 1612.89 3334.63 1608.89 3327.63 1603.89 3310.63 1595.04 3359.63 1557.89"/><polygon id="shadow-6" data-name="shadow" class="cls-11" points="3284.63 1602.68 3275.63 1602.89 3250.63 1572.89 3251.29 1568.92 3276.63 1599.89 3292.63 1596.89 3284.63 1602.68"/><polygon id="pant-2" data-name="pant" class="cls-14" points="3234.33 1501.66 3246.63 1458.89 3273.63 1448.89 3278.63 1452.89 3288.63 1459.89 3305.63 1450.89 3319.63 1449.89 3326.63 1452.89 3336.63 1461.89 3346.63 1465.89 3353.63 1470.89 3359.63 1495.89 3359.63 1557.89 3332.63 1591.89 3276.63 1599.89 3231.63 1544.89 3237.63 1502.89 3234.33 1501.66"/><polygon id="strap_shadow" class="cls-5" points="3267.63 1489.89 3268.63 1463.89 3278.63 1452.89 3289.63 1460.89 3305.63 1450.89 3308.58 1451.57 3309.63 1469.89 3304.63 1467.89 3310.63 1500.89 3294.63 1471.89 3286.63 1493.89 3290.63 1469.89 3284.63 1468.89 3267.63 1489.89"/><polygon id="shirt-2" data-name="shirt" class="cls-15" points="3342.57 1414.89 3349.63 1419.89 3359.63 1432.89 3372.63 1440.89 3383.63 1443.89 3404.63 1439.89 3404.63 1447.89 3410.63 1450.89 3398.63 1475.89 3377.63 1482.89 3354.13 1471.39 3336.63 1464.89 3325.63 1454.89 3305.63 1450.89 3288.63 1463.89 3273.63 1448.89 3246.63 1460.89 3234.63 1501.89 3226.63 1497.89 3226.63 1457.89 3234.63 1444.89 3251.63 1426.89 3274.63 1412.89 3284.63 1413.89 3290.63 1414.89 3299.63 1416.89 3321.63 1414.89 3339.63 1412.89 3342.57 1414.89"/><polygon id="strap" class="cls-16" points="3273.63 1465.89 3270.63 1467.89 3268.63 1463.89 3312.63 1420.89 3321.63 1414.89 3330.63 1413.89 3315.63 1422.89 3273.63 1465.89"/><polygon id="strap-2" data-name="strap" class="cls-16" points="3299.63 1465.89 3302.63 1467.89 3306.63 1465.89 3286.63 1423.89 3274.63 1412.89 3268.63 1416.64 3279.63 1424.89 3299.63 1465.89"/><polygon id="pant_shadow-2" data-name="pant_shadow" class="cls-5" points="3355.63 1521.89 3325.63 1573.89 3282.63 1581.89 3251.63 1548.89 3242.63 1522.89 3237.63 1502.89 3231.63 1544.89 3276.63 1599.89 3332.63 1591.89 3359.63 1557.89 3360.13 1513.39 3355.63 1521.89"/><polygon id="shadow-7" data-name="shadow" class="cls-5" points="3244.18 1469.01 3243.63 1454.89 3260.63 1426.89 3249.63 1454.89 3248.82 1459.92 3244.18 1469.01"/><polygon id="shadow-8" data-name="shadow" class="cls-5" points="3350.63 1457.89 3355.82 1472.52 3350.63 1467.89 3348.63 1461.89 3350.63 1457.89"/><polygon id="shadow-9" data-name="shadow" class="cls-5" points="3334.63 1447.89 3344.63 1459.89 3344.63 1462.89 3340.63 1461.89 3334.63 1447.89"/><polygon id="shadow-10" data-name="shadow" class="cls-5" points="3338.63 1429.89 3338.63 1443.89 3344.63 1449.89 3338.63 1429.89"/><polygon id="shadow-11" data-name="shadow" class="cls-5" points="3391.63 1459.89 3389.63 1450.89 3385.39 1443.94 3388.51 1443.32 3391.63 1450.89 3391.63 1459.89"/><polygon id="shadow-12" data-name="shadow" class="cls-5" points="3383.63 1446.89 3385.63 1456.89 3387.63 1457.89 3385.63 1449.89 3383.63 1446.89"/><polygon id="head" class="cls-8" points="3299.63 1387.89 3319.63 1387.89 3329.63 1399.89 3329.63 1400.89 3308.63 1406.89 3298.63 1407.89 3284.63 1404.89 3280.63 1400.89 3284.63 1395.89 3299.63 1387.89"/><polygon id="hair-2" data-name="hair" class="cls-17" points="3284.13 1396.39 3290.63 1401.89 3303.63 1404.89 3316.63 1401.89 3329.63 1399.89 3333.07 1404.37 3335.63 1405.89 3335.13 1407.04 3337.63 1408.89 3337.31 1409.88 3338.63 1410.89 3339.63 1412.89 3321.63 1414.89 3299.63 1416.89 3274.63 1412.89 3273.63 1411.89 3274.63 1409.89 3272.63 1408.89 3275.63 1405.89 3284.13 1396.39"/><path id="tail-2" data-name="tail" class="cls-8" d="M3287.63,1498.89s-10,22-15,24-21,13-22,16-10,22-9,35,17,36,17,36,24,15,32,16c11,1.37,18,11,18,11l4-2s-8.18-10.86-21-13c-12-2-29-16-29-16s-14-18-12-33,10-30,10-30,11.1-10,16-11,20-33,20-33a2.94,2.94,0,0,0-3-3h-2S3288.63,1494.89,3287.63,1498.89Z"/><path id="tail_tip-2" data-name="tail_tip" class="cls-17" d="M3307.63,1635.89s-3,4-2,8a24.89,24.89,0,0,0,3,7v-5l2,4,2-4,5,6v-8l3,2v-4h4l-5-3,4-2s-10-5-13-3Z"/><polygon id="shadow-13" data-name="shadow" class="cls-11" points="3318.63 1599.2 3334.63 1597.89 3357.63 1564.89 3359.63 1557.89 3332.63 1591.89 3310.63 1595.04 3318.63 1599.2"/></g></g></svg>
