<svg xmlns="http://www.w3.org/2000/svg" viewBox="0 0 4002.13 2498"><defs><style>.cls-1{isolation:isolate;}.cls-2{fill:#424735;}.cls-10,.cls-11,.cls-2,.cls-3,.cls-4,.cls-5,.cls-6,.cls-7,.cls-8,.cls-9{fill-rule:evenodd;}.cls-3{fill:#705f47;}.cls-4{fill:#555759;}.cls-5,.cls-7{fill:#070707;}.cls-5,.cls-6{opacity:0.2;}.cls-6{fill:#1f2021;}.cls-10,.cls-11,.cls-7{opacity:0.3;}.cls-8{fill:#828282;}.cls-10,.cls-9{fill:#0a0a0a;}.cls-9{opacity:0.4;}.cls-11{fill:#121314;}.cls-12{fill:none;}</style></defs><title>8</title><g id="Layer_2" data-name="Layer 2"><g id="ground_one" class="cls-1"><path class="cls-2" d="M4000,1796.83V2498H1457.73L514,2495s1.59-1.55,4.44-4.27c7.14-6.79,22.23-20.92,40.12-36.28,35.6-30.6,82.29-66.1,99.44-58.45,29.19,13,41.62-18.21,81,10s-58.93-58.42,29-80,82-78,82-78,76.18-42.08,106-13,117.31-141.11,227-134,285.51-35.84,317-8c27.39,24.22,25.59-81.85,63.22-111.51h.05A33.42,33.42,0,0,1,1583,1974c58.6-2.47,227-146,226-148-.42-.83,35.72-15,89.71-27.59A778.77,778.77,0,0,1,2002,1781.25c17.55-1.67,35.59-2.68,53.81-2.8,38.31-.25,77.39,3.48,114.23,13.55,159.94,43.71,179.77-47.9,261-6,50.28,25.94,153.27,27.81,224.44,25.47,3.56-.12,7.05-.24,10.44-.38,38.32-1.53,65.12-4.09,65.12-4.09s10-.94,26.95-2.64c15.68-1.58,37.32-3.82,62.51-6.57,13.68-1.5,28.4-3.14,43.79-4.92l.23,0c11.75-1.36,23.89-2.8,36.25-4.3,7.42-.9,14.94-1.83,22.49-2.78h0c17-2.15,34.27-4.41,51.27-6.76h0c21.14-2.91,41.91-6,61.52-9.1,12.24-2,24-4,35.14-6h0c10.79-2,21-3.93,30.33-5.92,25.06-5.32,44.39-10.72,54.48-16,58.3-30.55,119-52,119-52l8.33,1.8L3363,1709s5.29-.85,14-2.06c14.64-2,38.92-5.09,63.78-6.88l.48,0c12.18-.87,24.49-1.43,35.86-1.41h0c16.23,0,30.54,1.22,39.88,4.39,7.21,2.44,14.9,1.85,22.9-.58,31.53-9.56,68-47.62,99.54-41.07A34.57,34.57,0,0,1,3645,1663c22.4,8.75,103.94,17.21,186.66,41.3,63.14,18.38,127,45.87,165.74,89.52C3998.29,1794.81,3999.16,1795.81,4000,1796.83Z"/><g id="path_one"><path class="cls-3" d="M3784.68,2498H2723.88s-46.85-27.41-96-75.42c-57.21-55.92-117.48-139.78-110.37-240.84,5.87-83.22,42.37-151.9,81.21-202.59a505,505,0,0,1,49-55c4.06-4,8-7.64,11.75-11.07,23.59-21.52,40.53-32.9,40.53-32.9l69.5-37,16.68-8.88,37.18-19.76,40.82-21.71.23,0,35-5.15,32.65-4.8,44.94-6.6,59.63-8.76,33.39-4.91,31.39-4.61-30.42,25.37-53.38,44.52-68.15,56.84-2.93,2.43-34.81,29-7.69,6.41-3,2.52s-6.3,5.37-14.54,13.54c-10.57,10.49-24.33,25.6-32,39.9-6.5,12.06-8.7,23.55-1,31.21a472.91,472.91,0,0,0,50.11,44.51c1.57,1.19,3.18,2.4,4.82,3.61a392.4,392.4,0,0,0,75.13,43.73,363.77,363.77,0,0,0,89.5,26.37c109.76,17.44,600.42,304.41,695.59,360.52l7.64,4.51Z"/></g><g id="rock_big"><path class="cls-4" d="M4000,1786.9v104.45h0l-2.88,1.1-210.37,80.24-136.48,52-140.73,53.67s-24,1.22-60.08,2.71c-8.75.36-18.21.74-28.21,1.12-93.05,3.54-232.45,7.3-279,.43-7.59-1.12-12.72-2.52-14.76-4.26-4.26-3.61-10.95-8.21-19-13.76-20-13.79-48.53-33.45-69.61-58.21l-.33-.39-2.5-3-.09-.1a127.62,127.62,0,0,1-17.73-28.47,89.5,89.5,0,0,1-6.4-20.95c-5.17-30.21-7.72-52.69-5.76-72.31a109.92,109.92,0,0,1,2.07-13.09c.66-3,1.43-5.87,2.36-8.77,4-12.59,10.48-24.72,20.16-38,5.05-6.93,12.19-14.25,20.55-21.61,39.7-35,106.83-71.19,106.83-71.19l113.12-50.27,7.9-3.51,87.35,19.17,2.15.48s2.29-.38,6.36-1c10.21-1.53,31.63-4.52,56.35-6.59l.49,0c11.85-1,24.44-1.75,36.92-2,20.43-.5,40.53.28,56.49,3.47,2.33.47,4.63.82,6.92,1.06,51.17,5.5,92.38-41.62,92.38-41.62s3.15-.44,8.85-.86a332.62,332.62,0,0,1,50.88.41c31.76,2.59,72.56,10.21,113.2,29.71,11,5.27,21.4,10,31.4,14.3,61,26.48,106.14,39.91,168.55,93.41C3998.23,1785.37,3999.11,1786.14,4000,1786.9Z"/><path class="cls-5" d="M3403,1715.62l-11.13,1-112.77-41.86,87.35,19.17,2.15.48s2.29-.38,6.36-1Z"/><path class="cls-6" d="M3997.35,1784.61,3921,1758l-123.44-47.41-54.94-42.09-118.15-20.87,59.73-.45c31.76,2.59,72.56,10.21,113.2,29.71,11,5.27,21.4,10,31.4,14.3C3889.77,1717.68,3934.94,1731.11,3997.35,1784.61Z"/><path class="cls-7" d="M3449.46,2081.13l43.54-42.46-66.31,23.25-254.53.08-42.08-10.2L3036,2002.93l.09.1,2.5,3,.33.39c21.08,24.76,49.6,44.42,69.61,58.21,8.07,5.55,14.76,10.15,19,13.76,2,1.74,7.17,3.14,14.76,4.26,46.53,6.87,185.93,3.11,279-.43,10-.38,19.46-.76,28.21-1.12Z"/></g><g id="rock_small"><path class="cls-8" d="M4000,1860.67V2154l-1.65.14-53,4.46-43.29-7.74-59.6-10.65-57.74-45.75L3694.74,2128H3504.27l-76.71-47.71,71.42-70.51,39.68-79.36,164-63.49s47.61-26.46,63.49-34.39,95.23,45,95.23,45l1.31-.69,43.66-23.12,1.68.13h0Z"/><polygon id="shadow" class="cls-9" points="3784.68 2094.44 3694.74 2128.01 3504.27 2128.01 3504.27 2128.01 3694.18 2113.68 3784.68 2094.44 3694.18 2113.68 3784.68 2094.44"/><path class="cls-10" d="M3862.71,1876.83v8.45l-38.48-23.8-58.06-28.93c15.87-7.94,95.23,45,95.23,45Z"/><polygon class="cls-10" points="4000 1860.67 4000 1870.41 3971.2 1862.08 3908.06 1853.84 4000 1860.67"/><polygon class="cls-11" points="4000 2145 4000 2153.98 3945.31 2158.58 3902.02 2150.84 3893.86 2149.38 3946.93 2155.9 4000 2145"/></g><rect class="cls-12" width="4002.13" height="2498"/></g></g></svg>