<svg xmlns="http://www.w3.org/2000/svg" viewBox="0 0 4002.13 2498"><defs><style>.cls-1{isolation:isolate;}.cls-2{fill:#424735;}.cls-10,.cls-11,.cls-2,.cls-3,.cls-4,.cls-5,.cls-6,.cls-7,.cls-8,.cls-9{fill-rule:evenodd;}.cls-3{fill:#705f47;}.cls-4{fill:#555759;}.cls-5,.cls-7{fill:#070707;}.cls-5,.cls-6{opacity:0.2;}.cls-6{fill:#1f2021;}.cls-10,.cls-11,.cls-7{opacity:0.3;}.cls-8{fill:#828282;}.cls-10,.cls-9{fill:#0a0a0a;}.cls-9{opacity:0.4;}.cls-11{fill:#121314;}.cls-12{fill:none;}.cls-13{fill:#5b4f40;}.cls-14{fill:#402f1e;}.cls-15{fill:#725443;}.cls-16{fill:#242624;}.cls-17{fill:#2b2f2f;}.cls-18{fill:#373936;}.cls-19{fill:#222224;}.cls-20{fill:#4d4d4f;}.cls-21{fill:#212222;}.cls-22{fill:#483d2a;}.cls-23{fill:#80623e;}.cls-24{fill:#6b4d2b;}.cls-25{fill:#3d2614;}.cls-26{fill:#202020;opacity:0.42;}
    
    #troll_gubbe, #shadow_body, #shadow_stav{
    animation: trolls-away 10s ease-in-out forwards;}
    
    @keyframes trolls-away {
    0% {opacity: 1;}
    100% {opacity: 0;}
    }
    
    </style></defs><title>8</title><g id="Layer_2" data-name="Layer 2"><g id="ground_one" class="cls-1"><path class="cls-2" d="M4000,1796.83V2498H1457.73L514,2495s1.59-1.55,4.44-4.27c7.14-6.79,22.23-20.92,40.12-36.28,35.6-30.6,82.29-66.1,99.44-58.45,29.19,13,41.62-18.21,81,10s-58.93-58.42,29-80,82-78,82-78,76.18-42.08,106-13,117.31-141.11,227-134,285.51-35.84,317-8c27.39,24.22,25.59-81.85,63.22-111.51h.05A33.42,33.42,0,0,1,1583,1974c58.6-2.47,227-146,226-148-.42-.83,35.72-15,89.71-27.59A778.77,778.77,0,0,1,2002,1781.25c17.55-1.67,35.59-2.68,53.81-2.8,38.31-.25,77.39,3.48,114.23,13.55,159.94,43.71,179.77-47.9,261-6,50.28,25.94,153.27,27.81,224.44,25.47,3.56-.12,7.05-.24,10.44-.38,38.32-1.53,65.12-4.09,65.12-4.09s10-.94,26.95-2.64c15.68-1.58,37.32-3.82,62.51-6.57,13.68-1.5,28.4-3.14,43.79-4.92l.23,0c11.75-1.36,23.89-2.8,36.25-4.3,7.42-.9,14.94-1.83,22.49-2.78h0c17-2.15,34.27-4.41,51.27-6.76h0c21.14-2.91,41.91-6,61.52-9.1,12.24-2,24-4,35.14-6h0c10.79-2,21-3.93,30.33-5.92,25.06-5.32,44.39-10.72,54.48-16,58.3-30.55,119-52,119-52l8.33,1.8L3363,1709s5.29-.85,14-2.06c14.64-2,38.92-5.09,63.78-6.88l.48,0c12.18-.87,24.49-1.43,35.86-1.41h0c16.23,0,30.54,1.22,39.88,4.39,7.21,2.44,14.9,1.85,22.9-.58,31.53-9.56,68-47.62,99.54-41.07A34.57,34.57,0,0,1,3645,1663c22.4,8.75,103.94,17.21,186.66,41.3,63.14,18.38,127,45.87,165.74,89.52C3998.29,1794.81,3999.16,1795.81,4000,1796.83Z"/><g id="path_one"><path class="cls-3" d="M3784.68,2498H2723.88s-46.85-27.41-96-75.42c-57.21-55.92-117.48-139.78-110.37-240.84,5.87-83.22,42.37-151.9,81.21-202.59a505,505,0,0,1,49-55c4.06-4,8-7.64,11.75-11.07,23.59-21.52,40.53-32.9,40.53-32.9l69.5-37,16.68-8.88,37.18-19.76,40.82-21.71.23,0,35-5.15,32.65-4.8,44.94-6.6,59.63-8.76,33.39-4.91,31.39-4.61-30.42,25.37-53.38,44.52-68.15,56.84-2.93,2.43-34.81,29-7.69,6.41-3,2.52s-6.3,5.37-14.54,13.54c-10.57,10.49-24.33,25.6-32,39.9-6.5,12.06-8.7,23.55-1,31.21a472.91,472.91,0,0,0,50.11,44.51c1.57,1.19,3.18,2.4,4.82,3.61a392.4,392.4,0,0,0,75.13,43.73,363.77,363.77,0,0,0,89.5,26.37c109.76,17.44,600.42,304.41,695.59,360.52l7.64,4.51Z"/></g><g id="rock_big"><path class="cls-4" d="M4000,1786.9v104.45h0l-2.88,1.1-210.37,80.24-136.48,52-140.73,53.67s-24,1.22-60.08,2.71c-8.75.36-18.21.74-28.21,1.12-93.05,3.54-232.45,7.3-279,.43-7.59-1.12-12.72-2.52-14.76-4.26-4.26-3.61-10.95-8.21-19-13.76-20-13.79-48.53-33.45-69.61-58.21l-.33-.39-2.5-3-.09-.1a127.62,127.62,0,0,1-17.73-28.47,89.5,89.5,0,0,1-6.4-20.95c-5.17-30.21-7.72-52.69-5.76-72.31a109.92,109.92,0,0,1,2.07-13.09c.66-3,1.43-5.87,2.36-8.77,4-12.59,10.48-24.72,20.16-38,5.05-6.93,12.19-14.25,20.55-21.61,39.7-35,106.83-71.19,106.83-71.19l113.12-50.27,7.9-3.51,87.35,19.17,2.15.48s2.29-.38,6.36-1c10.21-1.53,31.63-4.52,56.35-6.59l.49,0c11.85-1,24.44-1.75,36.92-2,20.43-.5,40.53.28,56.49,3.47,2.33.47,4.63.82,6.92,1.06,51.17,5.5,92.38-41.62,92.38-41.62s3.15-.44,8.85-.86a332.62,332.62,0,0,1,50.88.41c31.76,2.59,72.56,10.21,113.2,29.71,11,5.27,21.4,10,31.4,14.3,61,26.48,106.14,39.91,168.55,93.41C3998.23,1785.37,3999.11,1786.14,4000,1786.9Z"/><path class="cls-5" d="M3403,1715.62l-11.13,1-112.77-41.86,87.35,19.17,2.15.48s2.29-.38,6.36-1Z"/><path class="cls-6" d="M3997.35,1784.61,3921,1758l-123.44-47.41-54.94-42.09-118.15-20.87,59.73-.45c31.76,2.59,72.56,10.21,113.2,29.71,11,5.27,21.4,10,31.4,14.3C3889.77,1717.68,3934.94,1731.11,3997.35,1784.61Z"/><path class="cls-7" d="M3449.46,2081.13l43.54-42.46-66.31,23.25-254.53.08-42.08-10.2L3036,2002.93l.09.1,2.5,3,.33.39c21.08,24.76,49.6,44.42,69.61,58.21,8.07,5.55,14.76,10.15,19,13.76,2,1.74,7.17,3.14,14.76,4.26,46.53,6.87,185.93,3.11,279-.43,10-.38,19.46-.76,28.21-1.12Z"/></g><g id="rock_small"><path class="cls-8" d="M4000,1860.67V2154l-1.65.14-53,4.46-43.29-7.74-59.6-10.65-57.74-45.75L3694.74,2128H3504.27l-76.71-47.71,71.42-70.51,39.68-79.36,164-63.49s47.61-26.46,63.49-34.39,95.23,45,95.23,45l1.31-.69,43.66-23.12,1.68.13h0Z"/><polygon id="shadow" class="cls-9" points="3784.68 2094.44 3694.74 2128.01 3504.27 2128.01 3504.27 2128.01 3694.18 2113.68 3784.68 2094.44 3694.18 2113.68 3784.68 2094.44"/><path class="cls-10" d="M3862.71,1876.83v8.45l-38.48-23.8-58.06-28.93c15.87-7.94,95.23,45,95.23,45Z"/><polygon class="cls-10" points="4000 1860.67 4000 1870.41 3971.2 1862.08 3908.06 1853.84 4000 1860.67"/><polygon class="cls-11" points="4000 2145 4000 2153.98 3945.31 2158.58 3902.02 2150.84 3893.86 2149.38 3946.93 2155.9 4000 2145"/></g><rect class="cls-12" width="4002.13" height="2498"/></g><g id="troll_gubbe"><polygon id="shadow_body" class="cls-13" points="2791.27 2180.02 2914.26 2171.49 3031.89 2203.11 3009.97 2257.05 2983.22 2266.35 3024.06 2281.22 2960.68 2281.22 2859.52 2236.21 2791.27 2236.21 2749.97 2197.53 2791.27 2180.02"/><polygon id="shadow_stav" class="cls-13" points="2652.77 2177.88 2670.2 2187.77 2682.21 2175.47 2670.16 2171.49 2652.77 2177.88"/><polygon id="stav" class="cls-14" points="2682.21 1669.63 2675.28 1671.97 2652.77 1910.33 2665.94 2179.68 2670.33 2179.68 2667.99 2064.65 2665.39 1911.47 2682.21 1669.63"/><path id="hand" class="cls-15" d="M2693.68,1710.92s-1-12-12-10-20,6-20,14c0,0-12,4-5,13,0,0-3,10,2,15,0,0-3,7.15,9.1,9.82,0,0-.56,4.57,15,2.78,0,0,6.34-6.25,11.34-6.92,7.21-1,6.62-12.48,6-33.75C2700.15,1713.32,2693.79,1712.56,2693.68,1710.92Z"/><polygon id="shoe_left" data-name="shoe left" class="cls-16" points="2913.86 2199.77 2919.19 2231.32 2946.3 2236.21 2972.08 2236.21 2979.19 2214.43 2973.86 2191.77 2971.63 2174.43 2973.41 2145.99 2974.76 2139.33 2949.34 2144.28 2926.55 2143.4 2926.74 2146.43 2926.74 2181.54 2913.86 2199.77"/><polygon id="shoe_right" data-name="shoe right" class="cls-16" points="2804.52 2218.43 2893.41 2227.77 2901.18 2223.32 2904.52 2203.77 2893.86 2187.77 2899.19 2151.32 2900.25 2138.1 2872.32 2136.99 2849.56 2132.27 2851.19 2137.54 2851.19 2183.32 2834.3 2198.88 2808.97 2204.66 2804.52 2218.43"/><polygon id="pantalones" class="cls-17" points="2838.3 2030.88 2845.86 2052.65 2842.34 2075.91 2841.86 2090.88 2843.02 2105.3 2842.22 2120.94 2847.24 2132.27 2872.32 2136.99 2900.25 2138.1 2905.4 2133.58 2906.4 2125.75 2913.86 1976.59 2914.82 2121.83 2918.13 2141.47 2926.55 2143.4 2949.34 2144.28 2962.36 2141.74 2974.77 2139.33 2982.32 2133 2990.56 2122.04 2988.71 2097.03 2985.41 2077.99 2984.99 2060.3 2987.26 2016.57 2999.63 1975.77 2999.86 1958.95 3000.25 1930.93 3000.74 1924.3 2943.01 1927.33 2884.01 1917.67 2832.98 1908.51 2832.92 1910.93 2831.96 1937.84 2830.3 1984.65 2839.19 2003.32 2838.3 2030.88"/><polygon id="shadow-2" data-name="shadow" class="cls-18" points="2919.56 1573.69 2943.55 1593.1 2960.96 1610.77 3010.58 1657.23 3025.18 1689.57 3028.5 1709.32 3043.35 1715.62 3055.47 1713.86 3055.47 1712.6 3055.19 1676.21 3040.97 1640.65 3024.08 1611.76 2983.63 1588.21 2960.96 1566.63 2939.23 1573.1 2919.56 1573.69"/><polygon id="body" class="cls-19" points="2686.09 1761.86 2728.49 1769.1 2767.72 1758.47 2815.78 1714.53 2825.56 1773.25 2826.49 1805.87 2834.42 1848.28 2833.16 1900.84 2832.98 1908.51 2884.01 1917.67 2943.01 1927.33 3000.23 1924.33 3000.74 1924.3 3003.33 1889.61 3011.41 1859.5 3023.43 1835.54 3032.9 1814.6 3039.21 1786.54 3046.93 1760.24 3055.47 1734.64 3055.47 1713.86 3043.35 1715.62 3028.5 1709.32 3025.18 1689.57 3010.58 1657.23 2960.96 1610.77 2943.55 1593.1 2919.56 1573.69 2912.7 1573.9 2895.47 1568.71 2799.8 1630.63 2792.37 1664.7 2748.07 1698.5 2698.37 1711.56 2686.09 1761.86"/><polygon id="nasen" class="cls-15" points="2908.13 1521.79 2887.65 1515.79 2865.35 1507.76 2857.42 1506.44 2850.62 1508.24 2846.18 1512.16 2847.53 1517.28 2859.77 1524.77 2885.21 1529.24 2912.86 1533.56 2908.13 1521.79"/><polygon id="tophat" class="cls-20" points="2883.23 1465.64 2886.75 1478.48 2895.56 1497.1 2918.21 1508.93 2951.93 1511.44 2970.09 1498.64 2972.36 1473.38 2961.53 1450.58 2942.74 1438.88 2914.3 1434.88 2892.52 1445.99 2884.97 1456.21 2883.23 1465.64"/><polygon id="brim" class="cls-21" points="2853.41 1492.21 2858.74 1509.1 2876.08 1524.21 2895.4 1530.72 2929.19 1539.04 2966.74 1540.21 2987.19 1529.54 3004.97 1502.43 3000.52 1483.32 2986.3 1464.65 2969.86 1455.76 2961.53 1450.58 2972.36 1473.38 2970.09 1498.64 2951.93 1511.44 2918.21 1508.93 2895.56 1497.1 2886.75 1478.48 2883.23 1465.64 2884.97 1456.21 2869.41 1462.43 2859.19 1477.1 2853.41 1492.21"/><polygon id="sveis" class="cls-22" points="2899.09 1531.63 2903.98 1550.71 2910.5 1558.17 2926.43 1565.39 2941.48 1564.27 2951.69 1563.28 2954.58 1562.42 2954.56 1562.41 2951.68 1560.51 2966.74 1540.21 2929.19 1539.04 2899.09 1531.63"/><polygon id="hode" class="cls-15" points="2876.08 1524.21 2884.52 1553.54 2893.8 1560.01 2895.47 1568.71 2912.7 1573.9 2939.23 1573.1 2960.96 1566.63 2954.58 1562.42 2951.69 1563.28 2941.48 1564.27 2926.43 1565.39 2910.5 1558.17 2903.98 1550.71 2899.09 1531.63 2895.4 1530.72 2876.08 1524.21"/><g id="hale"><polygon id="hale-2" data-name="hale" class="cls-15" points="2909.14 1935.54 2925.34 1987.25 2947.77 2030.24 2975.87 2058.28 3031.88 2084.45 3120.35 2100.65 3144.65 2090.68 3140.29 2081.33 3118.63 2091.25 3034.89 2075.8 2978.56 2048.36 2955.93 2024.13 2937.64 1983.85 2922.76 1935.99 2909.14 1935.54"/><polygon id="haletipp" class="cls-22" points="3132.83 2066.25 3130.15 2070.43 3127.1 2078.15 3129.46 2090.26 3136.84 2098.86 3149.79 2099.32 3159.15 2094.48 3165.26 2086.21 3170.33 2077.05 3162.89 2076.5 3166.57 2065.67 3157.95 2068.58 3158.76 2057.42 3147.95 2061.41 3149.61 2053.98 3141.04 2058.86 3136.24 2063.16 3132.83 2066.25"/></g><g id="baggg"><polygon id="bag" class="cls-23" points="2760.08 1798.43 2775.63 1850.43 2805.41 1866.88 2813 1888.33 2832.92 1910.93 2915.53 1930.93 2959.5 1933.54 3000.25 1930.93 3020.97 1912.65 3027.58 1884.69 3048.97 1868.65 3054.91 1844.84 3072.97 1817.54 3074.04 1799.51 3081.73 1776.56 3053.54 1741.66 3063.39 1726.12 3062.3 1716.21 3045.53 1710.45 3012.65 1700.7 2980.41 1695.28 2960.17 1693.38 2936.26 1688.38 2905.4 1680.02 2881.77 1675.68 2848.83 1668.02 2827.7 1666.77 2827.69 1666.77 2792 1695.28 2779.64 1718.25 2769.24 1736.37 2769.87 1747.76 2767.72 1758.47 2760.08 1798.43"/><polygon id="shadow-3" data-name="shadow" class="cls-24" points="2767.93 1824.68 2775.63 1850.43 2805.41 1866.88 2813 1888.33 2832.92 1910.93 2915.53 1930.93 2959.5 1933.54 3000.25 1930.93 3020.97 1912.65 3027.58 1884.69 3048.97 1868.65 3049.92 1864.85 3001.54 1890.67 2959.95 1894.64 2897.73 1890.67 2856.94 1882.48 2812.23 1855.03 2767.93 1824.68"/><polygon id="flap" class="cls-24" points="2827.7 1666.77 2842.89 1720.04 2875.45 1773.49 2911.06 1798.59 2966.53 1780.79 3034.55 1743.13 3062.3 1716.21 3045.53 1710.45 3012.65 1700.7 2980.41 1695.28 2960.17 1693.38 2936.26 1688.38 2905.4 1680.02 2881.77 1675.68 2848.83 1668.02 2827.7 1666.77"/><polygon id="strapleft" class="cls-25" points="3000.76 1598.18 2972.62 1696.13 2955.68 1694.11 2992.03 1593.09 3000.76 1598.18"/><polygon id="strapright" class="cls-25" points="2878.81 1579.49 2872.78 1583.39 2905.57 1626.57 2923.84 1687.19 2935.18 1689.57 2917.63 1626.13 2878.81 1579.49"/></g><polygon id="pants_shadwo" data-name="pants shadwo" class="cls-26" points="2831.96 1930.14 2832.92 1931.24 2915.53 1951.24 2959.5 1953.84 2999.86 1951.25 3000.23 1924.33 2943.01 1927.33 2884.01 1917.67 2832.98 1908.51 2833.16 1900.84 2832.98 1900.81 2832.92 1903.24 2831.96 1930.14"/></g></g></svg>