<?xml version="1.0" encoding="utf-8"?>
<!-- Generator: Adobe Illustrator 21.1.0, SVG Export Plug-In . SVG Version: 6.00 Build 0)  -->
<svg version="1.1" xmlns="http://www.w3.org/2000/svg" xmlns:xlink="http://www.w3.org/1999/xlink" x="0px" y="0px"
	 viewBox="0 0 447 262" style="enable-background:new 0 0 447 262;" xml:space="preserve">
<style type="text/css">
	.st0{fill:#7A4C5E;}
	.st1{fill:#775052;}
	.st2{fill:#F4ACA7;}
	.st3{opacity:0.2;fill:#393248;}
	.st4{fill:#64323D;}
	.st5{fill:#AB6767;}
	.st6{fill:#E4C2B1;}
	.st7{fill:#8D4548;}
	.st8{fill:#819CAF;}
	.st9{fill:#DDEDFF;}
	.st10{opacity:0.6;fill:#E5C1B7;}
	.st11{opacity:0.4;fill:#393248;}
	.st12{fill:#E1D7D1;}
	.st13{fill:#CC806E;}
	.st14{fill:#FFF9F7;}
	.st15{fill:#393248;}
	.st16{fill:#FFE1EE;}
	.st17{fill:#BCA27E;}
	.st18{fill:#8EB2CC;}
	.st19{fill:#4D2B40;}
	.st20{fill:#C4B4B1;}
	.st21{fill:#C33C56;}
	.st22{fill:#F4DCD6;}
	.st23{fill:#F7F0E4;}
	.st24{opacity:0.3;fill:#2F3636;}
	.st25{opacity:0.8;fill:#2F3636;}
	.st26{opacity:0.5;fill:#2F3636;}
	.st27{fill:#916763;}
	.st28{fill:#AD837F;}
	.st29{fill:#E9EFE8;}
	.st30{fill:#84858B;}
	.st31{fill:#B2676A;}
	.st32{fill:#9B4B50;}
	.st33{fill:#2F3636;}
	.st34{opacity:0.2;fill:#C33C56;}
	.st35{fill:#ACAFBC;}
	.st36{fill:#704C47;}
	.st37{opacity:0.6;fill:#99716D;}
	.st38{fill:#99655C;}
	.st39{opacity:0.4;fill:#704C47;}
	.st40{fill:#898698;}
	.st41{opacity:0.3;fill:#D4D5D9;}
</style>
<g id="troll">
	<g id="body">
		<polygon class="st0" points="240.5,194.5 240.5,227.5 238.4,238.1 238.4,238.1 236.5,248 236.5,248.1 236,250.6 235.7,252.1 
			235.3,254.3 233.9,261.5 207.4,261.3 162.5,261 77,260.4 29.5,260.1 29.5,256.8 29.8,255.3 33.6,236.7 35.1,229.3 35.5,228.5 
			35.5,199.5 32.5,194.5 33.2,192.2 33.2,192.2 37.5,178.5 57.5,146.5 63.8,141 64,140.8 74.5,131.8 77,129.5 80.5,126.5 
			111.3,123.6 113,123.5 113,123.5 120.2,122.8 138.6,121.1 155.5,119.5 198.5,124.5 212.3,137.5 217.5,142.5 223.3,149 223.3,149 
			233,160 233.5,160.5 		"/>
		<polygon class="st1" points="240.5,227.5 238.4,238.1 238.4,238.1 236.5,248 236.5,248.1 236,250.6 235.7,252.1 235.3,254.3 
			233.9,261.5 207.4,261.3 162.5,261 77,260.4 29.5,260.1 29.5,256.8 29.8,255.3 33.6,236.7 35.1,229.3 35.5,227.5 35.5,207.2 
			83.5,225.5 148.8,227 164.2,227.4 164.2,227.4 170.5,227.5 176.1,226.5 237.5,215.5 239.9,225.1 		"/>
		<polygon class="st2" points="65.5,146.5 63,137 52.5,132.5 43.5,132.5 29.5,129.5 23,125 12.5,136.5 15.5,148.5 15.5,156.5 
			12.5,165.5 10.5,172.5 12.5,176.5 12.5,187.5 16.5,191.5 21.5,191.5 27.5,194.5 37.5,190.5 44.5,191.5 51.5,188.5 55.5,183.5 
			65.5,183.5 75.5,174.5 77.5,160.5 71.5,154.5 66.5,157.5 		"/>
		<polygon class="st3" points="42.5,155.5 36.5,166.5 29.5,174.5 23.5,185.5 16.5,191.5 21.5,191.5 24.5,187.5 28.5,178.5 
			30.5,175.5 37.5,167.5 		"/>
		<polygon class="st3" points="55.5,155.5 53.5,164.5 50.5,172.5 42.5,180.5 37.5,190.5 43.5,191.5 43.5,182.5 50.5,174.5 
			52.5,172.5 54.5,166.5 		"/>
		<polygon class="st3" points="67.5,166.5 63.5,174.5 57.5,183.5 61.2,183.5 64.5,175.5 		"/>
		<polygon class="st3" points="22.5,162.5 18.5,169.5 12.5,176.5 12.5,178.9 19.5,171.5 		"/>
		<polygon class="st0" points="119.5,67.5 75.5,70.5 57.5,74.5 43.5,74.5 37.5,79.5 26.5,79.5 18.5,88.5 10.5,98.5 7.5,110.5 
			8.5,122.5 12.5,136.5 22.5,126.5 29.5,129.5 43.5,132.5 54.8,133.5 62.5,136.5 65.5,146.5 70.5,141.5 77.5,135.5 98.5,135.5 
			139.5,133.5 136.5,92.5 		"/>
		<polygon class="st0" points="245.5,124.5 258.5,153.5 258.5,162.5 263.5,166.5 263.5,175.5 274.5,178.5 288.5,187.5 292.5,189.5 
			286.5,194.5 284.5,201.5 283.5,215.5 241.5,215.5 229.5,203.5 229.5,191.5 226.5,183.5 226.5,164.5 224.5,153.5 220.5,138.5 		"/>
		<polygon class="st4" points="20.7,236.7 17.6,246 16.5,250.7 22.9,255.3 38.8,255.3 44.1,249.5 50.5,243.7 55.8,235.5 68.5,230.8 
			68.5,225 55.8,227.3 44.1,233.2 36.7,236.7 		"/>
		<polygon class="st5" points="77,249.5 77,260.4 29.5,260.1 19.6,260 19.6,252.9 22.9,255.3 38.8,255.3 50.5,243.7 55.8,235.5 
			68.5,230.8 70.6,240.2 		"/>
		<polygon class="st6" points="122.5,128.5 122.5,151.5 121.5,165.5 119.5,191.5 119.5,205.5 119.5,215.5 139.5,215.5 139.5,202.5 
			139.5,191.5 141.5,169.5 141.5,151.5 141.5,128.5 		"/>
		<polygon class="st6" points="219,210 218.5,194.5 218.5,173.5 215.5,155.5 211,138 229.5,131.5 233.5,153.5 231.5,182.5 
			233.5,194.5 237.5,215.5 218.5,215.5 		"/>
		<polygon class="st7" points="32.5,194.5 87.5,213.5 118.5,215.5 150.5,215.5 193.5,214.5 221.5,209.5 233.5,207.5 240.5,215.5 
			240.5,225 176.5,232.5 136.5,232.5 93.5,232.5 76.5,230.5 57.5,223.5 35.5,215.5 35.5,199.5 		"/>
		<polygon class="st2" points="322.5,188.5 316.5,183.5 311.5,183.5 302.5,188.5 292.5,189.5 286.5,194.5 284.5,201.5 284.1,207.2 
			344.5,204.5 342.5,196.5 328.5,196.5 314.5,196.5 306.5,197.5 317.5,194.5 321.5,191.5 		"/>
		<polygon class="st8" points="77.5,160.5 95.5,160.5 111.5,162.5 128.5,168.5 147.5,178.5 160.5,189.5 166.5,197.5 141.5,189.5 
			114.5,183.5 84.5,174.5 75.5,174.5 		"/>
		<polygon class="st9" points="91.4,176.6 111.5,178.5 126.5,182.5 146.5,187.5 166.5,197.5 141.5,189.5 114.5,183.5 		"/>
		<polygon class="st10" points="286.5,194.5 292.5,195.5 299.5,191.5 309.5,187.5 322.5,188.5 316.5,183.5 311.5,183.5 302.5,188.5 
			292.5,189.5 		"/>
		<polygon class="st3" points="51.5,101.5 37.5,92.5 16,91.6 10.5,98.5 37.5,96.5 		"/>
		<polygon class="st3" points="46.5,74.5 61.5,83.5 65.5,98.5 56.5,83.5 		"/>
		<polygon class="st3" points="7.5,122.5 25.5,112.5 9.6,126.5 		"/>
		<polygon class="st3" points="263.5,172 256.5,175.5 246.5,183.5 256.5,179.5 263.5,175.5 		"/>
		<polygon class="st11" points="62,137 62,132 67,127 79,130 87,131 79,133 68,130 65,132 		"/>
	</g>
	<g id="head">
		<path class="st12" d="M61.5,73.5l-6-5l-5,7v-17h11l11-4l9-2l5-9l3-10l8-8l6-6c0,0,8-9,12-9s13,0,13,0l11-5l9-6h12l12,3l10-3l17,11
			l9,2l12,7l8,11l8,4v10l9,11l2,11l13,5l5,7v12l-5,7l-8-8l-4,12l9,9h-8l7,11l9,12l5,3l-5,10l-7,7l-4,7l-7-14l-13,8l-9-10l-8,16
			l-9-14l-5,6l-6-7l-16,15l-1-8l-8,3l5-10l-10-5l-7,8l-9-16l-9,9l11,14l-12,2l-5,9l-9-23l-2-7l-10,3l-2,8l-5-4l-8,4l8-13l13-13l-6-3
			l-4,8l-1-13l-3-14l-5,6l-1-9l-5,2l9-23l-9,3l-9-6L61.5,73.5z"/>
		<polygon class="st2" points="191.5,27.5 171.5,27.5 165.5,33.5 165.5,41.5 155.5,44.5 152.5,52.5 147.5,57.5 147.5,76.5 
			157.5,80.5 160.5,94.5 169.5,105.5 178.5,105.5 180.5,112.5 194.5,100.5 204.5,96.5 215.5,82.5 211.5,69.5 213.5,60.5 211.5,45.5 
			202.5,38.5 		"/>
		<polygon class="st13" points="170.5,67.5 167.5,74.5 173.5,82.5 183.5,88.5 191.5,90.5 199.5,90.5 203.5,82.5 200.5,74.5 
			196.5,67.5 196.5,61.5 193.5,56.5 195.5,46.5 189.5,41.5 185.5,53.5 179.5,59.5 		"/>
		<polygon class="st14" points="177.5,54.5 172.5,49.5 167.5,49.5 162.5,54.5 164.5,59.5 168.5,60.5 173.5,60.5 177.5,57.5 		"/>
		<polygon class="st15" points="198.5,61.5 202.5,61.5 204.5,63.5 207.5,64.5 209.5,65.5 210.5,67.5 208.5,67.5 206.5,65.5 
			204.5,65.5 202.5,63.5 199.5,63.5 		"/>
		<polygon class="st15" points="162.5,86.5 169.5,89.5 173.5,90.5 177.5,90.5 180.5,93.5 184.5,94.5 188.5,95.5 192.5,97.5 
			196.5,96.5 194.5,98.5 190.5,98.5 187.5,96.5 183.5,95.5 179.5,94.5 176.5,94.5 172.5,93.5 170.5,92.5 168.5,90.5 		"/>
		<polygon class="st16" points="176.5,91.5 176.5,93.5 170.5,92.5 170.5,89.8 173.5,90.5 176.5,90.5 		"/>
		<polygon class="st10" points="181.5,51.5 179.5,47.5 174.5,44.5 167.5,45.5 162.5,47.5 162.5,49.5 167.5,49.5 171.5,49.5 
			175.5,49.5 180.5,55.5 		"/>
		<polygon class="st17" points="187.5,41.5 183.5,36.5 177.5,33.5 169.5,32.5 165.5,33.5 165.5,38.4 171.5,38.5 177.5,39.5 
			182.5,44.5 185.5,47.5 186.5,45.5 		"/>
		<polygon class="st3" points="198.5,55.5 204.5,54.5 208.5,56.5 211.5,59.5 208.5,59.5 204.5,57.5 200.5,57.5 		"/>
		<polygon class="st17" points="198.5,47.5 203.5,47.5 207.5,49.5 212.3,51.4 211.5,47.5 204.5,44.5 198.5,44.5 196.5,46.5 		"/>
		<polygon class="st18" points="163.5,56.7 165.6,54.3 167.7,52.4 173.7,52.7 174.6,54.7 175.5,56.8 175.8,59 173.3,60.7 
			168.3,60.4 164.4,59.2 		"/>
		<polygon class="st15" points="168.5,56.5 166.6,59.5 168.5,60.5 173.5,60.5 173.5,58.5 171.5,55.5 169.5,57.5 		"/>
		<polygon class="st3" points="166,71 153,75 158,75 		"/>
		<polygon class="st3" points="200,68 207,73 211,73 211,75 206,75 		"/>
		<polygon class="st3" points="115.5,104.5 114.5,93.5 124.5,86.5 120.5,97.5 122.5,104.5 116.5,110.5 		"/>
		<polygon class="st3" points="233.5,86.5 234.5,95.5 233.5,105.5 237.5,98.5 		"/>
		<polygon class="st3" points="149.5,18.5 134.5,27.5 131.5,35.5 134.5,46.5 134.5,34.5 139.5,27.5 142.5,34.5 		"/>
		<polygon class="st3" points="198.5,133.5 196.5,138.5 200.5,142.5 198.5,137.5 		"/>
		<polygon class="st3" points="100.5,55.5 98.5,64.5 100.5,67.5 		"/>
	</g>
</g>
<g id="Layer_7">
	<polygon class="st19" points="415.5,201.5 420.3,215.9 415.5,231.5 415.5,241.5 412.5,256.5 403,262 396,262 385.5,203.5 	"/>
	<g id="Layer_6">
		<polygon class="st20" points="415.5,147.5 415.5,141.5 401,140 399,145 410.5,149.5 		"/>
		<polygon class="st21" points="420.2,139.8 423.5,144.5 427.5,146.5 436.5,145.5 440.5,143.5 443.5,137.5 440.5,131.5 438.5,127.5 
			435.5,126.5 434.5,117.5 435.5,110.5 433.5,106.5 426.5,106.5 423.5,104.5 420.5,102.5 418.5,99.5 408.5,99.5 419.5,110.5 		"/>
		<polygon class="st22" points="421.5,138.5 415.5,144.5 401.5,144.5 399.5,140.5 395.5,135.5 391.5,130.5 391.5,127.5 393.5,122.5 
			396.5,116.5 396.5,112.5 402.5,110.5 405.5,112.5 415.5,112.5 417.5,121.5 417.5,128.5 419.5,131.5 422.5,127.5 425.5,127.5 
			428.5,129.5 428.5,135.5 426.5,138.5 423.5,139.5 		"/>
		<polygon class="st23" points="425.5,127.5 422.5,127.5 419.5,131.5 417.5,128.5 417.5,121.5 416.5,123.5 415.5,118.5 413.5,120.5 
			413.5,115.5 410.5,117.5 409.5,114.5 406.5,117.5 405.5,114.5 403.5,116.5 401.5,113.5 399.5,116.5 397.5,118.5 395.5,121.5 
			392.4,125.3 392.5,120.5 393.5,116.5 393.5,112.5 396.5,108.5 401.5,103.5 404.5,100.5 408.5,99.5 414.5,101.5 417.5,104.5 
			422.5,109.5 422.5,114.5 426.5,120.5 		"/>
		<polygon class="st24" points="422.5,131.5 425.5,131.5 424.5,135.5 422.5,133.5 423.5,136.5 426.5,134.5 426.5,130.5 		"/>
		<polygon class="st25" points="408.5,127.5 410.5,126.5 413.5,126.5 415.5,129.5 412.5,127.5 		"/>
		<polygon class="st25" points="403,126 401,124 398,125 401,125 		"/>
		<polygon class="st14" points="400,129 399,128 399,125 401,125 402.1,125.5 402,129 		"/>
		<polygon class="st14" points="409.5,127.5 409,130 411,132 413,131 414,130 413.2,128 412,127 		"/>
		<polygon class="st26" points="407,136 405,134 401,133 401,131 400,132 400,134 404,135 		"/>
		<polygon class="st25" points="401,137 405,138 409,138 411,137 412,138 410,138 408,139 404,138 		"/>
		<polygon class="st26" points="399,134 398,135 398,136 399,135 		"/>
		<polygon class="st18" points="410.4,127.3 411.5,128.5 411.6,131.7 410.5,131.5 409.5,130.5 409.2,128.9 409.8,127.4 		"/>
		<polygon class="st18" points="400.6,125 401.5,127.5 401.7,129 400.3,129 399.2,128.2 399,126.5 399.2,125 		"/>
		<polygon class="st15" points="399,126 399,128 400,129 401,128 400,126 		"/>
		<polygon class="st15" points="409,129 409,130 410,131 411,130 410,128 		"/>
	</g>
	<g id="Layer_5">
		<polygon class="st27" points="334.3,198.5 333.5,209.5 340.5,210.5 340.5,196.5 		"/>
		<polygon class="st28" points="326,209 334,208 340,209 345,211 344,215 339,218 333,218 329.5,216.5 326,213 		"/>
		<polygon class="st29" points="344.5,183.5 348.5,189.5 348.5,196.5 353.5,199.5 357.5,195.5 363.5,196.5 370.5,189.5 383.5,173.5 
			394.5,159.5 389.5,150.5 376.5,156.5 367.5,167.5 363.5,172.5 359.5,173.5 359.5,177.5 348.5,179.5 		"/>
		<polygon class="st29" points="425.5,156.5 433.5,174.5 434.5,181.5 437.5,187.5 437.5,192.5 431.5,199.5 427.5,207.5 423.5,212.5 
			423.5,206.5 417.5,202.5 413.5,203.5 408.5,206.5 408.5,199.5 412.5,193.5 418.5,185.5 415.5,182.5 414.5,176.5 418.5,162.5 		"/>
		<polygon class="st21" points="415.5,147.5 409.5,150.5 404.5,152.5 400.5,156.5 371,190 369,208 383,210 405,210 410,206 409,199 
			417.5,175.5 420.5,166.5 422.5,161.5 427.7,161.5 425.5,156.5 421.5,150.5 		"/>
		<polygon class="st29" points="397.5,141.5 386.5,141.5 392.5,150.5 		"/>
		<polygon class="st30" points="397.5,141.5 400.5,144.5 405.5,146.5 411.5,146.5 402.5,160.5 391.5,152.5 		"/>
		<polygon class="st29" points="418.5,146.5 415.5,146.5 411.5,146.5 406.5,147.5 400.5,148.5 400.5,156.5 404.5,151.5 409.5,150.5 
			415.5,147.5 417.4,148.5 		"/>
		<polygon class="st31" points="374.5,206.5 368.5,196.5 370.5,178.5 376.5,165.5 381.1,154.4 389.5,150.5 399.5,153.5 405.7,155.5 
			410.5,166.5 414.5,176.5 415.5,182.5 418.5,185.5 408.5,199.5 405.5,206.5 394.5,212.5 376.5,212.5 		"/>
		<polygon class="st32" points="384.5,189.5 380.5,181.5 377.5,170.5 376.5,165.5 381.5,154.5 389.5,150.5 405.5,155.5 404.5,165.5 
			399.5,176.5 392.5,184.5 388.5,189.5 389.5,196.5 388.5,198.5 386.5,196.5 386.5,191.5 		"/>
		<polygon class="st31" points="407.5,159.7 412.5,157.5 421.5,157.5 426.4,158.6 425.5,156.5 423.6,153.6 415.5,153.5 410.5,154.5 
			405.5,155.5 		"/>
		<polygon class="st22" points="344.5,183.5 336.5,183.5 333.5,186.5 332.5,191.5 331.5,198.5 332.5,200.5 334.5,201.5 338.5,200.5 
			342.5,197.5 339.5,202.5 341.5,203.5 348.5,196.5 348.5,189.5 		"/>
		<polygon class="st22" points="408.5,206.5 404.5,212.5 405.5,214.5 409.5,212.5 411.5,216.5 415.5,215.5 417.5,217.5 423.5,212.5 
			423.5,206.5 417.5,202.5 413.5,203.5 		"/>
		<polygon class="st33" points="349.5,192.5 351.5,190.5 354.5,191.5 353.5,193.5 351.5,192.5 350.5,193.5 		"/>
		<polygon class="st24" points="427.5,183.5 421.5,182.5 418.5,185.5 422.5,184.5 		"/>
		<polygon class="st24" points="363.5,196.5 363.5,187.5 362.5,181.5 363.5,177.5 365.5,182.5 366.5,188.5 368.5,192 		"/>
		<polygon class="st24" points="339,194 335,197 333.3,200.9 332,200 334,197 		"/>
		<polygon class="st24" points="332.1,194.5 337,191 334,194 331.8,196.5 		"/>
		<polygon class="st24" points="410.6,214.7 411,211 413,209 411,210 410,213 		"/>
		<polygon class="st24" points="414,215.9 415,213 417,210 417,213 		"/>
	</g>
	<polygon class="st34" points="393,126 396,127 397,130 397,132 395,132 392,131 392,128 	"/>
	<polygon class="st34" points="416,133 414,134 414,136 416,138 419,137 419,135 	"/>
</g>
<g id="Layer_8">
	<polygon class="st35" points="409.5,231.5 395,238.5 394.7,238.6 383.5,244 383.4,244 345.1,262.3 345.1,262.3 269,261.8 
		269,261.8 262.2,261.7 233.9,261.5 207.4,261.3 164.5,252.5 154.8,239.1 154.8,239 151.5,234.5 154,233.1 155.1,232.5 164.2,227.4 
		164.2,227.4 165.7,226.5 167.5,225.5 179.5,222.5 196.6,214 196.6,213.9 197.5,213.5 203.6,212.7 203.6,212.7 203.7,212.7 
		203.8,212.7 203.8,212.7 212.5,211.5 218,210.1 218.1,210.1 219,209.9 228.5,207.5 246.5,207.5 264.5,201.5 276.5,201.5 
		283.5,203.5 284.4,203.5 321.5,201.5 350.5,201.5 358.5,202.5 369.2,206.4 369.5,206.5 374.2,205.9 385.5,204.5 396.5,207.5 
		404.5,211.5 404.7,212.2 405,213.5 	"/>
	<polygon class="st36" points="238.5,241.5 244.5,235.5 258.5,231.5 271.5,230.5 287.5,231.5 291.8,233.5 302.5,238.5 295.5,251.5 
		282.5,254.5 253.5,253.5 	"/>
	<polygon class="st37" points="284.5,242.5 289.5,236.5 291.5,233.5 302.5,238.5 295.5,252.5 274.3,252.5 280.5,246.5 	"/>
	<polygon class="st38" points="306,242 303.1,247.5 300.5,252.5 285.4,256.9 285.4,256.9 269,261.8 269,261.8 262.2,261.7 
		238.5,257.5 225.5,244.5 206.5,239.5 160.4,239.1 160.3,239.1 154.8,239.1 153,239 148,239 141.5,237.5 140.5,232.5 149.5,226.5 
		204.5,226.5 211.2,228.4 211.2,228.4 218.5,230.5 238.4,238.1 239.5,238.5 240,238.8 240.7,239.3 240.9,239.5 246.5,243.5 
		253.3,248.2 253.5,248.3 259.5,252.5 289.5,252.5 293.7,247.7 301.1,239.1 301.8,238.2 301.8,238.2 302,238 	"/>
	<polygon class="st39" points="251.5,250.5 248.5,255.5 232.2,251.2 225.5,244.5 206.5,239.5 148,239 141.5,237.5 140.5,232.5 
		163.5,233.5 196.5,231.5 218.5,231.5 239.5,238.5 	"/>
	<polygon class="st40" points="415.5,219.5 412.5,240.5 404,261 403,262 345.1,262.3 345.1,262.3 269,261.8 269,261.8 262.2,261.7 
		233.9,261.5 207.4,261.3 162.5,261 153.5,244.5 153,239 153,239 160,239 160.3,239.1 160.4,239.1 185.5,246.5 210.5,248.5 
		223.8,247.7 227.5,247.5 228.6,247.6 234,247.9 234.2,247.9 236.5,248.1 243.5,248.5 247.2,248.4 249.4,248.4 253.5,248.3 
		257.9,248.3 258,248.3 268.5,248.1 279,247.9 279,247.9 283.5,247.8 293.7,247.7 297.6,247.6 297.6,247.6 297.9,247.6 303.1,247.5 
		305.5,247.5 347.5,243.5 362.5,235.5 382.5,235.5 390.5,230.5 402.5,225.5 405.5,218.5 404.7,212.9 404.6,212.3 404.5,211.5 
		405,211.8 407.3,213.6 	"/>
	<polygon class="st41" points="408.5,225.5 400.5,235.5 385.5,243.5 354.5,250.5 328.5,255.5 296.5,257.5 256.5,255.5 223.8,247.7 
		234,247.9 258,248.3 283.5,247.9 305.5,247.5 347.5,243.5 362.5,235.5 382.5,235.5 390.5,230.5 402.5,225.5 405.5,218.5 
		404.5,211.5 415.5,219.5 	"/>
	<polygon class="st38" points="244,234 239,240 241.5,239.4 245,236 259,232 272,231 288,233 301.1,239.1 302.5,238.5 301,237 
		288,231 272,230 259,231 	"/>
</g>
</svg>
