<?xml version="1.0" encoding="utf-8"?>
<!-- Generator: Adobe Illustrator 21.1.0, SVG Export Plug-In . SVG Version: 6.00 Build 0)  -->
<svg version="1.1" xmlns="http://www.w3.org/2000/svg" xmlns:xlink="http://www.w3.org/1999/xlink" x="0px" y="0px"
	 viewBox="0 0 436 260.5" style="enable-background:new 0 0 436 260.5;" xml:space="preserve">
<style type="text/css">
	.st0{fill:#7A4C5E;}
	.st1{fill:#775052;}
	.st2{fill:#F4ACA7;}
	.st3{opacity:0.2;fill:#393248;}
	.st4{fill:#64323D;}
	.st5{fill:#AB6767;}
	.st6{fill:#E4C2B1;}
	.st7{fill:#8D4548;}
	.st8{fill:#819CAF;}
	.st9{fill:#DDEDFF;}
	.st10{opacity:0.6;fill:#E5C1B7;}
	.st11{opacity:0.4;fill:#393248;}
	.st12{fill:#E1D7D1;}
	.st13{fill:#CC806E;}
	.st14{fill:#FFF9F7;}
	.st15{fill:#393248;}
	.st16{fill:#FFE1EE;}
	.st17{fill:#BCA27E;}
	.st18{fill:#8EB2CC;}
	.st19{fill:#4D2B40;}
	.st20{fill:#C4B4B1;}
	.st21{fill:#C33C56;}
	.st22{fill:#F4DCD6;}
	.st23{fill:#F7F0E4;}
	.st24{opacity:0.3;fill:#2F3636;}
	.st25{opacity:0.8;fill:#2F3636;}
	.st26{opacity:0.5;fill:#2F3636;}
	.st27{fill:#E9EFE8;}
	.st28{fill:#84858B;}
	.st29{fill:#B2676A;}
	.st30{fill:#9B4B50;}
	.st31{fill:#2F3636;}
	.st32{opacity:0.2;fill:#C33C56;}
	.st33{fill:#ACAFBC;}
	.st34{fill:#704C47;}
	.st35{opacity:0.6;fill:#99716D;}
	.st36{fill:#99655C;}
	.st37{opacity:0.4;fill:#704C47;}
	.st38{fill:#898698;}
	.st39{opacity:0.3;fill:#D4D5D9;}
	.st40{fill:#916763;}
	.st41{fill:#AD837F;}
</style>
<g id="troll">
	<g id="body">
		<polygon class="st0" points="233,195 233,228 230.9,238.6 230.9,238.6 229,248.5 229,248.6 228.5,251.1 228.2,252.6 227.8,254.8 
			226.7,260.5 22,260.5 22,257.2 22.3,255.8 26.1,237.2 27.6,229.8 28,229 28,200 25,195 25.7,192.7 25.7,192.7 30,179 50,147 
			56.3,141.5 56.5,141.3 67,132.3 69.5,130 73,127 103.8,124.1 105.5,124 105.5,124 112.7,123.3 131.1,121.6 148,120 191,125 
			204.8,138 210,143 215.8,149.5 215.8,149.5 225.5,160.5 226,161 		"/>
		<polygon class="st1" points="233,228 230.9,238.6 230.9,238.6 229,248.5 229,248.6 228.5,251.1 228.2,252.6 227.8,254.8 
			226.7,260.5 22,260.5 22,257.2 22.3,255.8 26.1,237.2 27.6,229.8 28,228 28,207.7 76,226 141.2,227.5 156.7,227.9 156.7,227.9 
			163,228 168.6,227 230,216 232.4,225.6 		"/>
		<polygon class="st2" points="58,147 55.5,137.5 45,133 36,133 22,130 15.5,125.5 5,137 8,149 8,157 5,166 3,173 5,177 5,188 
			9,192 14,192 20,195 30,191 37,192 44,189 48,184 58,184 68,175 70,161 64,155 59,158 		"/>
		<polygon class="st3" points="35,156 29,167 22,175 16,186 9,192 14,192 17,188 21,179 23,176 30,168 		"/>
		<polygon class="st3" points="48,156 46,165 43,173 35,181 30,191 36,192 36,183 43,175 45,173 47,167 		"/>
		<polygon class="st3" points="60,167 56,175 50,184 53.7,184 57,176 		"/>
		<polygon class="st3" points="15,163 11,170 5,177 5,179.4 12,172 		"/>
		<polygon class="st0" points="112,68 68,71 50,75 36,75 30,80 19,80 11,89 3,99 0,111 1,123 5,137 15,127 22,130 36,133 47.2,134 
			55,137 58,147 63,142 70,136 91,136 132,134 129,93 		"/>
		<polygon class="st0" points="238,125 251,154 251,163 256,167 256,176 267,179 281,188 285,190 279,195 277,202 276,216 234,216 
			222,204 222,192 219,184 219,165 217,154 213,139 		"/>
		<polygon class="st4" points="13.2,237.2 10.1,246.5 9,251.2 15.4,255.8 31.3,255.8 36.6,250 43,244.2 48.3,236 61,231.3 61,225.5 
			48.3,227.8 36.6,233.7 29.2,237.2 		"/>
		<polygon class="st5" points="69.5,250 69.5,260.5 12.1,260.5 12.1,253.4 15.4,255.8 31.3,255.8 43,244.2 48.3,236 61,231.3 
			63.1,240.7 		"/>
		<polygon class="st6" points="115,129 115,152 114,166 112,192 112,206 112,216 132,216 132,203 132,192 134,170 134,152 134,129 
					"/>
		<polygon class="st6" points="211.5,210.5 211,195 211,174 208,156 203.5,138.5 222,132 226,154 224,183 226,195 230,216 211,216 
					"/>
		<polygon class="st7" points="25,195 80,214 111,216 143,216 186,215 214,210 226,208 233,216 233,225.5 169,233 129,233 86,233 
			69,231 50,224 28,216 28,200 		"/>
		<polygon class="st2" points="315,189 309,184 304,184 295,189 285,190 279,195 277,202 276.6,207.7 337,205 335,197 321,197 
			307,197 299,198 310,195 314,192 		"/>
		<polygon class="st8" points="70,161 88,161 104,163 121,169 140,179 153,190 159,198 134,190 107,184 77,175 68,175 		"/>
		<polygon class="st9" points="83.9,177.1 104,179 119,183 139,188 159,198 134,190 107,184 		"/>
		<polygon class="st10" points="279,195 285,196 292,192 302,188 315,189 309,184 304,184 295,189 285,190 		"/>
		<polygon class="st3" points="44,102 30,93 8.5,92.1 3,99 30,97 		"/>
		<polygon class="st3" points="39,75 54,84 58,99 49,84 		"/>
		<polygon class="st3" points="0,123 18,113 2.1,127 		"/>
		<polygon class="st3" points="256,172.5 249,176 239,184 249,180 256,176 		"/>
		<polygon class="st11" points="54.5,137.5 54.5,132.5 59.5,127.5 71.5,130.5 79.5,131.5 71.5,133.5 60.5,130.5 57.5,132.5 		"/>
	</g>
	<g id="head">
		<path class="st12" d="M54,74l-6-5l-5,7V59h11l11-4l9-2l5-9l3-10l8-8l6-6c0,0,8-9,12-9s13,0,13,0l11-5l9-6h12l12,3l10-3l17,11l9,2
			l12,7l8,11l8,4v10l9,11l2,11l13,5l5,7v12l-5,7l-8-8l-4,12l9,9h-8l7,11l9,12l5,3l-5,10l-7,7l-4,7l-7-14l-13,8l-9-10l-8,16l-9-14
			l-5,6l-6-7l-16,15l-1-8l-8,3l5-10l-10-5l-7,8l-9-16l-9,9l11,14l-12,2l-5,9l-9-23l-2-7l-10,3l-2,8l-5-4l-8,4l8-13l13-13l-6-3l-4,8
			l-1-13l-3-14l-5,6l-1-9l-5,2l9-23l-9,3l-9-6L54,74z"/>
		<polygon class="st2" points="184,28 164,28 158,34 158,42 148,45 145,53 140,58 140,77 150,81 153,95 162,106 171,106 173,113 
			187,101 197,97 208,83 204,70 206,61 204,46 195,39 		"/>
		<polygon class="st13" points="163,68 160,75 166,83 176,89 184,91 192,91 196,83 193,75 189,68 189,62 186,57 188,47 182,42 
			178,54 172,60 		"/>
		<polygon class="st14" points="170,55 165,50 160,50 155,55 157,60 161,61 166,61 170,58 		"/>
		<polygon class="st15" points="191,62 195,62 197,64 200,65 202,66 203,68 201,68 199,66 197,66 195,64 192,64 		"/>
		<polygon class="st15" points="155,87 162,90 166,91 170,91 173,94 177,95 181,96 185,98 189,97 187,99 183,99 180,97 176,96 
			172,95 169,95 165,94 163,93 161,91 		"/>
		<polygon class="st16" points="169,92 169,94 163,93 163,90.2 166,91 169,91 		"/>
		<polygon class="st10" points="174,52 172,48 167,45 160,46 155,48 155,50 160,50 164,50 168,50 173,56 		"/>
		<polygon class="st17" points="180,42 176,37 170,34 162,33 158,34 158,38.9 164,39 170,40 175,45 178,48 179,46 		"/>
		<polygon class="st3" points="191,56 197,55 201,57 204,60 201,60 197,58 193,58 		"/>
		<polygon class="st17" points="191,48 196,48 200,50 204.8,51.9 204,48 197,45 191,45 189,47 		"/>
		<polygon class="st18" points="156,57.2 158.1,54.8 160.2,52.9 166.2,53.2 167.1,55.2 168,57.3 168.3,59.5 165.8,61.2 160.8,60.9 
			156.9,59.7 		"/>
		<polygon class="st15" points="161,57 159.1,60 161,61 166,61 166,59 164,56 162,58 		"/>
		<polygon class="st3" points="158.5,71.5 145.5,75.5 150.5,75.5 		"/>
		<polygon class="st3" points="192.5,68.5 199.5,73.5 203.5,73.5 203.5,75.5 198.5,75.5 		"/>
		<polygon class="st3" points="108,105 107,94 117,87 113,98 115,105 109,111 		"/>
		<polygon class="st3" points="226,87 227,96 226,106 230,99 		"/>
		<polygon class="st3" points="142,19 127,28 124,36 127,47 127,35 132,28 135,35 		"/>
		<polygon class="st3" points="191,134 189,139 193,143 191,138 		"/>
		<polygon class="st3" points="93,56 91,65 93,68 		"/>
	</g>
</g>
<g id="Layer_7">
	<polygon class="st19" points="412.8,216.4 408,232 408,242 405,257 399,260.5 388.1,260.5 384.5,240.5 384.5,240.4 382.9,231.1 
		379.6,213 379.2,210.5 378.2,205 378,204 399.9,202.5 401,202.5 401.9,202.4 408,202 408.5,203.4 412.6,215.8 	"/>
	<g id="Layer_6">
		<polygon class="st20" points="408,148 408,142 393.5,140.5 391.5,145.5 403,150 		"/>
		<polygon class="st21" points="412.7,140.3 416,145 420,147 429,146 433,144 436,138 433,132 431,128 428,127 427,118 428,111 
			426,107 419,107 416,105 413,103 411,100 401,100 412,111 		"/>
		<polygon class="st22" points="414,139 408,145 394,145 392,141 388,136 384,131 384,128 386,123 389,117 389,113 395,111 398,113 
			408,113 410,122 410,129 412,132 415,128 418,128 421,130 421,136 419,139 416,140 		"/>
		<polygon class="st23" points="418,128 415,128 412,132 410,129 410,122 409,124 408,119 406,121 406,116 403,118 402,115 399,118 
			398,115 396,117 394,114 392,117 390,119 388,122 384.9,125.8 385,121 386,117 386,113 389,109 394,104 397,101 401,100 407,102 
			410,105 415,110 415,115 419,121 		"/>
		<polygon class="st24" points="415,132 418,132 417,136 415,134 416,137 419,135 419,131 		"/>
		<polygon class="st25" points="401,128 403,127 406,127 408,130 405,128 		"/>
		<polygon class="st25" points="395.5,126.5 393.5,124.5 390.5,125.5 393.5,125.5 		"/>
		<polygon class="st14" points="392.5,129.5 391.5,128.5 391.5,125.5 393.5,125.5 394.6,126 394.5,129.5 		"/>
		<polygon class="st14" points="402,128 401.5,130.5 403.5,132.5 405.5,131.5 406.5,130.5 405.8,128.5 404.5,127.5 		"/>
		<polygon class="st26" points="399.5,136.5 397.5,134.5 393.5,133.5 393.5,131.5 392.5,132.5 392.5,134.5 396.5,135.5 		"/>
		<polygon class="st25" points="393.5,137.5 397.5,138.5 401.5,138.5 403.5,137.5 404.5,138.5 402.5,138.5 400.5,139.5 396.5,138.5 
					"/>
		<polygon class="st26" points="391.5,134.5 390.5,135.5 390.5,136.5 391.5,135.5 		"/>
		<polygon class="st18" points="402.9,127.8 404,129 404.1,132.2 403,132 402,131 401.7,129.4 402.3,127.9 		"/>
		<polygon class="st18" points="393.1,125.5 394,128 394.2,129.5 392.8,129.5 391.7,128.7 391.5,127 391.7,125.5 		"/>
		<polygon class="st15" points="391.5,126.5 391.5,128.5 392.5,129.5 393.5,128.5 392.5,126.5 		"/>
		<polygon class="st15" points="401.5,129.5 401.5,130.5 402.5,131.5 403.5,130.5 402.5,128.5 		"/>
	</g>
	<g id="Layer_5">
		<polygon class="st27" points="337,184 341,190 341,197 346,200 350,196 356,197 363,190 376,174 387,160 382,151 369,157 360,168 
			356,173 352,174 352,178 341,180 		"/>
		<polygon class="st27" points="418,157 426,175 427,182 430,188 430,193 424,200 420,208 416,213 416,207 410,203 406,204 401,207 
			401,200 405,194 411,186 408,183 407,177 411,163 		"/>
		<polygon class="st21" points="408,148 402,151 397,153 393,157 363.5,190.5 361.5,208.5 375.5,210.5 397.5,210.5 402.5,206.5 
			401.5,199.5 410,176 413,167 415,162 420.2,162 418,157 414,151 		"/>
		<polygon class="st27" points="390,142 379,142 385,151 		"/>
		<polygon class="st28" points="390,142 393,145 398,147 404,147 395,161 384,153 		"/>
		<polygon class="st27" points="411,147 408,147 404,147 399,148 393,149 393,157 397,152 402,151 408,148 409.9,149 		"/>
		<polygon class="st29" points="367,207 361,197 363,179 369,166 373.6,154.9 382,151 392,154 398.2,156 403,167 407,177 408,183 
			411,186 401,200 398,207 387,213 369,213 		"/>
		<polygon class="st30" points="377,190 373,182 370,171 369,166 374,155 382,151 398,156 397,166 392,177 385,185 381,190 382,197 
			381,199 379,197 379,192 		"/>
		<polygon class="st29" points="400,160.2 405,158 414,158 418.9,159.1 418,157 416.1,154.1 408,154 403,155 398,156 		"/>
		<polygon class="st22" points="341,190 341,197 334,204 333,203.5 333,201.3 335,198 331,201 327,202 325,201 324,199 325,192 
			326,187 329,184 337,184 		"/>
		<polygon class="st22" points="333,201.3 333,203.5 332,203 		"/>
		<polygon class="st22" points="401,207 397,213 398,215 402,213 404,217 408,216 410,218 416,213 416,207 410,203 406,204 		"/>
		<polygon class="st31" points="342,193 344,191 347,192 346,194 344,193 343,194 		"/>
		<polygon class="st24" points="420,184 414,183 411,186 415,185 		"/>
		<polygon class="st24" points="356,197 356,188 355,182 356,178 358,183 359,189 361,192.5 		"/>
		<polygon class="st24" points="331.5,194.5 327.5,197.5 325.8,201.4 324.5,200.5 326.5,197.5 		"/>
		<polygon class="st24" points="324.6,195 329.5,191.5 326.5,194.5 324.3,197 		"/>
		<polygon class="st24" points="403.1,215.2 403.5,211.5 405.5,209.5 403.5,210.5 402.5,213.5 		"/>
		<polygon class="st24" points="406.5,216.4 407.5,213.5 409.5,210.5 409.5,213.5 		"/>
	</g>
	<polygon class="st32" points="385.5,126.5 388.5,127.5 389.5,130.5 389.5,132.5 387.5,132.5 384.5,131.5 384.5,128.5 	"/>
	<polygon class="st32" points="408.5,133.5 406.5,134.5 406.5,136.5 408.5,138.5 411.5,137.5 411.5,135.5 	"/>
</g>
<g id="Layer_8">
	<polygon class="st33" points="402,232 387.5,239 387.1,239.2 384.5,240.4 376,244.5 375.9,244.5 342.4,260.5 193.3,260.5 157,253 
		147.3,239.6 147.2,239.5 144,235 146.5,233.6 147.6,233 156.7,227.9 156.7,227.9 158.2,227 160,226 172,223 189.1,214.5 
		189.1,214.4 190,214 196.1,213.2 196.1,213.2 196.2,213.2 196.3,213.2 196.3,213.2 205,212 210.5,210.6 210.6,210.6 211.5,210.4 
		221,208 239,208 257,202 269,202 276,204 276.9,204 314,202 343,202 351,203 361.7,206.9 362,207 366.7,206.4 378,205 378.2,205 
		389,208 397,212 397.2,212.7 397.5,214 	"/>
	<polygon class="st34" points="231,242 237,236 251,232 264,231 280,232 284.3,234 295,239 288,252 275,255 246,254 	"/>
	<polygon class="st35" points="277,243 282,237 284,234 295,239 288,253 266.8,253 273,247 	"/>
	<polygon class="st36" points="298.5,242.5 295.6,248 293,253 277.9,257.4 277.8,257.4 267.5,260.5 245,260.5 231,258 218,245 
		199,240 152.9,239.6 152.8,239.6 147.3,239.6 145.5,239.5 140.5,239.5 134,238 133,233 142,227 197,227 203.7,228.9 203.8,228.9 
		211,231 230.9,238.6 232,239 232.5,239.3 233.2,239.8 233.4,240 239,244 245.8,248.7 246,248.8 252,253 282,253 286.2,248.2 
		293.6,239.6 294.3,238.7 294.3,238.7 294.5,238.5 	"/>
	<polygon class="st37" points="244,251 241,256 224.7,251.7 218,245 199,240 140.5,239.5 134,238 133,233 156,234 189,232 211,232 
		232,239 	"/>
	<polygon class="st38" points="408,220 405,241 396.9,260.5 154.4,260.5 146,245 145.5,239.5 145.5,239.5 152.5,239.5 152.8,239.6 
		152.8,239.6 152.9,239.6 178,247 203,249 216.3,248.2 220,248 221.1,248.1 226.5,248.4 226.9,248.4 229,248.6 236,249 239.7,248.9 
		241.9,248.9 246,248.8 250.4,248.8 250.5,248.8 261,248.6 271.5,248.4 271.5,248.4 276,248.3 286.2,248.2 290.1,248.1 290.1,248.1 
		290.4,248.1 295.6,248 298,248 340,244 355,236 375,236 382.9,231.1 383,231 395,226 398,219 397.2,213.4 397.1,212.8 397,212 
		397.5,212.3 399.8,214.1 	"/>
	<polygon class="st39" points="401,226 393,236 378,244 347,251 321,256 289,258 249,256 216.3,248.2 226.5,248.4 250.5,248.8 
		276,248.4 298,248 340,244 355,236 375,236 383,231 395,226 398,219 397,212 408,220 	"/>
	<polygon class="st36" points="236.5,234.5 231.5,240.5 234,239.9 237.5,236.5 251.5,232.5 264.5,231.5 280.5,233.5 293.6,239.6 
		295,239 293.5,237.5 280.5,231.5 264.5,230.5 251.5,231.5 	"/>
	<polygon class="st40" points="333,199.5 333,211 326,210 326.6,201.8 327,202 331,201 	"/>
	<polygon class="st41" points="318.5,209.5 326.5,208.5 332.5,209.5 337.5,211.5 336.5,215.5 331.5,218.5 325.5,218.5 322,217 
		318.5,213.5 	"/>
</g>
</svg>
