<?xml version="1.0" encoding="utf-8"?>
<!-- Generator: Adobe Illustrator 21.1.0, SVG Export Plug-In . SVG Version: 6.00 Build 0)  -->
<svg version="1.1" xmlns="http://www.w3.org/2000/svg" xmlns:xlink="http://www.w3.org/1999/xlink" x="0px" y="0px"
	 viewBox="0 0 607 642" style="enable-background:new 0 0 607 642;" xml:space="preserve">
<style type="text/css">
	.st0{display:none;}
	.st1{fill:#969C70;}
	.st2{fill:#AAAD82;}
	.st3{fill:#D9D1AC;}
	.st4{fill:#727E70;}
	.st5{fill:#90998B;}
	.st6{fill:#BDC096;}
	.st7{fill:#797967;}
	.st8{fill:#B2B090;}
	.st9{fill:#6797A3;}
	.st10{fill:#9BC0C6;}
	.st11{fill:#6C5C51;}
	.st12{fill:#CE895F;}
	.st13{fill:#495747;}
	.st14{fill:#46604C;}
	.st15{opacity:0.4;fill:#A5A467;}
	.st16{opacity:0.4;fill:#B8AD64;}
	.st17{opacity:0.4;fill:#BCBA8C;}
	.st18{opacity:0.4;fill:#CDC08F;}
	.st19{opacity:0.3;fill:#31322A;}
	.st20{opacity:0.3;fill:#3E3E3E;}
	.st21{fill:#535154;}
	.st22{fill:#B5AEAC;}
	.st23{fill:#CCC2BF;}
	.st24{fill:#EADDD8;}
	.st25{opacity:0.2;fill:#474444;}
	.st26{fill:#BAB1AF;}
	.st27{fill:#585759;}
	.st28{opacity:0.4;fill:#585759;}
	.st29{fill:#1C1C1C;}
	.st30{fill:#FFFFFF;}
	.st31{fill:#585450;}
	.st32{fill:#948D80;}
	.st33{opacity:0.4;fill:#514F4C;}
	.st34{opacity:0.4;fill:#4C4A45;}
	.st35{fill:#B2AD95;}
	.st36{fill:#D8A679;}
	.st37{fill:#85151A;}
	.st38{fill:#FFFCCC;}
	.st39{fill:#500F16;}
	.st40{opacity:0.4;fill:#3B0D17;}
	.st41{fill:#45191D;}
	.st42{fill:#242626;}
</style>
<g id="Layer_10" class="st0">
	
		<image style="display:inline;overflow:visible;" width="1440" height="1600" xlink:href="../../../../Desktop/bdb8991e-4f76-45c6-ab50-59c6fab59ff5.jpeg"  transform="matrix(0.5545 0 0 0.5545 656 -69)">
	</image>
</g>
<g id="Layer_1" class="st0">
	
		<image style="display:inline;overflow:visible;" width="641" height="800" xlink:href="../../../../Desktop/De tre bukkene Bruse.jpg"  transform="matrix(1 0 0 1 -18 -59)">
	</image>
</g>
<g id="Layer_3">
	<polygon class="st1" points="311.5,302.5 311.5,291.5 306.5,283.5 302.5,276.5 291.5,271.5 282.5,269.5 274.5,272.5 258.5,273.5 
		277.5,327.5 	"/>
	<polygon class="st2" points="347.5,334.5 343.5,322.5 336.5,315.5 333.5,308.5 324.5,308.5 320.5,301.5 302.5,296.5 293.5,302.5 
		289.5,354.5 	"/>
	<polygon class="st3" points="192.5,232.5 208.5,236.5 217.5,236.5 221.5,241.5 235.5,244.5 238.5,250.5 245.5,254.5 255.5,257.5 
		258.5,262.5 268.5,269.5 272.5,277.5 277.5,285.5 282.5,292.5 278.5,302.5 242.5,315.5 179.5,282.5 166.5,254.5 	"/>
	<polygon class="st4" points="333.5,344.5 321.5,331.5 313.5,325.5 308.5,319.5 302.5,315.5 297.5,305.5 289.5,300.5 280.1,298.5 
		275.5,293.5 269.5,293.5 261.5,296.5 251.5,298.5 243.5,305.5 240.5,362.5 305.5,373.5 	"/>
	<polygon class="st5" points="247.5,352.5 258.5,342.5 261.5,333.5 261.5,327.5 265.5,319.5 260.5,311.5 251.5,305.5 251.5,298.5 
		243.5,296.5 235.5,288.5 226.5,285.5 216.5,282.5 212.5,273.5 201.5,273.5 193.5,267.5 181.5,259.5 145.5,273.5 145.5,315.5 
		201.5,371.5 	"/>
	<polygon class="st6" points="287.5,384.5 271.5,362.5 258.5,356.5 245.5,347.5 235.5,339.5 224.5,336.5 212.5,336.5 202.5,336.5 
		196.5,333.5 191.5,325.5 183.5,320.5 174.5,315.5 159.5,313.5 116.5,343.5 122.5,435.5 240.5,452.5 	"/>
	<polygon class="st7" points="138.5,404.5 157.5,408.5 163.5,416.5 175.5,426.5 185.5,438.5 197.5,452.5 194.5,465.5 188.5,485.5 
		124.5,515.5 85.5,436.5 	"/>
	<polygon class="st8" points="124.5,457.5 138.5,473.5 141.5,481.5 151.5,488.5 156.5,497.5 163.5,510.5 166.5,524.5 168.5,539.5 
		146.5,560.5 124.5,558.5 112.5,548.5 95.5,541.5 82.5,511.5 	"/>
</g>
<g id="Layer_9">
	<polygon class="st9" points="515,305 514.4,332.6 514.4,332.7 508,641.5 94,641.5 94,523 113,520 128.7,511.7 145.5,505.7 157,497 
		170,489 182,479 189,466 195.3,456.9 198,453 197.5,452.5 191.4,445.4 202.4,442.7 205.3,441.9 209,441 223,431 227.3,429.1 
		227.3,429.1 231.5,427.3 240.5,423.4 242.1,422.7 246,421 251.6,416.3 251.6,416.2 251.6,416.2 252.7,415.3 257.1,411.6 258,410.8 
		259,410 261.1,407.8 263,405.7 264.2,404.3 268.3,399.8 270,398 271.2,396.6 275.7,391.3 276,391 277,389 282.5,377.6 278,371.5 
		275.8,368.5 280.4,367.2 280.4,367.2 285,366 309.5,353.8 318.5,349.2 318.6,349.2 319,349 320.5,347.1 331,334 331.7,333.4 
		344,323 362,315 363.1,314.8 416,305 430,313 445,315 	"/>
	<polygon class="st10" points="306,373 290,400 277,418 255,431.5 230,444 212.8,449.7 227.7,451.1 241,447 262,438 259,445 
		273,431 285,421 295,410 298,398 	"/>
	<polygon class="st10" points="119,534 150,522 175,506 158,522 147,529 	"/>
</g>
<g id="Layer_2">
	<polygon class="st11" points="461.5,167.5 422.5,173.5 378.5,177.5 334.5,177.5 286.5,174.5 243.5,169.5 206.5,162.5 158.5,151.5 
		141.5,124.5 157.5,127.5 188.5,136.5 264.5,150.5 327.5,155.5 416.5,150.5 487.5,143.5 	"/>
	<polygon class="st12" points="141.5,110.5 166.5,126.5 209.5,136.5 269.5,145.5 319.5,149.5 374.5,149.5 425.5,143.5 475.5,130.5 
		463.5,154.5 425.5,154.5 373.5,159.5 318.5,159.5 265.5,154.5 200.5,143.5 164.5,135.5 152.6,130.2 135.5,131.5 	"/>
	<polygon class="st13" points="224.5,264.5 214.5,281.5 212.5,298.5 204.5,324.5 197.5,340.5 185.5,355.5 172.5,355.5 168.5,373.5 
		164.5,398.5 165.5,417.5 145.5,440.5 146.5,458.5 150.5,483.5 141.5,503.5 150.5,509.5 140.5,540.5 126.5,562.5 112.5,572.5 
		112.5,586.5 104.5,607.5 101.5,626.5 103.6,642 0.5,642 0.5,59.5 11.5,65.5 22.5,65.5 36.5,72.5 65.5,72.5 78.5,83.5 98.5,90.5 
		126.5,103.5 141.5,110.5 147.5,125.5 163.5,140.5 173.5,153.5 188.5,171.5 197.3,186.5 198.5,188.5 215.5,213.5 220.5,228.5 	"/>
	<polygon class="st14" points="607.5,19.5 607.5,642 446.3,642 448.5,627.5 442.5,605.5 446.5,577.5 443.5,560.5 449.5,540.5 
		447.5,500.5 440.5,484.5 431.5,460.5 419.5,438.5 418.5,412.5 406.5,395.5 404.5,378.5 399.5,363.5 402.1,349.2 404.5,336.5 
		394.5,330.5 394,328 390.5,309.5 387.5,283.5 386.5,253.5 382.5,231.5 385.1,223.6 388.5,213.5 413.5,202.5 427.8,190.1 
		428.5,189.5 428.5,166.5 440,147.4 440.5,146.5 463.5,138.5 475.5,127.5 484.5,117.5 495.5,107.5 513.5,103.5 520.5,94.5 
		533.5,87.5 551.5,75.5 558.5,59.5 570.5,43.5 585.5,31.5 	"/>
	<polygon class="st15" points="197.3,186.5 168.5,186.5 135.5,165.5 112.5,144.5 72.5,130.5 22.5,118.5 37.5,126.5 43.5,140.5 
		57.5,151.5 90.5,163.5 100.5,181.5 76.5,186.5 36.5,186.5 0.5,177.5 0.5,59.5 11.5,65.5 22.5,65.5 36.5,72.5 65.5,72.5 78.5,83.5 
		98.5,90.5 126.5,103.5 141.5,110.5 147.5,125.5 163.5,140.5 173.5,153.5 188.5,171.5 	"/>
	<polygon class="st16" points="434.5,217.5 405.5,215.5 441.5,233.5 397.5,225.5 385.1,223.6 388.5,213.5 413.5,202.5 427.8,190.1 
		445.5,199.5 459.5,212.5 475.5,218.5 487.5,225.5 459.5,222.5 	"/>
	<polygon class="st17" points="475.5,359.5 451.5,364.5 428.5,355.5 411.5,353.5 402.1,349.2 404.5,336.5 394.5,330.5 394,328 
		422.5,341.5 446.5,349.5 	"/>
	<polygon class="st18" points="607.5,19.5 607.5,177.5 593.5,177.5 562.5,169.5 535.5,164.5 511.5,159.5 475.5,164.5 441.5,164.5 
		440,147.4 440.5,146.5 463.5,138.5 475.5,127.5 484.5,117.5 495.5,107.5 513.5,103.5 520.5,94.5 533.5,87.5 551.5,75.5 558.5,59.5 
		570.5,43.5 585.5,31.5 	"/>
	<polygon class="st19" points="61.5,388.5 57.5,432.5 62.5,456.5 74.5,479.5 47.5,472.5 51.5,513.5 58.5,542.5 37.5,574.5 
		48.5,609.5 48.5,642 0.5,642 0.5,266.6 14.5,256.5 32.5,207.5 76.5,271.5 89.5,302.5 85.5,349.5 	"/>
	<polygon class="st20" points="607.5,313.4 607.5,642 485.6,642 487.5,630.5 495.5,547.5 479.5,510.5 475.5,450.5 495.5,450.5 
		505.5,405.5 518.5,430.5 536.5,395.5 540.5,354.5 556.5,311.5 556.5,346.5 584.5,311.5 	"/>
</g>
<g id="claw">
	<polygon class="st21" points="181.5,125.5 181.5,131.5 190.5,139.5 194.5,136.5 192.5,131.5 185.5,122.5 	"/>
	<polygon class="st21" points="199.5,122.5 199.5,131.5 209.5,137.5 211.5,132.5 207.5,125.5 	"/>
	<polygon class="st21" points="278.5,134.5 282.5,139.5 285.5,146.5 281.5,146.5 273.5,144.5 273.5,134.5 	"/>
	<polygon class="st21" points="267.5,141.5 267.5,148.5 274.5,151.5 279.5,148.5 273.5,137.5 	"/>
</g>
<g id="legs">
	<polygon class="st22" points="193.5,114.5 191.5,121.5 195.5,121.5 206.5,126.5 204.5,120.5 195.5,102.5 194.5,69.5 183.5,69.5 
		181.5,84.5 181.5,96.6 186.5,102.5 	"/>
	<polygon class="st23" points="171.5,85.5 167.5,91.5 169.5,97.5 173.5,103.5 175.5,113.5 175.5,124.5 179.5,124.5 184.5,127.5 
		189.5,129.5 191.5,124.5 186.5,117.5 182.5,107.5 181.5,91.5 191.5,75.5 177.5,69.5 	"/>
	<polygon class="st22" points="276.5,97.5 273.5,111.5 276.5,126.5 281.5,135.5 281.5,139.5 269.5,136.5 264.5,123.5 267.5,103.5 	
		"/>
	<polygon class="st23" points="261.5,109.5 261.5,124.5 258.5,134.5 264.5,132.5 264.5,143.5 270.5,141.5 276.5,141.5 269.5,131.5 
		271.5,92.5 	"/>
</g>
<g id="Layer_6">
	<polygon class="st24" points="367.5,67.5 366.5,73.5 364.5,79.5 358.5,84.5 356.5,77.5 356.7,77.1 359.5,71.5 357.5,65.5 
		353.5,61.5 345.5,59.5 340.5,62.5 335.5,66.5 330.5,65.5 334.5,60.5 344.5,54.5 352.5,52.5 362.5,55.5 366.5,59.5 	"/>
	<polygon class="st25" points="361.5,65.5 361.5,73.5 358.5,79.5 356.7,77.1 359.5,71.5 357.5,65.5 353.7,61.7 354.5,58.5 	"/>
	<polygon class="st23" points="343.5,70.5 343.5,80.5 329.5,95.5 325.5,95.5 321.5,93.5 313.5,101.5 316.5,94.5 310.5,95.5 
		302.5,103.5 306.5,95.5 296.5,104.5 297.5,100.5 290.5,106.5 289.5,102.5 278.5,111.5 284.5,102.5 275.5,111.5 276.2,107.2 
		276.2,107.2 276.5,105.5 270.5,113.5 268.5,110.5 261.5,116.5 261.5,113.5 259.5,114.2 258.5,114.5 259.5,109.5 253.5,114.5 
		257.5,108.5 258.5,101.5 253.5,104.5 246.5,110.5 246.5,106.5 240.5,109.5 242.5,102.5 235.5,108.5 237.5,102.5 227.5,110.5 
		232.5,103.5 225.5,109.5 224.5,103.5 221.5,106.5 218.5,101.5 217.5,110.5 213.5,107.5 213.5,100.5 210.5,104.5 208.5,97.5 
		207.5,105.5 205.5,93.5 204.5,100.5 200.5,104.5 202.5,99.5 200.5,94.5 199.5,101.5 197.5,94.5 196.5,101.5 193.5,89.5 188.5,94.5 
		186.5,90.5 182.5,94.5 181.5,88.5 176.5,91.5 175.5,86.5 172.5,91.5 170.5,84.5 168.5,85.5 165.5,78.5 164.5,85.5 163.5,72.5 
		163.5,64.5 159.5,60.5 154.5,53.5 153.5,46.5 150.5,48.5 152.5,43.5 152.5,38.5 153.3,30.2 153.5,28.5 149.5,30.5 145.5,37.5 
		145.5,34.5 140.5,38.5 134.5,40.5 136.5,37.5 130.5,37.5 134.5,34.5 129.5,35.5 124.5,33.5 124.5,29.5 126.5,32.5 132.5,32.5 
		138.5,29.5 144.5,23.5 153.5,19.5 163.5,8.5 171.5,3.5 184.5,0.5 198.5,0.5 208.5,6.5 217.5,6.5 240.5,11.5 257.5,18.5 264.5,23.5 
		280.5,23.5 293.5,30.5 302.5,32.5 311.5,39.5 319.5,51.5 332.5,60.5 	"/>
	<polygon class="st25" points="260.5,73.5 256.5,82.5 257.5,93.5 259.5,103.5 259.5,109.5 253.5,114.5 257.5,108.5 258.5,101.5 
		253.5,104.5 246.5,110.5 246.5,106.5 240.5,109.5 242.5,102.5 235.5,108.5 237.5,102.5 227.5,110.5 232.5,103.5 225.5,109.5 
		224.5,103.5 221.5,106.5 218.5,101.5 217.5,110.5 213.5,107.5 213.5,100.5 210.5,104.5 208.5,97.5 207.5,105.5 205.5,93.5 
		204.5,100.5 200.5,104.5 202.5,99.5 200.5,94.5 199.5,101.5 197.5,94.5 196.5,101.5 193.5,89.5 198.5,86.5 204.5,82.5 208.5,75.5 
		209.5,64.5 210.5,70.5 214.5,66.5 213.5,75.5 215.5,71.5 215.5,78.5 219.5,73.5 219.5,82.5 226.5,75.5 226.5,80.5 234.5,70.5 
		231.5,85.5 236.5,80.5 236.5,86.5 242.5,77.5 242.5,84.5 248.5,76.5 249.5,80.5 255.5,68.5 256.5,71.5 263.5,67.5 	"/>
	<polygon class="st25" points="341.5,78.5 327.2,95.5 325.5,95.5 321.5,93.5 313.5,101.5 316.5,94.5 310.5,95.5 302.5,103.5 
		306.5,95.5 296.5,104.5 297.5,100.5 290.5,106.5 289.5,102.5 278.5,111.5 284.5,102.5 275.5,111.5 276.2,107.2 276.2,107.2 
		279.5,102.5 281.5,98.5 284.5,90.5 287.5,80.5 290.5,82.5 297.5,66.5 299.5,64.5 300.5,68.5 307.5,61.5 305.5,67.5 313.5,58.5 
		314.5,62.5 318.5,62.5 319.5,66.5 324.5,66.5 325.5,69.5 329.5,69.5 332.5,72.5 339.5,71.5 	"/>
	<polygon class="st25" points="162.5,52.5 162.5,63.5 159.5,60.5 154.5,53.5 153.5,46.5 150.5,48.5 152.5,43.5 152.5,38.5 
		153.3,30.2 155.5,26.5 156.5,30.5 156.5,48.5 159.5,45.5 159.5,55.5 	"/>
</g>
<g id="Layer_7">
	<polygon class="st23" points="342.5,72.5 338.5,71.5 333.5,72.5 328.5,75.5 324.5,79.5 318.5,81.5 315.5,83.5 318.5,84.5 
		326.5,85.5 333.5,84.5 337.5,79.5 342.5,75.5 	"/>
	<polygon class="st26" points="328.5,103.5 324.5,107.5 319.5,108.5 315.5,110.5 314.5,114.5 318.5,112.5 315.5,118.5 316.5,122.5 
		318.5,126.5 321.5,126.5 321.5,124.5 324.5,126.5 326.5,126.5 324.5,123.5 323.5,119.5 325.5,116.5 327.5,115.5 327.5,117.5 
		329.5,115.5 332.5,115.5 332.5,101.5 	"/>
	<polygon class="st23" points="342.5,71.5 339.5,73.5 336.5,79.5 334.5,84.5 330.5,85.5 326.5,87.5 324.5,94.5 324.5,98.5 
		328.5,101.5 329.5,105.5 331.5,111.5 331.5,117.5 333.5,121.5 338.5,122.5 341.5,121.5 342.5,118.5 345.5,117.5 345.5,113.5 
		348.5,109.5 352.5,104.5 353.5,98.5 356.5,97.5 359.5,97.5 359.5,93.5 357.5,92.5 359.5,89.5 359.5,86.5 361.5,82.5 361.5,78.5 
		357.5,74.5 353.5,72.5 348.5,71.5 	"/>
	<polygon class="st27" points="356.5,74.5 359.5,77.5 363.5,85.5 359.5,83.5 359.5,87.5 356.5,85.5 356.5,82.5 351.5,85.5 
		352.5,81.5 348.5,82.5 350.5,79.5 348.5,77.5 353.5,75.5 	"/>
	<polygon class="st24" points="357.5,56.5 357.5,65.5 355.5,72.5 354.5,75.5 349.5,76.5 344.5,74.5 345.5,71.5 345.5,55.5 
		342.5,51.5 337.5,48.5 331.5,48.5 325.5,49.5 322.5,52.5 319.5,58.5 318.5,64.5 318.5,71.5 320.5,75.5 323.5,78.5 319.5,80.5 
		316.5,80.5 314.5,73.5 312.5,63.5 314.5,53.5 321.5,43.5 328.5,39.5 338.5,38.5 345.5,40.5 352.5,44.5 355.5,49.5 	"/>
	<polygon class="st25" points="349.5,58.5 349.5,67.5 345.5,71.5 345.5,55.5 342.5,51.5 337.5,48.5 331.5,48.5 325.5,49.5 
		322.5,52.5 319.5,58.5 318.5,64.5 318.5,70.7 315.5,63.5 318.5,53.5 322.5,47.5 329.5,44.5 340.5,45.5 347.5,51.5 	"/>
	<polygon class="st28" points="346.5,97.5 343.5,101.5 342.5,105.5 341.5,109.5 343.5,105.5 344.5,102.5 346.5,99.5 	"/>
	<polygon class="st28" points="340,112 339,109 336,109 335,112 337,111 	"/>
</g>
<g id="Layer_8">
	<polygon class="st28" points="342,87 346,90 346,92 346,94 344,95 345,93 345,91 	"/>
	<polygon class="st29" points="339,117 338,115 336,115 338,117 	"/>
	<polygon class="st29" points="341,118 343.5,118 341,119 	"/>
	<polygon class="st30" points="342,89 343,89 344,90 344,91 344,92 344,93 342,93 342,91 341,90 	"/>
	<polygon class="st29" points="343,91 342,90 341,91 341,93 343,93 	"/>
</g>
<g id="Layer_17">
	<g id="Layer_12">
		<polygon class="st31" points="344.4,641.5 345.5,626.5 345.4,626.5 263.5,625.1 227.5,624.5 227.5,639.5 227.5,641.5 241.5,641.5 
			263.5,641.5 344.4,641.5 		"/>
		<polygon class="st31" points="344.4,641.5 406.2,641.5 437.5,641.5 449.5,641.5 449.5,623.1 449.5,597.5 431.4,602.4 345.5,625.5 
			345.4,626.5 344.4,641.5 		"/>
	</g>
	<g id="Layer_16">
	</g>
	<g id="Layer_11">
		<polygon class="st32" points="344.4,641.5 406.2,641.5 437.5,641.5 449.5,623.1 469.5,592.5 454.5,479.5 422.8,429 405.5,401.5 
			365.7,400.1 363.3,400.1 360.6,400 359.8,399.9 339.4,399.2 339.4,399.2 337.6,399.2 334.4,399.1 334,399.1 324.5,398.7 
			321.7,398.6 311.6,398.3 311.5,398.3 311.4,398.3 304.9,398.1 304.1,398 298.1,397.8 296.6,397.8 291.5,397.6 288.5,397.5 
			288.1,397.7 280.5,401.6 279.6,402 263.9,410 252.8,415.6 251.6,416.2 251.6,416.2 251.6,416.3 241.2,421.5 240.8,421.7 
			231.5,426.5 227.5,428.5 227.3,429.1 227.3,429.1 213.2,471.3 213.2,471.3 195.5,524.5 218.5,611.5 227.5,639.5 241.5,641.5 
			263.5,641.5 344.4,641.5 		"/>
		<polygon class="st33" points="418,516 418,526 431,543 434,560 432,583 423,607 406,628 401.7,641.5 434,641.5 469,548 		"/>
		<polygon class="st32" points="253.5,478.5 246.5,520.5 238,556 239,574 238,613 239,642 177,642 177,630 175,604 178,557 
			177.5,514.5 192.5,462.5 195.3,456.9 197.5,452.5 202.4,442.7 207.7,432 209.5,428.5 231.6,411.2 232.5,410.5 240.9,421.2 
			241.2,421.5 242.1,422.7 258.5,443.5 269.5,457.5 267.3,460.4 260.6,469.2 		"/>
		<polygon class="st32" points="497.5,532.5 497.5,572.5 484.5,615.5 471.9,635.4 468,641.5 406.2,641.5 430.5,605.5 431.4,602.4 
			438.5,578.5 438.5,541.5 422.5,526.5 411.5,510.3 410.9,509.4 410.9,509.4 407.9,504.9 399.5,492.5 368.5,435.5 366.3,407.2 
			366.2,406.9 366.2,406.9 365.7,400.1 362.5,359.5 402.5,373.5 434.5,391.1 453.5,401.5 475.5,441.5 490.5,493.5 491.5,499 
			491.5,499 		"/>
		<polyline class="st34" points="241,529 245.1,548.4 243,563 243,580 243,600 245.1,624.8 245.1,642 239,642 235,607 235,585 
			237,560 237,549 241,529 241,529 245.1,548.4 		"/>
	</g>
	<g id="Layer_13">
		<polygon class="st35" points="302.5,303.5 285.5,298.5 285.5,305.5 268.5,302.5 275.5,307.5 249.5,307.5 251.5,315.5 231.5,320.5 
			241.5,327.5 222.5,342.5 214.5,356.5 223.5,351.5 199.5,400.5 211.5,389.5 204.5,410.5 204.5,421.5 212.5,412.5 202.5,453.5 
			204.5,475.5 212.5,462.5 215.5,498.5 226.5,525.5 231.5,504.5 241.5,529.5 245.5,559.5 260.5,540.5 262.5,552.5 267.5,531.5 
			283.5,585.5 287.5,562.5 291.5,569.5 294.5,554.5 308.5,568.5 320.5,538.5 333.5,554.5 335.5,569.5 342.5,558.5 350.5,537.5 
			363.5,565.5 373.5,531.5 384.5,563.5 389.5,550.5 397.5,526.5 402.5,538.5 398.5,549.5 408.5,540.5 405.5,522.5 408.5,500.5 
			411.5,511.5 413.5,460.5 423.5,475.5 419.5,453.5 430.5,464.5 423.5,434.5 415.5,424.5 428.5,432.5 430.5,439.5 430.5,424.5 
			416.5,407.5 427.5,410.5 415.5,389.5 409.5,379.5 426.5,396.5 434.5,414.5 434.5,389.5 413.5,363.5 397.5,342.5 402.5,345.5 
			387.5,330.5 366.5,318.5 373.5,319.5 353.5,310.5 335.5,306.5 323.5,300.5 320.5,304.5 304.5,296.5 		"/>
		<polygon class="st36" points="356.5,368.5 348.5,345.5 340.5,337.5 340.5,345.5 329.5,330.5 325.5,335.5 314.5,323.5 300.5,328.5 
			289.5,323.5 276.5,328.5 268.5,326.5 253.5,337.5 248.5,352.5 241.5,362.5 241.5,379.5 236.5,391.5 231.5,411.5 231.5,428.5 
			240.5,447.5 255.5,468.5 293.5,473.5 322.5,470.5 351.5,446.5 366.5,428.5 359.5,398.5 366.5,407.5 354.5,379.5 		"/>
	</g>
	<g id="Layer_14">
		<polygon class="st37" points="351.5,412.5 351.5,430.5 346.2,438.9 344.5,441.5 340.5,445.9 340.2,446.2 333.5,453.5 314.5,460.5 
			267.5,460.5 258.5,454.5 250.5,445.5 249.8,444.3 245.5,437.5 238.5,432.5 241.5,418.5 245.1,412.2 249.5,404.5 253.2,401.5 
			255,400 256.9,398.5 263.1,393.5 264.7,392.2 265.5,391.5 271.8,390.1 275,389.4 280.5,388.2 283.1,387.6 283.5,387.5 
			308.5,387.5 308.8,387.5 316.3,389 320.5,389.8 324.5,390.5 326.9,391.9 334.7,396.5 335.1,396.8 337.9,398.4 340.5,399.9 
			341.5,400.5 344.8,404.4 347.1,407.2 350.4,411.2 		"/>
		<polygon class="st38" points="335.5,440.5 340.2,446.2 333.5,453.5 314.5,460.5 267.5,460.5 258.5,454.5 250.5,445.5 249.8,444.3 
			253.5,437.5 258.5,447.5 258.5,438.5 266.5,453.5 266.5,438.5 275.5,451.5 277.5,438.5 282.5,447.5 284.5,438.5 289.5,448.5 
			294.5,438.5 298.5,450.5 304.5,439.5 304.5,451.5 312.5,442.5 312.5,453.5 322.5,442.5 324.5,451.5 330.5,442.5 333.5,449.5 		"/>
		<polygon class="st39" points="335.1,396.8 334.5,398.1 330.5,406.5 320.5,416.5 292.5,421.5 264.5,410.5 256.1,403.8 253.2,401.5 
			255,400 256.9,398.5 263.1,393.5 264.7,392.2 265.5,391.5 271.8,390.1 275,389.4 280.5,388.2 283.1,387.6 283.5,387.5 
			308.5,387.5 308.8,387.5 316.3,389 320.5,389.8 324.5,390.5 326.9,391.9 334.7,396.5 		"/>
		<polygon class="st40" points="264.5,365.5 251.5,378.5 238.5,402.5 253.5,381.5 		"/>
		<polygon class="st40" points="298.5,356.5 311.5,362.5 323.5,371.5 333.5,381.5 320.5,373.5 304.5,369.5 304.5,365.5 		"/>
		<polygon class="st41" points="271.5,369.5 273.5,363.5 277.5,359.5 280.5,367.5 280.5,371.5 275.5,371.5 		"/>
		<polygon class="st41" points="287.5,369.5 287.5,361.5 291.5,359.5 295.5,362.5 296.5,369.5 292.5,371.5 		"/>
		<polygon class="st40" points="302.5,347.5 308.5,344.5 316.5,346.5 320.5,351.5 320.5,344.5 312.5,341.5 306.5,339.5 298.5,342.5 
			296.5,347.5 300.5,351.5 		"/>
		<polygon class="st38" points="319.5,350.5 316.5,353.5 310.5,354.5 306.5,351.5 305.8,349.6 305.4,348.7 304.5,346.5 305,346.2 
			308.5,344.5 316.5,346.5 		"/>
		<polygon class="st38" points="268.5,342.5 268.5,345.5 264.5,351.5 258.5,354.5 254.5,351.5 254.5,345.5 263.5,342.5 		"/>
		<polygon class="st40" points="271.5,343.5 268.5,339.5 258.5,339.5 253.5,345.5 262.5,342.5 		"/>
		<g id="Layer_15">
			<polygon class="st38" points="341.5,400.5 344.8,404.4 340.5,410.5 340.5,399.9 			"/>
			<polygon class="st38" points="346.2,438.9 344.5,441.5 340.5,445.9 340.5,432.5 			"/>
			<polygon class="st38" points="258.5,412.5 249.5,406.5 253.5,417.5 245.1,412.2 249.5,404.5 253.2,401.5 255,400 256.1,403.8 			
				"/>
			<polygon class="st38" points="263.1,393.5 264.5,407.5 256.9,398.5 			"/>
			<polygon class="st38" points="265.5,391.5 271.8,390.1 270.5,404.5 264.7,392.2 			"/>
			<polygon class="st38" points="275,389.4 280.5,388.2 280.5,404.5 			"/>
			<polygon class="st38" points="283.5,387.5 291.5,387.5 291.5,404.5 283.1,387.6 			"/>
			<polygon class="st38" points="293.2,387.5 300.4,387.5 297.5,400.5 			"/>
			<polygon class="st38" points="302.3,387.5 306.7,387.5 304.5,400.5 			"/>
			<polygon class="st38" points="308.8,387.5 316.3,389 311.5,398.5 			"/>
			<polygon class="st38" points="324.5,390.5 326.9,391.9 322.5,404.5 320.5,389.8 			"/>
			<polygon class="st38" points="335.1,396.8 337.9,398.4 333.5,408.5 334.5,398.1 334.7,396.5 			"/>
			<polygon class="st38" points="350.4,411.2 346.5,417.5 347.1,407.2 			"/>
		</g>
		<polygon class="st42" points="316.5,345.6 314.6,349.7 312.6,350.7 309.6,350.8 305.8,349.1 305.6,348.9 305.4,348.2 305,345.7 
			308.4,343.8 		"/>
		<polygon class="st42" points="267.9,343.1 266.5,346.1 262.6,349.2 258.5,347.4 257.4,345.4 263.4,343.2 		"/>
	</g>
</g>
</svg>
