<?xml version="1.0" encoding="utf-8"?>
<!-- Generator: Adobe Illustrator 21.1.0, SVG Export Plug-In . SVG Version: 6.00 Build 0)  -->
<svg version="1.1" xmlns="http://www.w3.org/2000/svg" xmlns:xlink="http://www.w3.org/1999/xlink" x="0px" y="0px"
	 viewBox="0 0 1001 641.5" style="enable-background:new 0 0 1001 641.5;" xml:space="preserve">
<style type="text/css">
	.st0{fill:#969C70;}
	.st1{fill:#AAAD82;}
	.st2{fill:#D9D1AC;}
	.st3{fill:#727E70;}
	.st4{fill:#90998B;}
	.st5{fill:#BDC096;}
	.st6{fill:#797967;}
	.st7{fill:#B2B090;}
	.st8{fill:#6797A3;}
	.st9{fill:#9BC0C6;}
	.st10{fill:#6C5C51;}
	.st11{fill:#CE895F;}
	.st12{fill:#495747;}
	.st13{fill:#46604C;}
	.st14{opacity:0.4;fill:#A5A467;}
	.st15{opacity:0.4;fill:#B8AD64;}
	.st16{opacity:0.4;fill:#BCBA8C;}
	.st17{opacity:0.4;fill:#CDC08F;}
	.st18{opacity:0.3;fill:#31322A;}
	.st19{opacity:0.3;fill:#3E3E3E;}
	.st20{fill:#535154;}
	.st21{fill:#B5AEAC;}
	.st22{fill:#CCC2BF;}
	.st23{fill:#EADDD8;}
	.st24{opacity:0.2;fill:#474444;}
	.st25{fill:#BAB1AF;}
	.st26{fill:#585759;}
	.st27{opacity:0.4;fill:#585759;}
	.st28{fill:#1C1C1C;}
	.st29{fill:#FFFFFF;}
	.st30{fill:#585450;}
	.st31{fill:#948D80;}
	.st32{opacity:0.4;fill:#514F4C;}
	.st33{opacity:0.4;fill:#4C4A45;}
	.st34{fill:#B2AD95;}
	.st35{fill:#D8A679;}
	.st36{fill:#85151A;}
	.st37{fill:#FFFCCC;}
	.st38{fill:#500F16;}
	.st39{opacity:0.4;fill:#3B0D17;}
	.st40{fill:#45191D;}
	.st41{fill:#242626;}
</style>
<g id="Layer_3">
	<polygon class="st0" points="539.5,302 539.5,291 534.5,283 530.5,276 519.5,271 510.5,269 502.5,272 486.5,273 505.5,327 	"/>
	<polygon class="st1" points="575.5,334 571.5,322 564.5,315 561.5,308 552.5,308 548.5,301 530.5,296 521.5,302 517.5,354 	"/>
	<polygon class="st2" points="420.5,232 436.5,236 445.5,236 449.5,241 463.5,244 466.5,250 473.5,254 483.5,257 486.5,262 
		496.5,269 500.5,277 505.5,285 510.5,292 506.5,302 470.5,315 407.5,282 394.5,254 	"/>
	<polygon class="st3" points="561.5,344 549.5,331 541.5,325 536.5,319 530.5,315 525.5,305 517.5,300 508.1,298 503.5,293 
		497.5,293 489.5,296 479.5,298 471.5,305 468.5,362 533.5,373 	"/>
	<polygon class="st4" points="475.5,352 486.5,342 489.5,333 489.5,327 493.5,319 488.5,311 479.5,305 479.5,298 471.5,296 
		463.5,288 454.5,285 444.5,282 440.5,273 429.5,273 421.5,267 409.5,259 373.5,273 373.5,315 429.5,371 	"/>
	<polygon class="st5" points="515.5,384 499.5,362 486.5,356 473.5,347 463.5,339 452.5,336 440.5,336 430.5,336 424.5,333 
		419.5,325 411.5,320 402.5,315 387.5,313 344.5,343 350.5,435 468.5,452 	"/>
	<polygon class="st6" points="366.5,404 385.5,408 391.5,416 403.5,426 413.5,438 425.5,452 422.5,465 416.5,485 352.5,515 
		313.5,436 	"/>
	<polygon class="st7" points="352.5,457 366.5,473 369.5,481 379.5,488 384.5,497 391.5,510 394.5,524 396.5,539 374.5,560 
		352.5,558 340.5,548 323.5,541 310.5,511 	"/>
</g>
<g id="Layer_9">
	<polygon class="st8" points="743,304.5 742.4,332.2 742.4,332.2 736,641.5 322,641.5 322,522.8 341,519.8 356.7,511.5 373.5,505.5 
		385,496.8 398,488.8 410,478.8 417,465.7 423.3,456.6 426,452.7 425.5,452.2 419.4,445.1 430.4,442.4 433.3,441.6 437,440.7 
		451,430.7 455.3,428.8 455.3,428.8 459.5,427 468.5,423.1 470.1,422.4 474,420.7 479.6,415.9 479.6,415.9 479.6,415.9 480.7,415 
		485.1,411.2 486,410.5 487,409.7 489.1,407.4 491,405.3 492.2,404 496.3,399.5 498,397.6 499.2,396.2 503.7,391 504,390.6 
		505,388.6 510.5,377.2 506,371.1 503.8,368.1 508.4,366.8 508.4,366.8 513,365.6 537.5,353.3 546.5,348.8 546.6,348.7 547,348.6 
		548.5,346.7 559,333.5 559.7,333 572,322.5 590,314.5 591.1,314.3 644,304.5 658,312.5 673,314.5 	"/>
	<polygon class="st9" points="534,372.5 518,399.5 505,417.5 483,431 458,443.5 440.8,449.2 455.7,450.6 469,446.5 490,437.5 
		487,444.5 501,430.5 513,420.5 523,409.5 526,397.5 	"/>
	<polygon class="st9" points="347,533.5 378,521.5 403,505.5 386,521.5 375,528.5 	"/>
</g>
<g id="Layer_2">
	<polygon class="st10" points="689.5,167 650.5,173 606.5,177 562.5,177 514.5,174 471.5,169 434.5,162 386.5,151 369.5,124 
		385.5,127 416.5,136 492.5,150 555.5,155 644.5,150 715.5,143 	"/>
	<polygon class="st11" points="369.5,110 394.5,126 437.5,136 497.5,145 547.5,149 602.5,149 653.5,143 703.5,130 691.5,154 
		653.5,154 601.5,159 546.5,159 493.5,154 428.5,143 392.5,135 380.6,129.7 363.5,131 	"/>
	<polygon class="st12" points="452.5,264 442.5,281 440.5,298 432.5,324 425.5,340 413.5,355 400.5,355 396.5,373 392.5,398 
		393.5,417 373.5,440 374.5,458 378.5,483 369.5,503 378.5,509 368.5,540 354.5,562 340.5,572 340.5,586 332.5,607 329.5,626 
		331.6,641.5 0,641.5 5,614.5 12,574.5 17,551.5 27,525.5 33,499.5 33,459.5 36,448.5 43,421.5 60,356.5 65,333.5 73,310.5 
		81,258.5 101,232.5 114,215.5 109,206.5 122,172.5 117,136.5 114,124.5 163,101.5 183,71.5 228.5,59 239.5,65 250.5,65 264.5,72 
		293.5,72 306.5,83 326.5,90 354.5,103 369.5,110 375.5,125 391.5,140 401.5,153 416.5,171 425.3,186 426.5,188 443.5,213 
		448.5,228 	"/>
	<polygon class="st13" points="989,325.5 983,339.5 990,354.5 998,376.5 1001,402.5 997,437.5 988,451.5 988,483.5 991,496.5 
		993,509.5 989,578.5 992,590.5 992,641.5 674.3,641.5 676.5,627 670.5,605 674.5,577 671.5,560 677.5,540 675.5,500 668.5,484 
		659.5,460 647.5,438 646.5,412 634.5,395 632.5,378 627.5,363 630.1,348.8 632.5,336 622.5,330 622,327.5 618.5,309 615.5,283 
		614.5,253 610.5,231 613.1,223.1 616.5,213 641.5,202 655.8,189.6 656.5,189 656.5,166 668,146.9 668.5,146 691.5,138 703.5,127 
		712.5,117 723.5,107 741.5,103 748.5,94 761.5,87 779.5,75 786.5,59 798.5,43 813.5,31 835.5,19 872,26.5 902,44.5 929,53.5 
		945,63.5 969,84.5 978,99.5 990,111.5 999,122.5 1000,154.5 988,169.5 992,179.5 1001,242.5 997.3,263.7 997,265.5 1001,304.5 
		998,315.5 	"/>
	<polygon class="st14" points="425.3,186 396.5,186 363.5,165 340.5,144 300.5,130 250.5,118 265.5,126 271.5,140 285.5,151 
		318.5,163 328.5,181 304.5,186 264.5,186 228.5,177 169,163.5 117,135.5 114,124.5 163,101.5 183,71.5 228.5,59 239.5,65 250.5,65 
		264.5,72 293.5,72 306.5,83 326.5,90 354.5,103 369.5,110 375.5,125 391.5,140 401.5,153 416.5,171 	"/>
	<polygon class="st15" points="662.5,217 633.5,215 669.5,233 625.5,225 613.1,223.1 616.5,213 641.5,202 655.8,189.6 673.5,199 
		687.5,212 703.5,218 715.5,225 687.5,222 	"/>
	<polygon class="st16" points="703.5,359 679.5,364 656.5,355 639.5,353 630.1,348.8 632.5,336 622.5,330 622,327.5 650.5,341 
		674.5,349 	"/>
	<polygon class="st17" points="835.5,19 871,26.5 901,44.5 928,52.5 944,63.5 968,84.5 977,99.5 932,146.5 835.5,177 821.5,177 
		790.5,169 763.5,164 739.5,159 703.5,164 669.5,164 668,146.9 668.5,146 691.5,138 703.5,127 712.5,117 723.5,107 741.5,103 
		748.5,94 761.5,87 779.5,75 786.5,59 798.5,43 813.5,31 	"/>
	<polygon class="st18" points="289.5,388 285.5,432 290.5,456 302.5,479 275.5,472 279.5,513 286.5,542 265.5,574 276.5,609 
		276.5,641.5 0,641.5 5,614.5 12,574.5 17,551.5 27,525.5 33,499.5 33,459.5 36,448.5 43,421.5 60,356.5 65,333.5 73,310.5 
		81,258.5 88,290.5 131,248.5 170,220.5 184.5,196.8 260.5,207 304.5,271 317.5,302 313.5,349 	"/>
	<polygon class="st19" points="998,376.5 1001,402.5 997,437.5 988,451.5 988,483.5 991,496.5 993,509.5 989,578.5 992,590.5 
		992,641.5 713.6,641.5 715.5,630 723.5,547 707.5,510 703.5,450 723.5,450 733.5,405 746.5,430 764.5,395 768.5,354 784.5,311 
		784.5,346 812.5,311 835.5,312.9 851,304.5 869,307.5 903,281.5 945,274.5 971,274.5 997.3,263.7 997,265.5 1001,304.5 998,315.5 
		989,325.5 983,339.5 990,354.5 	"/>
</g>
<g id="claw">
	<polygon class="st20" points="409.5,125 409.5,131 418.5,139 422.5,136 420.5,131 413.5,122 	"/>
	<polygon class="st20" points="427.5,122 427.5,131 437.5,137 439.5,132 435.5,125 	"/>
	<polygon class="st20" points="506.5,134 510.5,139 513.5,146 509.5,146 501.5,144 501.5,134 	"/>
	<polygon class="st20" points="495.5,141 495.5,148 502.5,151 507.5,148 501.5,137 	"/>
</g>
<g id="legs">
	<polygon class="st21" points="421.5,114 419.5,121 423.5,121 434.5,126 432.5,120 423.5,102 422.5,69 411.5,69 409.5,84 
		409.5,96.1 414.5,102 	"/>
	<polygon class="st22" points="399.5,85 395.5,91 397.5,97 401.5,103 403.5,113 403.5,124 407.5,124 412.5,127 417.5,129 419.5,124 
		414.5,117 410.5,107 409.5,91 419.5,75 405.5,69 	"/>
	<polygon class="st21" points="504.5,97 501.5,111 504.5,126 509.5,135 509.5,139 497.5,136 492.5,123 495.5,103 	"/>
	<polygon class="st22" points="489.5,109 489.5,124 486.5,134 492.5,132 492.5,143 498.5,141 504.5,141 497.5,131 499.5,92 	"/>
</g>
<g id="Layer_6">
	<polygon class="st23" points="595.5,67 594.5,73 592.5,79 586.5,84 584.5,77 584.7,76.6 587.5,71 585.5,65 581.5,61 573.5,59 
		568.5,62 563.5,66 558.5,65 562.5,60 572.5,54 580.5,52 590.5,55 594.5,59 	"/>
	<polygon class="st24" points="589.5,65 589.5,73 586.5,79 584.7,76.6 587.5,71 585.5,65 581.7,61.2 582.5,58 	"/>
	<polygon class="st22" points="571.5,70 571.5,80 557.5,95 553.5,95 549.5,93 541.5,101 544.5,94 538.5,95 530.5,103 534.5,95 
		524.5,104 525.5,100 518.5,106 517.5,102 506.5,111 512.5,102 503.5,111 504.2,106.7 504.2,106.7 504.5,105 498.5,113 496.5,110 
		489.5,116 489.5,113 487.5,113.7 486.5,114 487.5,109 481.5,114 485.5,108 486.5,101 481.5,104 474.5,110 474.5,106 468.5,109 
		470.5,102 463.5,108 465.5,102 455.5,110 460.5,103 453.5,109 452.5,103 449.5,106 446.5,101 445.5,110 441.5,107 441.5,100 
		438.5,104 436.5,97 435.5,105 433.5,93 432.5,100 428.5,104 430.5,99 428.5,94 427.5,101 425.5,94 424.5,101 421.5,89 416.5,94 
		414.5,90 410.5,94 409.5,88 404.5,91 403.5,86 400.5,91 398.5,84 396.5,85 393.5,78 392.5,85 391.5,72 391.5,64 387.5,60 382.5,53 
		381.5,46 378.5,48 380.5,43 380.5,38 381.3,29.7 381.5,28 377.5,30 373.5,37 373.5,34 368.5,38 362.5,40 364.5,37 358.5,37 
		362.5,34 357.5,35 352.5,33 352.5,29 354.5,32 360.5,32 366.5,29 372.5,23 381.5,19 391.5,8 399.5,3 412.5,0 426.5,0 436.5,6 
		445.5,6 468.5,11 485.5,18 492.5,23 508.5,23 521.5,30 530.5,32 539.5,39 547.5,51 560.5,60 	"/>
	<polygon class="st24" points="488.5,73 484.5,82 485.5,93 487.5,103 487.5,109 481.5,114 485.5,108 486.5,101 481.5,104 474.5,110 
		474.5,106 468.5,109 470.5,102 463.5,108 465.5,102 455.5,110 460.5,103 453.5,109 452.5,103 449.5,106 446.5,101 445.5,110 
		441.5,107 441.5,100 438.5,104 436.5,97 435.5,105 433.5,93 432.5,100 428.5,104 430.5,99 428.5,94 427.5,101 425.5,94 424.5,101 
		421.5,89 426.5,86 432.5,82 436.5,75 437.5,64 438.5,70 442.5,66 441.5,75 443.5,71 443.5,78 447.5,73 447.5,82 454.5,75 454.5,80 
		462.5,70 459.5,85 464.5,80 464.5,86 470.5,77 470.5,84 476.5,76 477.5,80 483.5,68 484.5,71 491.5,67 	"/>
	<polygon class="st24" points="569.5,78 555.2,95 553.5,95 549.5,93 541.5,101 544.5,94 538.5,95 530.5,103 534.5,95 524.5,104 
		525.5,100 518.5,106 517.5,102 506.5,111 512.5,102 503.5,111 504.2,106.7 504.2,106.7 507.5,102 509.5,98 512.5,90 515.5,80 
		518.5,82 525.5,66 527.5,64 528.5,68 535.5,61 533.5,67 541.5,58 542.5,62 546.5,62 547.5,66 552.5,66 553.5,69 557.5,69 560.5,72 
		567.5,71 	"/>
	<polygon class="st24" points="390.5,52 390.5,63 387.5,60 382.5,53 381.5,46 378.5,48 380.5,43 380.5,38 381.3,29.7 383.5,26 
		384.5,30 384.5,48 387.5,45 387.5,55 	"/>
</g>
<g id="Layer_7">
	<polygon class="st22" points="570.5,72 566.5,71 561.5,72 556.5,75 552.5,79 546.5,81 543.5,83 546.5,84 554.5,85 561.5,84 
		565.5,79 570.5,75 	"/>
	<polygon class="st25" points="556.5,103 552.5,107 547.5,108 543.5,110 542.5,114 546.5,112 543.5,118 544.5,122 546.5,126 
		549.5,126 549.5,124 552.5,126 554.5,126 552.5,123 551.5,119 553.5,116 555.5,115 555.5,117 557.5,115 560.5,115 560.5,101 	"/>
	<polygon class="st22" points="570.5,71 567.5,73 564.5,79 562.5,84 558.5,85 554.5,87 552.5,94 552.5,98 556.5,101 557.5,105 
		559.5,111 559.5,117 561.5,121 566.5,122 569.5,121 570.5,118 573.5,117 573.5,113 576.5,109 580.5,104 581.5,98 584.5,97 
		587.5,97 587.5,93 585.5,92 587.5,89 587.5,86 589.5,82 589.5,78 585.5,74 581.5,72 576.5,71 	"/>
	<polygon class="st26" points="584.5,74 587.5,77 591.5,85 587.5,83 587.5,87 584.5,85 584.5,82 579.5,85 580.5,81 576.5,82 
		578.5,79 576.5,77 581.5,75 	"/>
	<polygon class="st23" points="585.5,56 585.5,65 583.5,72 582.5,75 577.5,76 572.5,74 573.5,71 573.5,55 570.5,51 565.5,48 
		559.5,48 553.5,49 550.5,52 547.5,58 546.5,64 546.5,71 548.5,75 551.5,78 547.5,80 544.5,80 542.5,73 540.5,63 542.5,53 549.5,43 
		556.5,39 566.5,38 573.5,40 580.5,44 583.5,49 	"/>
	<polygon class="st24" points="577.5,58 577.5,67 573.5,71 573.5,55 570.5,51 565.5,48 559.5,48 553.5,49 550.5,52 547.5,58 
		546.5,64 546.5,70.2 543.5,63 546.5,53 550.5,47 557.5,44 568.5,45 575.5,51 	"/>
	<polygon class="st27" points="574.5,97 571.5,101 570.5,105 569.5,109 571.5,105 572.5,102 574.5,99 	"/>
	<polygon class="st27" points="568,111.5 567,108.5 564,108.5 563,111.5 565,110.5 	"/>
</g>
<g id="Layer_8">
	<polygon class="st27" points="570,86.5 574,89.5 574,91.5 574,93.5 572,94.5 573,92.5 573,90.5 	"/>
	<polygon class="st28" points="567,116.5 566,114.5 564,114.5 566,116.5 	"/>
	<polygon class="st28" points="569,117.5 571.5,117.5 569,118.5 	"/>
	<polygon class="st29" points="570,88.5 571,88.5 572,89.5 572,90.5 572,91.5 572,92.5 570,92.5 570,90.5 569,89.5 	"/>
	<polygon class="st28" points="571,90.5 570,89.5 569,90.5 569,92.5 571,92.5 	"/>
</g>
<g id="Layer_17">
	<g id="Layer_12">
		<polygon class="st30" points="572.4,641 573.5,626 573.4,626 491.5,624.6 455.5,624 455.5,639 455.5,641 469.5,641 491.5,641 
			572.4,641 		"/>
		<polygon class="st30" points="572.4,641 634.2,641 665.5,641 677.5,641 677.5,622.6 677.5,597 659.4,601.9 573.5,625 573.4,626 
			572.4,641 		"/>
	</g>
	<g id="Layer_16">
	</g>
	<g id="Layer_11">
		<polygon class="st31" points="572.4,641.5 634.2,641.5 665.5,641.5 677.5,623.1 697.5,592.4 682.5,479.2 650.8,428.5 633.5,401 
			593.7,399.6 591.3,399.6 588.6,399.5 587.8,399.4 567.4,398.7 567.3,398.7 565.6,398.7 562.4,398.6 562,398.6 552.5,398.2 
			549.7,398.1 539.6,397.8 539.5,397.8 539.4,397.8 532.9,397.6 532.1,397.5 526.1,397.3 524.6,397.3 519.5,397.1 516.5,397 
			516.1,397.2 508.5,401.1 507.6,401.5 491.9,409.5 480.8,415.2 479.6,415.8 479.6,415.8 479.6,415.8 469.2,421.1 468.8,421.3 
			459.5,426 455.5,428.1 455.3,428.7 455.3,428.7 441.2,470.9 441.2,471 423.5,524.3 446.5,611.4 455.5,639.5 469.5,641.5 
			491.5,641.5 572.4,641.5 		"/>
		<polygon class="st32" points="645.5,515.5 645.5,525.5 658.6,542.6 661.6,559.7 659.6,582.8 650.5,606.9 633.3,627.9 629,641.5 
			661.6,641.5 697,547.6 		"/>
		<polygon class="st31" points="481.5,478 474.5,520 466,555.5 467,573.5 466,612.5 467,641.5 405,641.5 405,629.5 403,603.5 
			406,556.5 405.5,514 420.5,462 423.3,456.4 425.5,452 430.4,442.2 435.7,431.5 437.5,428 459.6,410.7 460.5,410 468.9,420.7 
			469.2,421 470.1,422.2 486.5,443 497.5,457 495.3,459.9 488.6,468.7 		"/>
		<polygon class="st31" points="725.5,532.3 725.5,572.4 712.5,615.5 699.9,635.4 696,641.5 634.2,641.5 658.5,605.4 659.4,602.3 
			666.5,578.4 666.5,541.3 650.5,526.3 639.5,510.1 638.9,509.2 638.9,509.2 635.9,504.7 627.5,492.2 596.5,435.1 594.3,406.8 
			594.2,406.5 594.2,406.5 593.7,399.7 590.5,359 630.5,373 662.5,390.6 681.5,401.1 703.5,441.1 718.5,493.2 719.5,498.8 
			719.5,498.8 		"/>
		<polyline class="st33" points="469,528.5 473.1,547.9 471,562.5 471,579.5 471,599.5 473.1,624.3 473.1,641.5 467,641.5 
			463,606.5 463,584.5 465,559.5 465,548.5 469,528.5 469,528.5 473.1,547.9 		"/>
	</g>
	<g id="Layer_13">
		<polygon class="st34" points="530.5,303 513.5,298 513.5,305 496.5,302 503.5,307 477.5,307 479.5,315 459.5,320 469.5,327 
			450.5,342 442.5,356 451.5,351 427.5,400 439.5,389 432.5,410 432.5,421 440.5,412 430.5,453 432.5,475 440.5,462 443.5,498 
			454.5,525 459.5,504 469.5,529 473.5,559 488.5,540 490.5,552 495.5,531 511.5,585 515.5,562 519.5,569 522.5,554 536.5,568 
			548.5,538 561.5,554 563.5,569 570.5,558 578.5,537 591.5,565 601.5,531 612.5,563 617.5,550 625.5,526 630.5,538 626.5,549 
			636.5,540 633.5,522 636.5,500 639.5,511 641.5,460 651.5,475 647.5,453 658.5,464 651.5,434 643.5,424 656.5,432 658.5,439 
			658.5,424 644.5,407 655.5,410 643.5,389 637.5,379 654.5,396 662.5,414 662.5,389 641.5,363 625.5,342 630.5,345 615.5,330 
			594.5,318 601.5,319 581.5,310 563.5,306 551.5,300 548.5,304 532.5,296 		"/>
		<polygon class="st35" points="584.5,368 576.5,345 568.5,337 568.5,345 557.5,330 553.5,335 542.5,323 528.5,328 517.5,323 
			504.5,328 496.5,326 481.5,337 476.5,352 469.5,362 469.5,379 464.5,391 459.5,411 459.5,428 468.5,447 483.5,468 521.5,473 
			550.5,470 579.5,446 594.5,428 587.5,398 594.5,407 582.5,379 		"/>
	</g>
	<g id="Layer_14">
		<polygon class="st36" points="579.5,412 579.5,430 574.2,438.4 572.5,441 568.5,445.4 568.2,445.7 561.5,453 542.5,460 495.5,460 
			486.5,454 478.5,445 477.8,443.8 473.5,437 466.5,432 469.5,418 473.1,411.7 477.5,404 481.2,401 483,399.5 484.9,398 491.1,393 
			492.7,391.7 493.5,391 499.8,389.6 503,388.9 508.5,387.7 511.1,387.1 511.5,387 536.5,387 536.8,387 544.3,388.5 548.5,389.2 
			552.5,390 554.9,391.4 562.7,396 563.1,396.2 565.9,397.9 568.5,399.4 569.5,400 572.8,403.9 575.1,406.7 578.4,410.7 		"/>
		<polygon class="st37" points="563.5,440 568.2,445.7 561.5,453 542.5,460 495.5,460 486.5,454 478.5,445 477.8,443.8 481.5,437 
			486.5,447 486.5,438 494.5,453 494.5,438 503.5,451 505.5,438 510.5,447 512.5,438 517.5,448 522.5,438 526.5,450 532.5,439 
			532.5,451 540.5,442 540.5,453 550.5,442 552.5,451 558.5,442 561.5,449 		"/>
		<polygon class="st38" points="563.1,396.2 562.5,397.6 558.5,406 548.5,416 520.5,421 492.5,410 484.1,403.3 481.2,401 483,399.5 
			484.9,398 491.1,393 492.7,391.7 493.5,391 499.8,389.6 503,388.9 508.5,387.7 511.1,387.1 511.5,387 536.5,387 536.8,387 
			544.3,388.5 548.5,389.2 552.5,390 554.9,391.4 562.7,396 		"/>
		<polygon class="st39" points="492.5,365 479.5,378 466.5,402 481.5,381 		"/>
		<polygon class="st39" points="526.5,356 539.5,362 551.5,371 561.5,381 548.5,373 532.5,369 532.5,365 		"/>
		<polygon class="st40" points="499.5,369 501.5,363 505.5,359 508.5,367 508.5,371 503.5,371 		"/>
		<polygon class="st40" points="515.5,369 515.5,361 519.5,359 523.5,362 524.5,369 520.5,371 		"/>
		<polygon class="st39" points="530.5,347 536.5,344 544.5,346 548.5,351 548.5,344 540.5,341 534.5,339 526.5,342 524.5,347 
			528.5,351 		"/>
		<polygon class="st37" points="547.5,350 544.5,353 538.5,354 534.5,351 533.8,349.1 533.4,348.2 532.5,346 533,345.7 536.5,344 
			544.5,346 		"/>
		<polygon class="st37" points="496.5,342 496.5,345 492.5,351 486.5,354 482.5,351 482.5,345 491.5,342 		"/>
		<polygon class="st39" points="499.5,343 496.5,339 486.5,339 481.5,345 490.5,342 		"/>
		<g id="Layer_15">
			<polygon class="st37" points="569.5,400 572.8,403.9 568.5,410 568.5,399.4 			"/>
			<polygon class="st37" points="574.2,438.4 572.5,441 568.5,445.4 568.5,432 			"/>
			<polygon class="st37" points="486.5,412 477.5,406 481.5,417 473.1,411.7 477.5,404 481.2,401 483,399.5 484.1,403.3 			"/>
			<polygon class="st37" points="491.1,393 492.5,407 484.9,398 			"/>
			<polygon class="st37" points="493.5,391 499.8,389.6 498.5,404 492.7,391.7 			"/>
			<polygon class="st37" points="503,388.9 508.5,387.7 508.5,404 			"/>
			<polygon class="st37" points="511.5,387 519.5,387 519.5,404 511.1,387.1 			"/>
			<polygon class="st37" points="521.2,387 528.4,387 525.5,400 			"/>
			<polygon class="st37" points="530.3,387 534.7,387 532.5,400 			"/>
			<polygon class="st37" points="536.8,387 544.3,388.5 539.5,398 			"/>
			<polygon class="st37" points="552.5,390 554.9,391.4 550.5,404 548.5,389.2 			"/>
			<polygon class="st37" points="563.1,396.2 565.9,397.9 561.5,408 562.5,397.6 562.7,396 			"/>
			<polygon class="st37" points="578.4,410.7 574.5,417 575.1,406.7 			"/>
		</g>
		<polygon class="st41" points="544.5,345.1 542.6,349.2 540.6,350.2 537.6,350.3 533.8,348.6 533.6,348.4 533.4,347.7 533,345.2 
			536.4,343.3 		"/>
		<polygon class="st41" points="495.9,342.6 494.5,345.6 490.6,348.7 486.5,346.9 485.4,344.9 491.4,342.7 		"/>
	</g>
</g>
</svg>
