<?xml version="1.0" encoding="utf-8"?>
<!-- Generator: Adobe Illustrator 21.1.0, SVG Export Plug-In . SVG Version: 6.00 Build 0)  -->
<svg version="1.1" xmlns="http://www.w3.org/2000/svg" xmlns:xlink="http://www.w3.org/1999/xlink" x="0px" y="0px"
	 viewBox="0 0 834.5 628.5" style="enable-background:new 0 0 834.5 628.5;" xml:space="preserve">
<style type="text/css">
	.st0{display:none;}
	.st1{fill:#A38871;}
	.st2{opacity:0.5;fill:#776558;}
	.st3{fill:#232221;}
	.st4{fill:#30093A;}
	.st5{fill:#C1B3A7;}
	.st6{fill:#332C26;}
	.st7{fill:#571068;}
	.st8{fill:#F7EBE2;}
	.st9{fill:#D8A679;}
	.st10{fill:#E0DED5;}
	.st11{fill:#FFF252;}
	.st12{opacity:0.4;fill:#917156;}
	.st13{fill:#111110;}
	.st14{fill:#4B3A24;}
	.st15{fill:#6B492D;}
	.st16{fill:#8C6239;}
	.st17{fill:#331A0D;}
	.st18{fill:#5B3E27;}
	.st19{opacity:0.4;fill:#6B492E;}
	.st20{opacity:0.4;fill:#4F3727;}
	.st21{fill:#593D66;}
	.st22{fill:#BAAABC;}
	.st23{fill:#EAE16C;}
	.st24{opacity:0.4;fill:#AAA14D;}
	.st25{opacity:0.4;fill:#937358;}
	.st26{fill:#231E1B;}
	.st27{fill:#DDD3CC;}
	.st28{opacity:0.4;fill:#665B53;}
	.st29{fill:#ADA29A;}
	.st30{fill:#5E3C2B;}
	.st31{fill:#242626;}
	.st32{fill:#4B4C4E;}
	.st33{fill:#1B1D1D;}
	.st34{opacity:0.4;fill:#4B4C4E;}
</style>
<g id="Layer_1" class="st0">
	
		<image style="display:inline;overflow:visible;" width="1102" height="838" xlink:href="../../../../../../../Desktop/Herreper 2.jpg"  transform="matrix(0.75 0 0 0.75 4.5 0)">
	</image>
</g>
<g id="Layer_5">
	<polygon class="st1" points="183,416 101,427 60.5,465 35.5,479 7.5,509 34.5,532 0,572 33,593 17,616 48.5,628 776.5,629 
		823.5,600.5 815.5,587.5 834.5,555.5 794.5,540.5 815.5,514.5 820.5,481.5 834.5,465.5 815.5,455.5 750,437 687,416 586,416 
		468,416 285,420 	"/>
	<polygon class="st2" points="73.5,547 55.5,567 68.5,590 73.5,618 108.5,618 171.5,613 191.5,581 168.5,576 165.5,542 122.5,538 	
		"/>
	<polyline class="st2" points="269.5,490 238.5,502 222.5,529 258.5,548 316.5,538 357.5,523 382.5,538 439.5,529 449.5,501 
		417.5,482 342.5,464 269.5,490 	"/>
	<polygon class="st2" points="455.5,506 434.5,525 420.5,538 435.5,554 450.5,562 455.5,572 457.5,580 486.5,585 508.5,585 
		534.5,585 550.5,574 579.5,567 600.5,542 624.5,542 635.5,542 624.5,557 645.5,565 673.5,564 706.5,554 738.5,551 755.5,534 
		738.1,522.5 706.5,518 675.5,522 638.5,528 594.5,522 546.5,515 507,508.5 477.5,508 	"/>
</g>
<g id="Layer_4">
	<polygon class="st3" points="269.5,500 258.5,513 247.5,523 247.5,528 258.5,531 271.5,532 293.5,527 308.5,518 305.5,502 
		287.5,494 	"/>
	<polygon class="st3" points="381.5,496 379.5,511 388.5,521 397.5,528 411.5,528 423.5,525 428.5,518 427.5,507 426.5,499 
		410.5,489 	"/>
	<polygon class="st4" points="309,474.5 325,474.5 349,481.5 368,477.5 386,474.5 364,339.5 287,349.5 300,475.5 	"/>
	<polygon class="st5" points="287,133.4 376,130 381,308 259,304.6 	"/>
	<polygon class="st6" points="307,507.5 287,500.5 262,507.5 253,489.5 253,471.5 270,299.5 411,303.5 432,467.5 432,482.5 
		429,502.5 410,497.5 392,497.5 381,504.5 373,481.5 361,433.5 346,388.5 333,366.5 322,391.5 317,426.5 311,447.5 307,464.5 
		315,489.5 	"/>
	<polygon class="st7" points="432.6,240.7 433,254.5 433,275.5 435,340.5 440,378.5 443,413.5 450,424.5 446,444.5 406,461.5 
		389,407.5 381,218.5 389,170.5 444,165.5 	"/>
	<polygon class="st7" points="304.5,124.5 291.8,132.5 273.8,139.5 260,162.5 249.5,190.5 244.2,205.5 231.5,219.5 231.5,231.5 
		226.2,255.5 226.2,277.5 223,281.5 226.2,294.5 227.2,305.5 232.5,310.5 249.5,307.5 250.5,289.5 250.5,275.5 253.7,264.5 
		256.9,247.5 263.2,223.5 270.6,199.5 275.9,179.5 304.5,147.5 	"/>
	<polygon class="st8" points="240,275.5 231,278.5 226,276.5 223,281.5 226,294.5 227,305.5 231,310.5 248,307.5 248.9,291.5 
		249,275.5 	"/>
	<polygon class="st9" points="248,310.5 248,323.5 247,338.5 247,345.5 241,341.5 236,339.5 232,333.5 231,321.5 231,310.5 
		248,307.5 	"/>
	<polygon class="st7" points="392,126.5 411,132.5 430,138.5 452,145.5 468,149.5 482,156.5 488,169.5 482,183.5 476,193.5 
		465,209.5 454,217.5 450,222.5 435,211.5 424,201.5 422,189.5 435,185.5 433,180.5 424,182.5 407,187.5 397,181.5 394,166.5 	"/>
	<polygon class="st8" points="427,194.5 432,202.5 440,209.5 448,215.5 455,225.5 455,231.5 447,233.5 441,233.5 437,238.5 
		427,243.5 418,235.5 409,222.5 403,204.5 418,194.5 	"/>
	<polygon class="st7" points="244,401.5 236,433.5 240,447.5 270,456.5 267,332.5 270,224.5 261,223.5 252.4,262.2 249,275.5 
		248.3,301.5 248,310.5 248,323.5 247,338.5 247,345.5 249,370.5 249,388.5 	"/>
	<polygon class="st8" points="300,124.5 302.5,148 300,168.5 287,194.5 281,224.5 275,256.5 275,286.5 275,330.5 275,360.5 
		278,392.5 278,413.5 280,441.5 282,466.5 288,489.5 270,489.5 252,481.5 236,470.5 234,453.5 236,433.5 249,445.5 259,448.5 
		262,400.5 257,363.5 255,303.5 258,261.5 262.8,217.5 273,179.5 269,160.5 271,139.5 287,132.5 	"/>
	<polygon class="st8" points="358,113.5 373,119.5 389,119.5 392,126.5 393,146.3 394.9,170.9 397,181.5 392,203.5 392,222.5 
		392,255.5 397,307.5 403,365.5 403,403.5 403,441.5 408,449.5 429,437.5 450,424.5 455,438.5 455,452.5 452,460.5 442,462.5 
		432,472.5 418,482.5 403,486.5 389,486.5 377,489.5 368,489.5 368,470.5 369,439.5 373.4,397.2 375,372.5 372,345.5 368,317.5 
		358,205.5 358,161.5 	"/>
	<polygon class="st9" points="302,106.5 302,113.5 303,122.5 303,129.5 310,155.5 335,158.5 354,137.5 350,109.5 343,98.5 	"/>
	<polygon class="st10" points="295,149.5 305,150.5 305,170.5 315,161.5 315,171.5 322,169.5 328,184.5 334,174.5 342,184.5 
		348,170.5 365,184.5 362,162.5 354,151.5 365,151.5 358,140.5 367,138.5 361,126.5 353,126.5 346,126.5 346,141.5 340,145.5 
		336,152.5 327,151.5 316,153.5 309,143.5 307,134.5 303,122.5 300,124.5 	"/>
	<polygon class="st10" points="302,96.5 314,86.5 326,82.5 339,82.5 350,89.5 355,104.5 358,113.5 362.4,129.2 352,129.5 346,126.5 
		345,115.5 344,120.5 340.9,106.5 318,102.5 306,103.5 	"/>
	<polygon class="st11" points="300,108.5 316,110.5 335,108.5 347,104.5 355,104.5 353,93.5 355,89.5 364,82.5 352,84.5 345,88.5 
		341,91.5 334,97.5 326,90.5 320,85.5 314,91.5 311,101.5 300,90.5 287,89.5 295,94.5 300,100.5 	"/>
	<polygon class="st12" points="308,134.5 313,136.5 319,130.5 317,134.5 317,139.5 309,137.5 	"/>
	<polygon class="st12" points="330,129.5 336,133.5 340,134.5 344,129.5 342,134.5 338,137.5 333,134.5 	"/>
	<polygon class="st12" points="321,134.5 326,133.5 330,134.5 327,136.5 	"/>
	<polygon class="st12" points="326,121.5 331,121.5 337,117.5 341,120.5 337,121.5 332,122.5 327,122.5 	"/>
	<polygon class="st12" points="308,120.5 313,121.5 317,121.5 321,120.5 317,123.5 312,122.5 308,122.5 	"/>
	<polygon class="st13" points="312,124.5 315,125.5 317,123.5 312,122.5 	"/>
	<polygon class="st13" points="330.7,122.5 331,124.5 334,125.5 337,123.5 335.9,121.7 332,122.5 	"/>
	<polygon class="st12" points="319,144.5 323,144.5 326,145.5 331,142.5 338,139.5 328,141.1 319,142.5 	"/>
	<polygon class="st3" points="281.5,145 279.5,149 280.5,153 283.5,149 	"/>
	<polygon class="st3" points="279.5,192 277.5,196 278.5,200 281.5,196 	"/>
	<polygon class="st3" points="273.3,235.1 270.5,238.6 270.8,242.7 274.4,239.4 	"/>
	<polygon class="st3" points="267.5,219 266.5,221 267,223 268.5,221 	"/>
	<polygon class="st3" points="368.5,228 367.5,230 368,232 369.5,230 	"/>
	<polygon class="st3" points="372.5,196 371.5,198 372,200 373.5,198 	"/>
	<polygon class="st3" points="410.5,216 409.5,218 410,220 411.5,218 	"/>
	<polygon class="st3" points="259.5,303 258.5,305 259,307 260.5,305 	"/>
	<polygon class="st3" points="270.5,335 269.5,337 270,339 271.5,337 	"/>
	<polygon class="st3" points="268.5,397 267.5,399 268,401 269.5,399 	"/>
	<polygon class="st3" points="385.5,454 384.5,456 385,458 386.5,456 	"/>
	<polygon class="st3" points="394.5,408 393.5,410 394,412 395.5,410 	"/>
	<polygon class="st3" points="276.5,480 275.5,482 276,484 277.5,482 	"/>
	<polygon class="st3" points="410.5,475 409.5,477 410,479 411.5,477 	"/>
	<polygon class="st3" points="427.5,445 426.5,447 427,449 428.5,447 	"/>
	<polygon class="st3" points="290.5,164 289.5,166 290,168 291.5,166 	"/>
	<polygon class="st3" points="381.5,168 380.5,170 381,172 382.5,170 	"/>
	<polygon class="st3" points="294.5,133 293.5,135 294,137 295.5,135 	"/>
	<polygon class="st3" points="369.5,126 368.5,128 369,130 370.5,128 	"/>
	<polygon class="st3" points="276.4,164.3 276.7,166.5 278.2,167.9 278.3,165.4 	"/>
	<polygon class="st3" points="270.6,290.6 266.8,293 265.6,296.9 270.2,295 	"/>
	<polygon class="st3" points="378.6,139.6 374.8,142 373.6,145.9 378.2,144 	"/>
	<polygon class="st3" points="386.6,181.6 382.8,184 381.6,187.9 386.2,186 	"/>
	<polygon class="st3" points="263.5,265 261.5,269 262.5,273 265.5,269 	"/>
	<polygon class="st3" points="362.5,184 360.5,188 361.5,192 364.5,188 	"/>
	<polygon class="st3" points="386.5,128 384.5,132 385.5,136 388.5,132 	"/>
	<polygon class="st3" points="423.4,215.6 423.8,220.1 426.8,222.9 427.2,217.9 	"/>
	<polygon class="st3" points="368.5,153 366.5,157 367.5,161 370.5,157 	"/>
	<polygon class="st3" points="427.5,232 425.5,236 426.5,240 429.5,236 	"/>
	<polygon class="st3" points="447.2,222 443,223.7 441.1,227.3 445.9,226.3 	"/>
	<polygon class="st3" points="379.5,218 377.5,222 378.5,226 381.5,222 	"/>
	<polygon class="st3" points="419.5,203 417.5,207 418.5,211 421.5,207 	"/>
	<polygon class="st3" points="268.5,318 266.5,322 267.5,326 270.5,322 	"/>
	<polygon class="st3" points="448.5,429 446.5,433 447.5,437 450.5,433 	"/>
	<polygon class="st3" points="259.1,345.8 259.9,350.2 263.1,352.8 263.1,347.8 	"/>
	<polygon class="st3" points="390.4,433.8 391.3,438.2 394.5,440.8 394.4,435.8 	"/>
	<polygon class="st3" points="266.5,424 264.5,428 265.5,432 268.5,428 	"/>
	<polygon class="st3" points="415.5,457 413.5,461 414.5,465 417.5,461 	"/>
	<polygon class="st3" points="397.6,376.5 395.7,372.5 392,370.7 393.2,375.5 	"/>
	<polygon class="st3" points="272.5,378 270.5,382 271.5,386 274.5,382 	"/>
	<polygon class="st3" points="273.5,460 271.5,464 272.5,468 275.5,464 	"/>
	<polygon class="st3" points="379.5,410 377.5,414 378.5,418 381.5,414 	"/>
	<polygon class="st3" points="240.1,448.8 240.9,453.2 244.1,455.8 244.1,450.8 	"/>
	<polygon class="st3" points="375.5,474.8 376.3,479.2 379.5,481.8 379.5,476.8 	"/>
	<polygon class="st3" points="258.5,469 256.5,473 257.5,477 260.5,473 	"/>
	<polygon class="st3" points="231.5,282 229.5,286 230.5,290 233.5,286 	"/>
	<polygon class="st3" points="229.5,302.3 229.5,305.3 230.8,307.9 231.2,304.7 	"/>
	<polygon class="st3" points="246.6,295.6 242.8,297.9 241.5,301.9 246.2,300.1 	"/>
	<polygon class="st3" points="245.5,278.6 242.6,279.2 242.4,281.6 246.2,281.5 	"/>
	<polygon class="st3" points="238.8,292.8 237.2,292.6 237.4,293.5 239.6,294.1 	"/>
</g>
<g id="Layer_2">
	<polygon class="st14" points="639,554.5 666,534.5 692,550.5 677,559.5 650,559.5 	"/>
	<polygon class="st14" points="751,531.5 729,540.5 695,542.5 697,536.5 711,525.5 728,515.5 	"/>
	<polygon class="st14" points="478,528.5 455,542.5 444,546.5 447,551.5 456,554.5 468,554.5 486,554.5 	"/>
	<polygon class="st14" points="455,515.5 449,522.5 438,528.5 429,534.5 436,541.5 448,541.5 465,536.4 	"/>
	<polygon class="st15" points="704,355.5 704,367.5 715,381.5 731,397.5 741,407.5 749,412.5 746,435.5 746,453.5 749,482.5 
		749,495.5 753,508.5 755,522.5 755,534.5 743.7,534.5 731,534.5 725,529.5 715,528.5 711,525.5 730,515.5 726,502.5 730,488.5 
		730,451.5 723,437.5 715,423.5 704,413.5 695,398.5 671.5,373 689,351.5 	"/>
	<polygon class="st16" points="672,431.5 681,446.5 684,463.5 681,487.5 678,506.5 672,517.5 672,529.5 655.2,542.5 663,549.5 
		673,551.5 677,559.5 697,547.5 697,534.5 695,518.5 699,505.5 699,491.5 702,472.5 715,446.5 715,437.5 710,431.5 699,415.5 
		692,403.5 692,367.5 685,380.5 676,367.5 665,355.5 671,370.5 660,361.5 657.5,372 642,365.5 627,366.5 639,378.5 654,398.5 
		665,420.5 	"/>
	<polygon class="st15" points="463.5,368 463,396.5 465,416.5 465,425.5 463,443.5 463,457.5 464,472.5 463,484.5 459,505.5 
		455,515.5 444,525.2 455,528.5 459.4,538.1 474,528.5 476,509.5 476,494.5 479,477.5 481,462.5 497,391.5 494,371.5 	"/>
	<polygon class="st16" points="465,547.5 455,542.5 478,528.5 480,510.5 483,492.5 483,465.5 483,441.5 483,422.5 479,403.5 
		476,381.5 452,375.5 442,371.5 458,369.5 471,361.5 486,366.5 501,366.5 513,367.5 503,538.5 486,542.5 471,547.5 	"/>
	<polyline class="st16" points="442,371.5 429,371.5 403,361.5 384,349.5 366,330.5 354,316.5 339,319.5 325,314.5 311,319.5 
		298,316.5 283,317.5 273,311.5 267,301.5 275,290.5 289,280.5 301,273.5 313,258.5 322,249.5 340,239.5 366,228.5 373,228.5 
		380,236.5 380,250.5 402,261.5 421,262.5 447,255.5 474,250.5 502,246.5 543,251.5 563,253.5 582,251.5 611,246.5 637,246.5 
		653,246.5 674,249.5 692,256.5 704,264.5 718,267.5 727,271.5 736,271.5 742,281.5 749,294.5 755,302.5 748,305.5 737,299.5 
		728,290.5 728,299.5 723,314.5 715,337.5 704,355.5 692,366.5 680.9,374.6 	"/>
	<polyline class="st16" points="512.6,373.7 570,375.5 595,379.5 618,371.5 627,366.5 	"/>
	<polygon class="st17" points="358,144.5 363,152.5 370,159.5 375,167.5 379,181.5 373,191.5 364,202.5 351,217.5 324,217.5 
		296,205.5 290,201.5 286,207.5 288,213.5 300,222.5 318,225.5 334,228.5 330,232.5 317,234.5 300,236.5 292,239.5 291,248.5 
		330,240.5 375,216.5 389,192.5 392,179.5 404,176.5 406,171.5 401,169.5 393,172.5 387,161.5 379,149.5 368,140.5 361,137.5 
		356,140.5 	"/>
	<polygon class="st18" points="397,135.5 404,153.5 408,165.5 408,179.5 399,191.5 378,203.5 362,211.5 347,213.5 331,213.5 
		321,211.5 314,202.5 308,192.5 300,193.5 300,206.5 308,216.5 328,223.5 344,225.5 343,231.5 328,236.5 307,239.5 289,243.5 
		280,248.5 280,257.5 289,262.5 301,256.5 315,251.5 338,244.5 340,249.5 350,247.5 357,241.5 355.6,232.9 369,223.5 387,214.5 
		408,202.5 422,189.5 435,187.5 442,183.5 435,179.5 423,179.5 422,164.5 418,149.5 408,135.5 402,131.5 	"/>
	<polygon class="st19" points="346,258.5 357,244.5 367,231.5 373,228.5 380,236.5 380,250.5 380,260.5 370,268.5 354,271.5 
		349,269.5 354,262.5 363,262.5 370,259.5 374,252.5 375,242.5 370,246.5 361,250.5 363,242.5 354,254.5 348,262.5 	"/>
	<polygon class="st19" points="351,276.5 365,282.5 367,276.5 380,274.5 382,267.5 402,271.5 395,276.5 412,296.5 429,296.5 
		426,289.5 442,293.5 448,303.5 440,306.5 454,314.5 466,314.5 458,306.5 463,301.5 477,298.5 467,288.5 456,280.5 473,279.5 
		451,271.5 460,265.5 438,262.5 425,261.4 421,262.5 402,261.5 380,250.5 380,260.5 370,268.5 354,271.5 	"/>
	<polygon class="st19" points="282,295.5 280,304.5 276,308.5 280,311.5 286,311.5 291.7,316.9 298,316.5 311,319.5 325,314.5 
		339,319.5 330,307.5 321,301.5 332,301.5 309,299.5 300,303.5 296,297.5 292,291.5 300,284.5 288,287.5 280,290.5 285,293.5 	"/>
	<polygon class="st20" points="320,271.5 320,262.5 324,260.5 332,258.5 342,262.5 346,267.5 336,265.5 328,265.5 323,269.5 	"/>
	<polygon points="326,273.5 333,274.5 337,271.5 337,265.5 328,265.5 323,270.5 	"/>
	<polygon class="st19" points="568,330.5 570,321.5 583,321.5 588,315.5 610,314.5 622,289.5 633,266.5 650,253.5 671,258.5 
		683,268.5 689,262.5 704,276.5 722,287.5 710,291.5 718,312.5 696,308.5 703,342.5 686,330.5 681,301.5 666,307.5 652,295.5 
		652,316.5 641,311.5 639,340.5 655,322.5 674,332.5 688,342.5 668,345.5 651,351.5 650,361.5 609,355.5 597,369.5 577,359.5 	"/>
	<polygon class="st19" points="366,305.5 380,321.5 385,314.5 406,335.5 414,329.5 421,339.5 442,351.5 444,333.5 459,351.5 
		465,355.5 447,361.5 425,355.5 425,364.5 401,347.5 399,351.5 384,335.5 376.7,341.8 371,326.5 354,316.5 346,311.5 348,297.5 
		356,301.5 367,289.5 	"/>
</g>
<g id="Layer_3">
	<polygon class="st9" points="484,248.5 480,245.5 487,241.5 496,241.5 500,243.5 500,246.5 498,252.5 	"/>
	<polygon class="st9" points="617,258.5 620,263.5 625,268.5 624,279.5 633,280.5 639,273.5 643,264.5 644,260.5 649,253.5 
		650,248.5 644,253.5 646,245.5 642,245.5 638,252.5 640,245.5 637,246.5 634,251.5 635,245.5 632,245.5 630,250.5 628,255.5 
		626,260.5 624,260.5 621,258.5 618,256.5 616,256.5 	"/>
	<polygon class="st21" points="518,356.5 511,369.5 503,395.5 499,420.5 499,442.5 495,467.5 487,500.5 481,534.5 467,554.5 
		467,565.5 462,575.5 487,580.5 507,577.5 522,580.5 531,572.5 548,568.5 564,566.5 571,558.5 584,557.5 588,548.5 588,538.5 
		584,513.5 584,475.5 579,435.5 576,398.5 569,379.5 569,347.5 569,317.5 598,314.5 619,314.5 629,296.5 638,284.5 634,274.5 
		625,274.5 614,288.5 603,294.5 588,294.5 568,291.5 559,290.5 531,287.5 517,284.5 507,267.5 503,247.5 491,243.5 484,248.5 
		489,258.5 491,270.5 497,275.5 497,293.5 500,307.5 510,332.5 	"/>
	<polygon class="st22" points="538,370.5 553,370.5 569,370.5 570.1,382.6 562,382.5 550,384.5 533,384.5 520,380.5 508.5,377.5 
		511,370.5 513.2,365.5 521,368.5 	"/>
	<polygon class="st9" points="509,237.5 509,245.5 508.3,249.4 508,250.9 507,256.5 509,257.5 508,261.5 507,267.5 509,273.5 
		513,279.5 513,282.5 519,282.5 519,277.5 522,274.5 522,270.5 524,264.5 518,259.5 517,255.5 514,252.5 512,252.5 511,256.5 
		509,250.5 510,245.5 	"/>
	<polygon class="st23" points="515,233.5 521,228.5 528,226.5 537,226.5 546,231.5 550,237.5 553,248.5 551,258.5 548,265.5 
		550,272.5 557,281.5 562,288.5 561,295.5 558,299.5 558,295.5 554,299.5 550,305.5 547,310.5 545,306.5 544,323.5 543,329.5 
		540,315.5 537,325.5 537,333.5 533,322.5 532,337.5 535,344.5 526,332.5 524,322.5 522,333.5 519,320.5 519,311.5 515,322.5 
		513,311.5 512,321.5 510,308.5 512,296.5 515,292.5 517,284.5 515.8,282.5 519,282.5 519,277.5 522,274.5 522,270.5 524,264.5 
		518,259.5 517,255.5 514,252.5 512,252.5 511,256.5 509,250.5 508,249.5 507,242.5 507,237.5 511,234.5 	"/>
	<polygon class="st24" points="526,266.5 531,268.5 537,268.5 539,271.5 539,277.5 542,282.5 542,286.5 544,282.5 542,277.5 
		541,272.5 542,269.5 546,267.5 548,265.5 549,263.2 544,264.5 539,265.5 533,265.5 526,264.5 	"/>
	<polygon class="st25" points="513.5,258 514.5,258 514.5,256 513.5,255 515.5,256 515.5,258 514.5,260 512.5,259 	"/>
</g>
<g id="Layer_6">
	<polygon class="st3" points="138,550.5 151,546.5 158,554.5 158,566.5 148,575.5 133,575.5 	"/>
	<polygon class="st3" points="116,574.5 146,581.5 161,581.5 178,581.5 174,593.5 164,601.5 147,607.5 125,607.5 107,607.5 
		91,612.5 79,608.5 83,597.5 89,566.5 	"/>
	<polygon class="st26" points="63,354.5 60,384.5 72,430.5 72,448.5 76,472.5 81,489.5 87,508.5 87,556.5 137,544.5 125,339.5 	"/>
	<polygon class="st6" points="167,253.5 167,290.5 170,316.5 170,341.5 167,370.5 167,397.5 169,427.5 167,448.5 165,469.5 
		154,508.5 148,527.5 138,550.5 133,575.5 133,589.5 118,598.5 99,601.5 76,598.5 76,575.5 79,557.5 88,528.5 96,479.5 102,427.5 
		102,389.5 61,375.5 53,295.5 46,219.5 50,205.5 81,205.5 125,221.5 	"/>
	<polygon class="st9" points="62,308.5 65,322.5 74,336.5 62,361.5 37,349.5 49,326.5 46,313.5 45,301.5 60,298.5 	"/>
	<polygon class="st9" points="100,322.5 83,326.5 63,334.5 45,345.5 67,343.5 81,364.5 95,356.5 100,340.5 108,326.5 	"/>
	<polygon class="st27" points="69,145.5 61,153.5 53,163.5 45,177.5 45,187.5 43,197.5 37,211.5 32,224.5 24,232.5 24,246.5 
		20,273.5 23,286.5 31,301.5 37,314.5 45,313.5 62,307.5 65,294.5 69,280.5 60,265.5 60,253.5 59,223.5 48,217.5 56,197.5 59,188.5 
		66.5,170 	"/>
	<polygon class="st28" points="52,226.5 43,230.5 33,238.5 31,235.5 24,246.5 24,256.1 33,242.5 44,235.5 	"/>
	<polygon class="st28" points="28,282.5 30,271.5 34,254.5 41,241.5 32,250.5 28,262.5 24,267.5 24,278.5 	"/>
	<polygon class="st28" points="41,302.5 35,293.5 35,286.5 44,292.5 45,286.5 43,270.5 48,280.5 52,273.5 49,253.5 58,278.5 
		61,273.5 61,282.5 61,294.5 52,302.5 	"/>
	<polygon class="st5" points="69,145.5 77,145.5 85,142.5 96,137.5 108,136.5 121,139.5 133,145.5 151,153.5 162,161.5 141,161.5 
		131,165.5 127,178.5 123,192.5 126,207.5 136,212.5 135,226.5 132,233.5 123,230.5 116,228.5 104,223.5 92,220.5 82,213.5 
		73,213.5 54,217.5 48,217.5 59,188.5 61,169.5 	"/>
	<polygon class="st27" points="172,177.5 172,190.5 177,202.5 174,213.5 177,227.5 172,241.5 169,248.5 166,262.5 166,286.5 
		162,298.5 154,308.5 142,322.5 125,334.5 111,340.5 95,340.5 89,333.5 85,322.5 100,314.5 100,305.5 105,290.5 108,269.5 
		121,256.5 127,242.5 127,223.5 131,210 121,206.5 119,188.5 125,169.5 136,157.5 157,158.5 167,165.5 	"/>
	<polygon class="st29" points="117,123.5 110,132.5 108,136.5 121,139.5 133,145.5 141.5,150 148.5,152 153.5,156 157,149.5 
		152,139.5 147,132.5 129,124.5 	"/>
	<polygon class="st9" points="187,108.5 172,92.5 143,108.5 147,132.5 157,149.5 165,149.5 165,142.5 170,137.5 173,130.5 
		177,130.5 179,125.5 177,120.5 181,117.5 184,113.5 	"/>
	<polygon class="st30" points="152,62.5 165,63.5 173,70.5 184,82.5 187,92.5 191,106.5 189,113.5 182.8,106 179,113.5 175,106.5 
		169,100.5 162,110.5 162,117.5 157,124.5 147,132.5 134.6,128 129,124.5 117,123.5 108,122.5 111,117.5 103,117.5 111,108.5 
		120,97.5 121,84.5 131,70.5 147,63.5 	"/>
	<polygon class="st12" points="171,110.5 169,108.5 167,110.5 166,114.5 168,118.5 171,115.5 169,115.5 169,112.5 	"/>
	<polygon class="st31" points="94,368.5 94,382.5 94,398.5 89,410.5 79,420.5 65,428.5 48,426.5 41,420.5 30,410.5 30,398.5 
		23,361.5 24,345.5 30,339.5 78,351.5 94,361.5 	"/>
	<polygon class="st32" points="35,336.5 48,336.5 59.7,343.5 77,347.5 87,355.5 94,361.5 83,357.5 74,354.9 59,354.5 46.8,352.8 
		37,343.5 30,339.5 	"/>
	<polygon class="st33" points="77,361.5 79,378.5 74,396.5 69,408.5 50,410.5 35,406.5 23,393.5 24,384.5 18,371.5 20,359.5 
		32,352.5 61,357.5 	"/>
	<polygon class="st34" points="41,403.5 50,386.5 50,370.5 47,355.1 32,352.5 20,359.5 18,370.5 24,383.5 23,393.5 35,406.5 	"/>
	<polygon class="st28" points="131.5,206 131.5,190.1 131.5,182 137.5,190 143.5,182 153.5,175 150.5,188 144.5,200 150.5,202 
		135.5,212 	"/>
	<polygon class="st28" points="126.5,256 129.5,265 122.5,279 122.5,265 122.5,256 	"/>
</g>
</svg>
