<?xml version="1.0" encoding="utf-8"?>
<!-- Generator: Adobe Illustrator 21.1.0, SVG Export Plug-In . SVG Version: 6.00 Build 0)  -->
<svg version="1.1" xmlns="http://www.w3.org/2000/svg" xmlns:xlink="http://www.w3.org/1999/xlink" x="0px" y="0px"
	 viewBox="0 0 635 551" style="enable-background:new 0 0 635 551;" xml:space="preserve">
<style type="text/css">
	.st0{fill:#847367;}
	.st1{fill:#AA9587;}
	.st2{fill:#352F2C;}
	.st3{fill:#443C37;}
	.st4{fill:#60554D;}
	.st5{fill:#D8A679;}
	.st6{opacity:0.4;fill:#917156;}
	.st7{fill:#3A322D;}
	.st8{fill:#969696;}
	.st9{fill:#A5A5A5;}
	.st10{opacity:0.4;fill:#515150;}
	.st11{fill:#7A5E49;stroke:#3F2A1B;stroke-miterlimit:10;}
	.st12{fill:#3F2A1B;}
	.st13{fill:#C1B3A7;}
	.st14{opacity:0.4;fill:#443C36;}
	.st15{fill:#D3C867;}
	.st16{fill:#D6D6C8;}
</style>
<g id="Layer_9">
	<polygon class="st0" points="135,157 347.5,79.5 377.5,92.5 106,197 	"/>
	<polygon class="st1" points="106,551 604,551 622.5,536.5 587.5,513.5 505.5,493.5 416,519 106,500 31.5,505.5 19.5,542.5 	"/>
	<polygon class="st2" points="509.5,405.5 516.5,420.5 516.5,431.5 525.5,449.5 523.5,462.5 520.5,481.5 525.5,493.5 525.5,511.5 
		522.5,521.5 498.5,531.5 416.5,538.5 390.5,481.5 455.5,407.5 	"/>
	<polygon class="st3" points="148.5,427.5 148.5,462.5 459.5,481.5 461.5,425.5 	"/>
	<polygon class="st0" points="117,381 340.5,268.5 346.5,280.5 106,399 	"/>
	<polygon class="st0" points="92.5,487.5 416,519 416.5,538.5 91.5,507.5 	"/>
	<polygon class="st0" points="149,409 149.5,427.5 461.5,456.5 466,440 	"/>
	<polygon class="st4" points="90.5,488.5 150,456 459.5,481.5 416.5,519.5 	"/>
	<polygon class="st4" points="149,409 231,384 510,406 466.5,440.5 	"/>
</g>
<g id="Layer_2">
	<polygon class="st5" points="322,396 314,416 322,425 348,420 374,421 366,411 344,404 329,378 	"/>
	<polygon class="st5" points="252,402 252,430 252,452 246,473 252,485 272,481 291,485 314,480 290,468 272,456 273,433 280,394 
		252,394 	"/>
	<polygon class="st6" points="259.5,425.5 269.5,421.5 275.1,421.5 280,394 251,398 252,422.9 	"/>
	<polygon class="st6" points="314.5,403.5 319,409 335.5,409.5 345.5,411.5 343.5,403.5 335.3,389 	"/>
</g>
<g id="Layer_6">
	<polygon class="st7" points="309,140 385,354 255,401 213,370 242,140 	"/>
</g>
<g id="Layer_8">
	<polygon class="st8" points="362,145 409,150 431,159 449,171 449,179 444,183 433,171 410,161 381.5,159.5 354.5,161.5 	"/>
	<polygon class="st9" points="336,223 361,226 394,226 425,219 436,203 438,189 444,183 433,171 410,161 313,156 328.4,200.9 	"/>
	<polygon class="st10" points="397,203 346,200 322,201 343,223 361,226 394,226 425,219 433.7,208.5 405,202.5 	"/>
</g>
<g id="Layer_5">
	<polygon class="st11" points="302,139 274,138 276,157 293,157 303,151 	"/>
	<polygon class="st11" points="247,154 241,154 246,145 249,145 	"/>
	<polygon class="st11" points="248,164 236,164 241,154 252,154 	"/>
	<polygon class="st11" points="234,173 249,181 248,164 236,164 	"/>
	<polygon class="st11" points="232,181 245,192 246.7,179.7 234,172 	"/>
	<polygon class="st11" points="229,192 245,207 245,192 229,178 	"/>
	<polygon class="st11" points="228,197 226,209 247,221 245,207 234,196.7 	"/>
	<polygon class="st11" points="224,214 226,221 247,233 247,221 228.2,210.2 	"/>
	<polygon class="st11" points="224,226 225,233 244,248 242.8,230.6 226,221 	"/>
	<polygon class="st11" points="222,234 219,242 236,259 241,259 241.5,246 225,233 	"/>
	<polygon class="st11" points="220,248 215,255 232,275 236,255 	"/>
	<polygon class="st11" points="219,265 215,273 230,288 236,279 220.5,261.5 	"/>
	<polygon class="st11" points="219,282 215,292 244,305 246,300 247,294 	"/>
	<polygon class="st11" points="218,297 232.9,300 225,313 217,310 	"/>
	<polygon class="st11" points="215,316 213,323 247,350 247,331 217,310 	"/>
	<polygon class="st11" points="217,331 215,341 227,354 232.9,338.8 220,328.5 	"/>
	<polygon class="st11" points="213,341 210,354 237,383 244,370 215,341 	"/>
	<polygon class="st11" points="208,360 205,364 217,389 228,374.5 210,354 	"/>
	<polygon class="st11" points="236,255 232,275 276,286 276,268 	"/>
	<polygon class="st11" points="237,282 237,293 268,307 280,307 282,286 237,276.2 	"/>
	<polygon class="st11" points="243,300 290,310 290,321 244,316 	"/>
	<polygon class="st11" points="225,313 252,336 260,324 233,300 	"/>
	<polygon class="st11" points="297,327 256,327 256,337 278,347 299,341 	"/>
	<polygon class="st11" points="244,332 241.5,345.6 274,359 274.7,345.5 	"/>
	<polygon class="st11" points="234,360 258,375 273,373 275,359 233,339 227,354 	"/>
	<polygon class="st11" points="230,370 230,394 265,397 276,375 	"/>
	<polygon class="st11" points="223,375 210,389 241,409 246,391 	"/>
	<polygon class="st11" points="280,166 296,166 294.7,156 279,156 	"/>
	<polygon class="st11" points="303,151 314,159 301,168 296,166 295,156 	"/>
	<polygon class="st11" points="280,166 280,178 290,178 301,175 296,166 	"/>
	<polygon class="st11" points="311.1,161 288,173 288,182 306,182 321,168 	"/>
	<polygon class="st11" points="280,178 279,184 288,182 288,178 	"/>
	<polygon class="st11" points="277,196 305,194 303,182 279,182 	"/>
	<polygon class="st11" points="321,168 327,178 316,188 304,188 303,182 306,182 	"/>
	<polygon class="st11" points="335,188 323,199 313.6,188 327,178 	"/>
	<polygon class="st11" points="321,199 296,207 295,192 315,185.6 	"/>
	<polygon class="st11" points="273,196 295.3,196 296,207 273,214 	"/>
	<polygon class="st11" points="266,229 296,220 294.1,207 265,216 	"/>
	<polygon class="st11" points="336,200 319,212 314,199 330,189 	"/>
	<polygon class="st11" points="296,220 319,212 314,199 291,205 	"/>
	<polygon class="st11" points="269,237 295,234 295,217 268,227 	"/>
	<polygon class="st11" points="327,228 295,234 295,217 324,214 	"/>
	<polygon class="st11" points="336,200 344,209 313,229 306.7,215.8 	"/>
	<polygon class="st11" points="269,237 270,255 305,252 308,234 	"/>
	<polygon class="st11" points="340.2,211.4 324,224 333,234 346,218 	"/>
	<polygon class="st11" points="329,226 299,241 308,255 336,236 	"/>
	<polygon class="st11" points="285.8,253.6 287,267 262,268 259,252 	"/>
	<polygon class="st11" points="342.2,222.7 348,241 331,250 327,235 	"/>
	<polygon class="st11" points="324,252 327,265 355,250 348,241 	"/>
	<polygon class="st11" points="273,267.6 306,271 306,292 271,290 	"/>
	<polygon class="st11" points="345.7,255 304,273 307,290 346,278 	"/>
	<polygon class="st11" points="359,254 355,259.5 339.5,281 330,273 353.4,248 	"/>
	<polygon class="st11" points="362,268 355,260 343,276.2 348,284 	"/>
	<polygon class="st11" points="314,287.8 323,302 352,288 343,276 	"/>
	<polygon class="st11" points="273,292 275,307.9 314,307 314,288 	"/>
	<polygon class="st11" points="277,316 321,305 326,321 297.4,330 297,327 277.5,327 	"/>
	<polygon class="st11" points="345,295 321.9,307.9 326,321 352,303 	"/>
	<polygon class="st11" points="358.1,272.5 364,286 352,303 341.7,293 	"/>
	<polygon class="st11" points="345,312 297,330 299,341 333,339 351,322 	"/>
	<polygon class="st11" points="361.2,290 368,298 357,321 348,321 344.9,307.9 	"/>
	<polygon class="st11" points="324,339.5 325,357 274.7,361.1 275,346 	"/>
	<polygon class="st11" points="353.7,321 361,330 343,354 324.8,353 324,340 	"/>
	<polygon class="st11" points="371,300 371.8,302 375,310 359.5,332 351,322 368,298 	"/>
	<polygon class="st11" points="258,361 259,378 307,375 306,358.5 	"/>
	<polygon class="st11" points="346.6,349.2 352,360 304,372 303,354 	"/>
	<polygon class="st11" points="375,310 383,327 352,361 343,349.2 	"/>
	<polygon class="st11" points="263.3,377.7 263,394 314,389 314,368 	"/>
	<polygon class="st11" points="358,350 363,368 311,386 309,366 	"/>
	<polygon class="st11" points="376,329 383,339 361,366 356,347 	"/>
	<polygon class="st11" points="239,391 239,411 303,409 302,389 	"/>
	<polygon class="st11" points="294,394 299,416 356,387 348,370 	"/>
	<polygon class="st11" points="346,378 354,393 389,361 375,350 	"/>
	<polygon class="st11" points="375,359 387,362.8 391,341 383,336 371,357 	"/>
	
		<rect x="244.4" y="400.4" transform="matrix(0.4472 -0.8944 0.8944 0.4472 -223.4035 441.5256)" class="st12" width="2.2" height="2.2"/>
	
		<rect x="270.4" y="383.4" transform="matrix(0.4472 -0.8944 0.8944 0.4472 -193.8257 455.3834)" class="st12" width="2.2" height="2.2"/>
	
		<rect x="232.4" y="348.4" transform="matrix(0.4472 -0.8944 0.8944 0.4472 -183.5267 402.0476)" class="st12" width="2.2" height="2.2"/>
	
		<rect x="355.4" y="381.4" transform="matrix(0.4472 -0.8944 0.8944 0.4472 -145.05 530.3041)" class="st12" width="2.2" height="2.2"/>
	
		<rect x="376.4" y="320.4" transform="matrix(0.4472 -0.8944 0.8944 0.4472 -78.8815 515.3671)" class="st12" width="2.2" height="2.2"/>
	
		<rect x="351.4" y="330.4" transform="matrix(0.4472 -0.8944 0.8944 0.4472 -101.6454 498.5343)" class="st12" width="2.2" height="2.2"/>
	
		<rect x="302.4" y="399.4" transform="matrix(0.4472 -0.8944 0.8944 0.4472 -190.4474 492.8496)" class="st12" width="2.2" height="2.2"/>
	
		<rect x="307.4" y="360.4" transform="matrix(0.4472 -0.8944 0.8944 0.4472 -152.8008 475.7631)" class="st12" width="2.2" height="2.2"/>
	
		<rect x="318.4" y="345.4" transform="matrix(0.4472 -0.8944 0.8944 0.4472 -133.3038 477.31)" class="st12" width="2.2" height="2.2"/>
	
		<rect x="343.4" y="318.4" transform="matrix(0.4472 -0.8944 0.8944 0.4472 -95.3346 484.7454)" class="st12" width="2.2" height="2.2"/>
	
		<rect x="292.4" y="335.4" transform="matrix(0.4472 -0.8944 0.8944 0.4472 -138.7319 448.527)" class="st12" width="2.2" height="2.2"/>
	
		<rect x="275.4" y="278.4" transform="matrix(0.4472 -0.8944 0.8944 0.4472 -97.147 401.8129)" class="st12" width="2.2" height="2.2"/>
	
		<rect x="312.4" y="278.4" transform="matrix(0.4472 -0.8944 0.8944 0.4472 -76.6939 434.9067)" class="st12" width="2.2" height="2.2"/>
	
		<rect x="325.4" y="292.4" transform="matrix(0.4472 -0.8944 0.8944 0.4472 -82.0296 454.2733)" class="st12" width="2.2" height="2.2"/>
	
		<rect x="307.4" y="244.4" transform="matrix(0.4472 -0.8944 0.8944 0.4472 -49.0473 411.6399)" class="st12" width="2.2" height="2.2"/>
	
		<rect x="312.4" y="216.4" transform="matrix(0.4472 -0.8944 0.8944 0.4472 -21.2394 400.634)" class="st12" width="2.2" height="2.2"/>
	
		<rect x="291.4" y="201.4" transform="matrix(0.4472 -0.8944 0.8944 0.4472 -19.4315 373.5592)" class="st12" width="2.2" height="2.2"/>
	
		<rect x="295.4" y="146.4" transform="matrix(0.4472 -0.8944 0.8944 0.4472 31.9732 346.7336)" class="st12" width="2.2" height="2.2"/>
	
		<rect x="328.4" y="196.4" transform="matrix(0.4472 -0.8944 0.8944 0.4472 5.4938 403.8891)" class="st12" width="2.2" height="2.2"/>
	
		<rect x="311.4" y="166.4" transform="matrix(0.4472 -0.8944 0.8944 0.4472 22.9292 372.1002)" class="st12" width="2.2" height="2.2"/>
	
		<rect x="289.4" y="161.4" transform="matrix(0.4472 -0.8944 0.8944 0.4472 15.24 349.6589)" class="st12" width="2.2" height="2.2"/>
	
		<rect x="271.4" y="244.4" transform="matrix(0.4472 -0.8944 0.8944 0.4472 -68.9476 379.4405)" class="st12" width="2.2" height="2.2"/>
	
		<rect x="279.4" y="296.4" transform="matrix(0.4472 -0.8944 0.8944 0.4472 -111.0355 415.3408)" class="st12" width="2.2" height="2.2"/>
	
		<rect x="213.4" y="349.4" transform="matrix(0.4472 -0.8944 0.8944 0.4472 -194.924 385.6063)" class="st12" width="2.2" height="2.2"/>
	
		<rect x="231.4" y="308.4" transform="matrix(0.4472 -0.8944 0.8944 0.4472 -148.3024 379.0417)" class="st12" width="2.2" height="2.2"/>
	
		<rect x="240.4" y="286.4" transform="matrix(0.4472 -0.8944 0.8944 0.4472 -123.6499 374.9303)" class="st12" width="2.2" height="2.2"/>
	
		<rect x="218.4" y="268.4" transform="matrix(0.4472 -0.8944 0.8944 0.4472 -119.7115 345.3027)" class="st12" width="2.2" height="2.2"/>
	
		<rect x="223.4" y="239.4" transform="matrix(0.4472 -0.8944 0.8944 0.4472 -91.0092 333.744)" class="st12" width="2.2" height="2.2"/>
	
		<rect x="240.4" y="169.4" transform="matrix(0.4472 -0.8944 0.8944 0.4472 -19.0019 310.2542)" class="st12" width="2.2" height="2.2"/>
	
		<rect x="334.4" y="240.4" transform="matrix(0.4472 -0.8944 0.8944 0.4472 -30.5443 433.5782)" class="st12" width="2.2" height="2.2"/>
	
		<rect x="340.4" y="216.4" transform="matrix(0.4472 -0.8944 0.8944 0.4472 -5.7614 425.6779)" class="st12" width="2.2" height="2.2"/>
	
		<rect x="219.7" y="384.7" transform="matrix(0.4472 -0.8944 0.8944 0.4472 -222.8269 409.9586)" class="st12" width="1.1" height="1.1"/>
	
		<rect x="380.7" y="356.7" transform="matrix(0.4472 -0.8944 0.8944 0.4472 -108.7843 538.4833)" class="st12" width="1.1" height="1.1"/>
	
		<rect x="362.7" y="350.7" transform="matrix(0.4472 -0.8944 0.8944 0.4472 -113.3679 519.0669)" class="st12" width="1.1" height="1.1"/>
	
		<rect x="329.7" y="345.7" transform="matrix(0.4472 -0.8944 0.8944 0.4472 -127.1377 486.7869)" class="st12" width="1.1" height="1.1"/>
	
		<rect x="314.7" y="372.7" transform="matrix(0.4472 -0.8944 0.8944 0.4472 -159.579 488.2957)" class="st12" width="1.1" height="1.1"/>
	
		<rect x="349.7" y="347.7" transform="matrix(0.4472 -0.8944 0.8944 0.4472 -117.8708 505.781)" class="st12" width="1.1" height="1.1"/>
	
		<rect x="355.7" y="322.7" transform="matrix(0.4472 -0.8944 0.8944 0.4472 -92.1934 497.3279)" class="st12" width="1.1" height="1.1"/>
	
		<rect x="218.7" y="335.7" transform="matrix(0.4472 -0.8944 0.8944 0.4472 -179.5527 381.9776)" class="st12" width="1.1" height="1.1"/>
	
		<rect x="219.7" y="302.7" transform="matrix(0.4472 -0.8944 0.8944 0.4472 -149.4838 364.6301)" class="st12" width="1.1" height="1.1"/>
	
		<rect x="248.7" y="308.7" transform="matrix(0.4472 -0.8944 0.8944 0.4472 -138.8196 393.8852)" class="st12" width="1.1" height="1.1"/>
	
		<rect x="309.7" y="296.7" transform="matrix(0.4472 -0.8944 0.8944 0.4472 -94.3665 441.8118)" class="st12" width="1.1" height="1.1"/>
	
		<rect x="349.7" y="310.7" transform="matrix(0.4472 -0.8944 0.8944 0.4472 -84.777 485.3279)" class="st12" width="1.1" height="1.1"/>
	
		<rect x="348.7" y="294.7" transform="matrix(0.4472 -0.8944 0.8944 0.4472 -71.019 475.5889)" class="st12" width="1.1" height="1.1"/>
	
		<rect x="316.7" y="314.7" transform="matrix(0.4472 -0.8944 0.8944 0.4472 -106.5967 458.0229)" class="st12" width="1.1" height="1.1"/>
	
		<rect x="327.7" y="312.7" transform="matrix(0.4472 -0.8944 0.8944 0.4472 -98.7272 466.7561)" class="st12" width="1.1" height="1.1"/>
	
		<rect x="336.7" y="272.7" transform="matrix(0.4472 -0.8944 0.8944 0.4472 -57.975 452.6945)" class="st12" width="1.1" height="1.1"/>
	
		<rect x="355.7" y="265.7" transform="matrix(0.4472 -0.8944 0.8944 0.4472 -41.2111 465.8191)" class="st12" width="1.1" height="1.1"/>
	
		<rect x="347.7" y="246.7" transform="matrix(0.4472 -0.8944 0.8944 0.4472 -28.6393 448.1607)" class="st12" width="1.1" height="1.1"/>
	
		<rect x="281.7" y="260.7" transform="matrix(0.4472 -0.8944 0.8944 0.4472 -77.6451 396.8675)" class="st12" width="1.1" height="1.1"/>
	
		<rect x="289.7" y="226.7" transform="matrix(0.4472 -0.8944 0.8944 0.4472 -42.8123 385.2282)" class="st12" width="1.1" height="1.1"/>
	
		<rect x="312.7" y="191.7" transform="matrix(0.4472 -0.8944 0.8944 0.4472 1.2067 386.4525)" class="st12" width="1.1" height="1.1"/>
	
		<rect x="298.7" y="187.7" transform="matrix(0.4472 -0.8944 0.8944 0.4472 -2.9546 371.7194)" class="st12" width="1.1" height="1.1"/>
	
		<rect x="294.7" y="208.7" transform="matrix(0.4472 -0.8944 0.8944 0.4472 -23.9487 379.7502)" class="st12" width="1.1" height="1.1"/>
	
		<rect x="230.7" y="204.7" transform="matrix(0.4472 -0.8944 0.8944 0.4472 -55.7493 320.2957)" class="st12" width="1.1" height="1.1"/>
	
		<rect x="230.7" y="184.7" transform="matrix(0.4472 -0.8944 0.8944 0.4472 -37.8608 309.24)" class="st12" width="1.1" height="1.1"/>
	
		<rect x="240.7" y="181.7" transform="matrix(0.4472 -0.8944 0.8944 0.4472 -29.6496 316.5259)" class="st12" width="1.1" height="1.1"/>
	
		<rect x="236.7" y="264.7" transform="matrix(0.4472 -0.8944 0.8944 0.4472 -106.0982 358.8294)" class="st12" width="1.1" height="1.1"/>
	
		<rect x="245.7" y="341.7" transform="matrix(0.4472 -0.8944 0.8944 0.4472 -169.994 409.4438)" class="st12" width="1.1" height="1.1"/>
	
		<rect x="217.7" y="318.7" transform="matrix(0.4472 -0.8944 0.8944 0.4472 -164.9003 371.6858)" class="st12" width="1.1" height="1.1"/>
	
		<rect x="219.7" y="287.7" transform="matrix(0.4472 -0.8944 0.8944 0.4472 -136.0674 356.3383)" class="st12" width="1.1" height="1.1"/>
	
		<rect x="220.7" y="252.7" transform="matrix(0.4472 -0.8944 0.8944 0.4472 -104.2097 337.8852)" class="st12" width="1.1" height="1.1"/>
	
		<rect x="234.7" y="218.7" transform="matrix(0.4472 -0.8944 0.8944 0.4472 -66.0602 331.6124)" class="st12" width="1.1" height="1.1"/>
	
		<rect x="228.7" y="228.7" transform="matrix(0.4472 -0.8944 0.8944 0.4472 -78.3212 331.7737)" class="st12" width="1.1" height="1.1"/>
</g>
<g id="Layer_3">
	<polygon class="st13" points="304.5,55.5 304,139 274,138 282,71 	"/>
	<polygon class="st5" points="363,156 379,163 395,170 404,170 418,172 428,178 431,184 425,184 416,178 423,190 427,203 425,209 
		420,212 416,209 409,208 403,207 397,195 392,186 377,180 349,171 	"/>
	<polyline class="st14" points="296,83.4 293.5,108.5 295.2,138 302,139 303,111.2 305,84.9 306.5,75.5 296,83.4 	"/>
	<polygon class="st13" points="314,50 331,54 344,65 344,87 351,98 351,109 351,119 356,130 366,137 366,148 366,157 358,173 
		344,178 326,173 314,163 299,153 296,135 296,114 296,92 303,62 	"/>
	<polygon class="st14" points="344,114 324,120 314,130 335,122 	"/>
	<polygon class="st14" points="344,87 331,100 314,108 331,108 	"/>
	<polygon class="st14" points="349,130 344,141 331,144 318,144 331,151 349,147 	"/>
	<polygon class="st14" points="366,148 349,151 338,160 352,160 	"/>
	<polygon class="st6" points="410,197 416,209 413,197 	"/>
	<polygon class="st6" points="416,193 420,189 425,209 	"/>
	<polygon class="st6" points="404,199 410,209 407,199 	"/>
	<polygon class="st13" points="255,122 242,89 232,110 232,130 227,151 222,158 228,167 228,178 232,181 237,162 243,151 	"/>
</g>
<g id="Layer_4">
	<polygon class="st5" points="349,44 347,53 338,59.9 331,54 329,37 346,37 	"/>
	<polygon class="st15" points="331,54 314,56 296,77 284,118 287,145 280,130 280,178 274,217 270,203 270,260 264,238 264,273 
		255,233 255,283 246,241 243,283 237,247 242,195 246,140 242,117 240,97 237,133 230,140 230,151 224,114 232,82 264,39 296,18 
		320.5,2.5 355,38 361,50 361,70 356,60 357,84 357,97 352,73 349,87 341,39 	"/>
	<polygon class="st16" points="331,1 342,8 345,17 352,23 356,32 359,40 352,43 344,46.1 337,55 326.2,52.9 326,44 326,32 320,22 
		312,12 308,16 308,25 306,33 296,33 291,38 286,43 282,50 274,55 264,50 255,50 244,48 253,37 266,30 281,24 290,15 302,5 314,0 
		326,0 	"/>
	<polygon class="st14" points="333,45 333,29 333,14 338,33 342,24 342,34 349,30 	"/>
	<polygon class="st14" points="324,3 318,6 306,8 296,18 306,12 294,26 309,11 321,8 	"/>
	<polygon class="st14" points="281.5,27.5 275,37 275,48 278,37 	"/>
</g>
</svg>
