<?xml version="1.0" encoding="utf-8"?>
<!-- Generator: Adobe Illustrator 21.1.0, SVG Export Plug-In . SVG Version: 6.00 Build 0)  -->
<svg version="1.1" xmlns="http://www.w3.org/2000/svg" xmlns:xlink="http://www.w3.org/1999/xlink" x="0px" y="0px"
	 viewBox="0 0 788.5 439" style="enable-background:new 0 0 788.5 439;" xml:space="preserve">
<style type="text/css">
	.st0{fill:#76B4CC;}
	.st1{fill:#6E6C24;}
	.st2{fill:#C4AA83;}
	.st3{fill:#E3A44D;}
	.st4{fill:#FBCB73;}
	.st5{opacity:0.4;fill:#AF8041;}
	.st6{fill:#EFD0A3;}
	.st7{fill:#FCDBA1;}
	.st8{fill:#EDC688;}
	.st9{fill:#FFF1CB;}
	.st10{fill:#ECBC77;}
	.st11{fill:#F9D994;}
	.st12{fill:#FCE2B3;}
	.st13{fill:#F4C078;}
	.st14{fill:#F6E7BF;}
	.st15{fill:#EBB76A;}
	.st16{fill:#F6DCB8;}
	.st17{fill:#F7E6C3;}
	.st18{fill:#F5DC80;}
	.st19{fill:#F7CB74;}
	.st20{fill:#DDBE9B;}
	.st21{fill:#F8E8C7;}
	.st22{fill:#F4BC6E;}
	.st23{fill:#E8BF5C;}
	.st24{fill:#FCD08C;}
	.st25{fill:#F7E2AA;}
	.st26{fill:#F5CA78;}
	.st27{fill:#EDC973;}
	.st28{fill:#EACE9E;}
	.st29{opacity:0.4;fill:#918C87;}
	.st30{fill:#442B17;}
	.st31{fill:#7C5340;}
	.st32{fill:#1E211F;}
	.st33{fill:#252B2B;}
	.st34{fill:#333633;}
	.st35{fill:#1D1D1F;}
	.st36{fill:#4B4C4E;}
	.st37{fill:#1B1D1D;}
	.st38{fill:#4B3A24;}
	.st39{fill:#8C6239;}
	.st40{fill:#754C24;}
	.st41{fill:#42210B;}
	.st42{opacity:0.42;fill:#1A1A1A;}
</style>
<g id="Layer_1">
</g>
<g id="Layer_6">
	<polygon class="st0" points="386.5,243 350.5,252 321.5,256 285.5,256 216.5,256 168.5,273 137.5,292 159.5,309 211.5,309 
		283.5,309 341.5,328 408.5,353 469.5,365 577.5,380 644.5,379 723.5,380 781.5,359 784,346.5 777,329.5 774,307.5 769,296.5 
		771,284.5 741.5,284 714.5,273 611.5,246 	"/>
	<polygon class="st1" points="26.5,353 62,322.5 86,303.5 130.5,292 158.5,292 194.5,297 227.5,303 257.5,303 283.5,311 321.5,311 
		350.5,322 370.5,322 380.5,328 411.5,339 433.5,345 463.5,351 532.5,359 566.5,366 594.5,371 632.5,378.7 690.5,378.7 723.5,380 
		758.7,365 777,329.5 785,346.5 783,384.5 783,400.5 786,413.5 789,439.5 724,439.5 672,439.5 605,439.5 584,439.5 547,439.5 
		495,440.5 441,439.5 402,439.5 366,439.5 315,439.5 247.5,439 192,439.5 101.5,439 75,439.5 0,439.5 5,414.5 22,392.5 26.5,365 	
		"/>
	<polygon class="st2" points="720,183.5 717,174.5 731,190.5 739,207.5 748,221.5 757,243.5 763,267.5 771,284.5 757,292.5 
		742,284.5 724,280.5 714,273.5 702,249.5 	"/>
</g>
<g id="Layer_4">
	<polygon class="st3" points="586,47.5 583,74.5 583,142.5 596.2,138 593,40.5 	"/>
	<polygon class="st4" points="589,178.7 589,50 683.6,35.5 685.5,188 589,189.5 	"/>
	<polygon class="st3" points="697.5,0 718,44.5 720.5,193 685.5,195 683.5,42 694.5,4 	"/>
	<polygon class="st5" points="589.5,53 589.5,68 614.5,67 614.5,52 	"/>
	<polygon class="st5" points="621.5,52 621.5,66 650.5,64 650.5,50 	"/>
	<polygon class="st5" points="656.5,49 656.5,65 680.5,63 680.5,47 	"/>
	<polygon class="st5" points="611.5,88 611.5,148 623.5,148 623.5,87 	"/>
	<polygon class="st5" points="634.5,87 634.5,105 656.5,104 656.5,85 	"/>
	<polygon class="st5" points="664.5,85 664.5,104 680.5,104 680.5,84 	"/>
	<polygon class="st6" points="473.5,40 465.5,60 468.5,60 467.5,73 457.5,90 460.5,92 460.5,98 457.5,99 454.5,106 479.5,106 
		481.4,58 	"/>
	<polygon class="st7" points="455.5,116 456.1,106 477.5,106 477.5,117 	"/>
	<polygon class="st8" points="506.5,57 502.5,68 495.5,77 486.5,90 526.5,91 543.5,57 	"/>
	<polygon class="st9" points="528.5,118 528.5,88 526.5,91 486.5,90 486.5,122 	"/>
	<polygon class="st10" points="543.5,57 544.5,136 527.7,136 528.5,85 	"/>
	<rect x="497.5" y="94" class="st5" width="7" height="11"/>
	<rect x="509.5" y="94" class="st5" width="8" height="12"/>
	<polygon class="st11" points="543.5,42 589.5,42 585.5,74 528.5,73 536.5,61 541.5,50 	"/>
	<polygon class="st12" points="534.5,131 534.9,73 583.5,74 584,137.5 	"/>
	<rect x="564.5" y="75" class="st5" width="5" height="16"/>
	<rect x="572.5" y="75" class="st5" width="5" height="17"/>
	<polygon class="st13" points="677.5,2 658.5,6 644.5,9 631.5,11 614.5,11 601.5,9 597.5,15 603.5,13 604.5,17 593.5,31 583.5,43 
		577.5,48 577.5,52 684.5,42 694.5,4 697.5,4 700.5,6 697.5,0 690.5,0 	"/>
</g>
<g id="Layer_3">
	<polygon class="st14" points="439.5,146 437.5,188 508.5,188 508.5,146 	"/>
	<polygon class="st15" points="528.5,120 508.5,146 508.5,188 525.5,181 	"/>
	<polygon class="st16" points="428.5,143 441.5,129 452.5,113 531.5,116 528.5,120 508.5,146 437.5,146 430.5,146 429.5,150 
		430.5,151 432.5,152 430.5,153 427.5,152 425.5,149 426.5,145 	"/>
	<rect x="447.5" y="148" class="st5" width="11" height="16"/>
	<rect x="465.5" y="148" class="st5" width="11" height="16"/>
	<rect x="483.5" y="148" class="st5" width="11" height="16"/>
	<rect x="444.5" y="167" class="st5" width="58" height="2"/>
	<polygon class="st7" points="616.5,143 616.5,190 677.5,188 677.5,141 	"/>
	<polygon class="st15" points="677.5,188 690.5,184 690.5,116 677.5,141 	"/>
	<rect x="627.5" y="144" class="st5" width="10" height="12"/>
	<rect x="644.5" y="144" class="st5" width="9" height="12"/>
	<rect x="660.5" y="144" class="st5" width="9" height="12"/>
	<rect x="624.5" y="164" class="st5" width="24" height="24.5"/>
	<rect x="654.5" y="164" class="st5" width="17" height="19"/>
	<rect x="469.5" y="126" class="st17" width="17" height="10"/>
	<polygon class="st18" points="524.6,141 524.6,164 572.5,171 572,139.9 569.5,141 	"/>
	<polygon class="st19" points="494.5,124 486.5,126 486.5,136 494.5,132 	"/>
	<polygon class="st20" points="483.5,50 489.5,89 486.5,90 492.5,120 494.5,124 486.5,126 469.5,126 465.5,124 469.5,119 476.5,91 
		473.5,89 	"/>
	<polygon class="st21" points="515.5,229 515.5,174 535.5,152 555.5,173 555.5,234 515.5,234 	"/>
	<polygon class="st3" points="572.5,171 555.5,173 555.5,234 572.5,232 	"/>
	<polygon class="st22" points="535.5,152.1 556.3,150 574,172.4 556.3,174.5 	"/>
	<polygon class="st18" points="545.5,88 545,100.3 564.5,100.3 564.5,88 	"/>
	<polygon class="st6" points="536.5,113 572.5,113 561.5,98 546.5,98 	"/>
	<polygon class="st6" points="555.5,24 564.5,88 545.5,88 	"/>
	<polygon class="st6" points="539.5,121 518.5,141 569.5,141 563.5,122 	"/>
	<polygon class="st22" points="580.5,136 569.5,141 563.5,122 569.5,120 	"/>
	<polygon class="st22" points="572.5,113 575.5,111 564.5,97 561.5,98 	"/>
	<polygon class="st18" points="539.6,113 539.5,121 563.5,122 569.5,120 569.5,113 	"/>
	<polygon class="st23" points="580,134.5 578.5,212 572.5,212 572,139.5 	"/>
	<rect x="589.5" y="109" class="st24" width="9" height="17"/>
	<polygon class="st25" points="593.5,88 591.5,103 587.5,109 600.5,109 596.5,103 	"/>
	<polygon class="st25" points="607.5,138 577,138 589.5,126 598.5,126 	"/>
	<polygon class="st10" points="600.5,109 600.5,125 598.5,126 598.5,109 	"/>
	<polygon class="st22" points="607.5,138 611.2,136 600.5,125 598.5,126 	"/>
	<polygon class="st24" points="578.5,160.1 607.5,160 607.5,138 578.5,138 	"/>
	<polygon class="st10" points="611.5,136 611.5,190 607.5,190 607.5,138 	"/>
	<polygon class="st26" points="578.5,160 578.5,202.5 606.5,202 607.5,190 607.5,160 	"/>
	<polygon class="st5" points="524.6,229.8 524.5,178 528.5,171 535.5,163 538.5,163 543.5,171 547.5,178 545.5,230 	"/>
	<polygon class="st5" points="559.5,143 559.9,155.4 563.5,159.9 563.5,143 	"/>
	<polygon class="st5" points="551.5,143 555.5,143 555.5,150 551.5,150.4 	"/>
	<polygon class="st5" points="543.5,143 546.5,143 546.5,150.9 544,150.9 	"/>
	<polygon class="st5" points="539.5,143 539.5,151.6 536,151.9 536.5,143 	"/>
	<polygon class="st5" points="532.5,143 532.3,155.4 529.7,158.4 529.5,143 	"/>
	<rect x="547.5" y="114" class="st5" width="3" height="7"/>
	<polygon class="st5" points="554.5,114 554.7,121.6 558.4,121.6 558.5,114 	"/>
	<rect x="551.5" y="90" class="st5" width="4" height="8"/>
	<polygon class="st5" points="592.5,111 592.3,126 595,126 594.5,111 	"/>
	<rect x="597.5" y="142" class="st5" width="4" height="14"/>
	<rect x="583.5" y="142" class="st5" width="5" height="14"/>
	<rect x="473" y="127.5" class="st5" width="11" height="8"/>
	<polygon class="st27" points="625.5,117 607.5,141 605.5,144 606.5,146 610.5,148 609.5,146 609.5,144 610.5,142 616.5,143 
		677.5,141 690.5,116 	"/>
</g>
<g id="Layer_2">
	<polygon class="st28" points="722.5,207 716.5,224 720.5,240 716.5,255 719.5,267 716.5,273 706.5,272 687.5,269 679.5,266 
		664.5,272 647.5,267 626.5,269 599.5,265 565.5,265 571.5,261 512.5,265 498.5,262 480.5,265 458.5,262 445.5,262 437.5,259 
		408.5,259 416.5,253 386.5,253 402.5,248 350.5,253 375.5,245 409.5,224 429.5,206 433.1,194.7 437.5,181 449.5,177 464.5,180 
		480.5,182 491.5,180 505.5,182 516.5,178 516,201.8 515.5,229 527.5,230 545.5,221 556.5,214 581.5,198 601.5,183 617.5,173 
		629.1,183.7 631.5,186 636.3,184.9 649.5,182 667.5,177 682.5,177 691.5,184 694.5,184 701.5,183 704.4,184.5 705.5,185 714.5,183 
		714.5,183 723.5,193 	"/>
	<polygon class="st29" points="516.5,178 516,201.8 494.5,221 507.5,196 494.5,207 490.5,193 473.5,205 476.5,196 469.5,193 
		450.5,212 450.5,193 442.5,206 442.5,193 434.5,202 433.1,194.7 437.5,181 449.5,177 464.5,180 480.5,182 491.5,180 505.5,182 	"/>
	<polygon class="st29" points="636.3,184.9 632.5,195 617.5,212 611.5,227 609.5,214 589.5,234 580.5,238 564.5,238 580.5,228 
		589.5,221 604.5,212 616.5,201 629.1,183.7 631.5,186 	"/>
	<polygon class="st29" points="712.5,193 713.5,206 710.5,219 698.5,236 695.5,250 690.5,240 672.5,248 650.5,252 665.5,244 
		685.5,227 690.5,212 700.3,193 704.4,184.5 705.5,185 714.5,183 	"/>
</g>
<g id="Layer_5">
	<g>
		<polygon id="stav" class="st30" points="326.2,264.8 327.9,265.4 333.4,324.1 330.2,390.4 329.1,390.4 329.7,362.1 330.3,324.3 		
			"/>
		<path id="hand" class="st31" d="M323.3,275c0,0,0.2-3,3-2.5s4.9,1.5,4.9,3.4c0,0,3,1,1.2,3.2c0,0,0.7,2.5-0.5,3.7
			c0,0,0.7,1.8-2.2,2.4c0,0,0.1,1.1-3.7,0.7c0,0-1.6-1.5-2.8-1.7c-1.8-0.2-1.6-3.1-1.5-8.3C321.7,275.6,323.3,275.4,323.3,275z"/>
		<polygon id="shoe_left" class="st32" points="269.1,395.3 267.8,403.1 261.2,404.3 254.8,404.3 253.1,398.9 254.4,393.3 
			254.9,389.1 254.5,382.1 254.1,380.4 260.4,381.7 266,381.4 266,382.2 266,390.8 		"/>
		<polygon id="shoe_right" class="st32" points="296.1,399.9 274.2,402.2 272.3,401.1 271.4,396.3 274.1,392.4 272.7,383.4 
			272.5,380.1 279.4,379.9 285,378.7 284.6,380 284.6,391.3 288.7,395.1 295,396.5 		"/>
		<polygon id="pantalones" class="st33" points="287.7,353.7 285.9,359.1 286.7,364.8 286.9,368.5 286.6,372.1 286.8,375.9 
			285.5,378.7 279.4,379.9 272.5,380.1 271.2,379 271,377.1 269.1,340.4 268.9,376.1 268.1,381 266,381.4 260.4,381.7 257.2,381 
			254.1,380.4 252.3,378.9 250.3,376.2 250.7,370 251.5,365.3 251.6,361 251.1,350.2 248,340.2 248,336 247.9,329.1 247.7,327.5 
			262,328.3 276.5,325.9 289,323.6 289.1,324.2 289.3,330.8 289.7,342.4 287.5,347 		"/>
		<polygon id="shadow_1_" class="st34" points="267.7,241.2 261.8,246 257.5,250.3 245.3,261.8 241.7,269.7 240.9,274.6 
			237.3,276.1 234.3,275.7 234.3,275.4 234.3,266.4 237.8,257.7 242,250.6 252,244.8 257.5,239.5 262.9,241 		"/>
		<polygon id="body" class="st35" points="325.2,287.5 314.8,289.3 305.1,286.7 293.3,275.9 290.9,290.3 290.6,298.3 288.7,308.8 
			289,321.7 289,323.6 276.5,325.9 262,328.3 247.9,327.5 247.7,327.5 247.1,319 245.1,311.6 242.2,305.7 239.8,300.5 238.3,293.6 
			236.4,287.1 234.3,280.8 234.3,275.7 237.3,276.1 240.9,274.6 241.7,269.7 245.3,261.8 257.5,250.3 261.8,246 267.7,241.2 
			269.4,241.2 273.7,240 297.2,255.2 299,263.6 310,271.9 322.2,275.1 		"/>
		<polygon id="nasen" class="st31" points="270.5,228.4 275.6,226.9 281.1,225 283,224.6 284.7,225.1 285.8,226 285.5,227.3 
			282.5,229.1 276.2,230.2 269.4,231.3 		"/>
		<polygon id="tophat" class="st36" points="276.7,214.6 275.8,217.8 273.6,222.3 268.1,225.2 259.8,225.9 255.3,222.7 254.7,216.5 
			257.4,210.9 262,208 269,207 274.4,209.8 276.2,212.3 		"/>
		<polygon id="brim" class="st37" points="284,221.1 282.7,225.3 278.4,229 273.7,230.6 265.4,232.7 256.1,232.9 251.1,230.3 
			246.7,223.6 247.8,218.9 251.3,214.3 255.4,212.2 257.4,210.9 254.7,216.5 255.3,222.7 259.8,225.9 268.1,225.2 273.6,222.3 
			275.8,217.8 276.7,214.6 276.2,212.3 280.1,213.8 282.6,217.4 		"/>
		<polygon id="sveis" class="st38" points="272.8,230.8 271.6,235.5 270,237.4 266,239.1 262.3,238.9 259.8,238.6 259.1,238.4 
			259.1,238.4 259.8,237.9 256.1,232.9 265.4,232.7 		"/>
		<polygon id="hode" class="st31" points="278.4,229 276.4,236.2 274.1,237.8 273.7,240 269.4,241.2 262.9,241 257.5,239.5 
			259.1,238.4 259.8,238.6 262.3,238.9 266,239.1 270,237.4 271.6,235.5 272.8,230.8 273.7,230.6 		"/>
		<g id="hale_1_">
			<polygon id="hale" class="st31" points="270.3,330.3 266.3,343 260.8,353.6 253.9,360.5 240.1,366.9 218.3,370.9 212.3,368.5 
				213.4,366.2 218.7,368.6 239.3,364.8 253.2,358 258.8,352.1 263.3,342.2 266.9,330.4 			"/>
			<polygon id="haletipp" class="st38" points="215.2,362.4 215.9,363.5 216.6,365.4 216.1,368.4 214.2,370.5 211.1,370.6 
				208.8,369.4 207.2,367.4 206,365.1 207.8,365 206.9,362.3 209,363 208.8,360.3 211.5,361.3 211.1,359.4 213.2,360.6 214.4,361.7 
							"/>
		</g>
		<g id="baggg">
			<polygon id="bag" class="st39" points="307,296.5 303.2,309.3 295.8,313.4 294,318.6 289.1,324.2 268.7,329.1 257.9,329.8 
				247.9,329.1 242.8,324.6 241.1,317.8 235.9,313.8 234.4,307.9 230,301.2 229.7,296.8 227.8,291.1 234.8,282.5 232.3,278.7 
				232.6,276.3 236.7,274.9 244.8,272.5 252.8,271.1 257.7,270.7 263.6,269.4 271.2,267.4 277,266.3 285.1,264.4 290.3,264.1 
				290.4,264.1 299.1,271.1 302.2,276.8 304.7,281.2 304.6,284 305.1,286.7 			"/>
			<polygon id="shadow" class="st40" points="305.1,303 303.2,309.3 295.8,313.4 294,318.6 289.1,324.2 268.7,329.1 257.9,329.8 
				247.9,329.1 242.8,324.6 241.1,317.8 235.9,313.8 235.6,312.9 247.6,319.2 257.8,320.2 273.1,319.2 283.1,317.2 294.2,310.5 			
				"/>
			<polygon id="flap" class="st40" points="290.3,264.1 286.6,277.2 278.6,290.4 269.8,296.6 256.2,292.2 239.4,282.9 232.6,276.3 
				236.7,274.9 244.8,272.5 252.8,271.1 257.7,270.7 263.6,269.4 271.2,267.4 277,266.3 285.1,264.4 			"/>
			<polygon id="strapleft" class="st41" points="247.7,247.2 254.7,271.3 258.8,270.8 249.9,246 			"/>
			<polygon id="strapright" class="st41" points="277.8,242.6 279.3,243.6 271.2,254.2 266.7,269.1 263.9,269.7 268.2,254.1 			"/>
		</g>
		<polygon id="pants_shadwo" class="st42" points="289.3,328.9 289.1,329.2 268.7,334.1 257.9,334.8 248,334.1 247.9,327.5 
			262,328.3 276.5,325.9 289,323.6 289,321.7 289,321.7 289.1,322.3 		"/>
	</g>
</g>
</svg>
