<?xml version="1.0" encoding="UTF-8"?>
<svg width="762px" height="895px" viewBox="0 0 762 895" version="1.1" xmlns="http://www.w3.org/2000/svg" xmlns:xlink="http://www.w3.org/1999/xlink">
    <!-- Generator: Sketch 46.2 (44496) - http://www.bohemiancoding.com/sketch -->
    <title>Norge</title>
    <desc>Created with Sketch.</desc>
    <defs></defs>
    <g id="Page-1" stroke="none" stroke-width="1" fill="none" fill-rule="evenodd">
        <g id="kartet" transform="translate(-362.000000, -77.000000)">
            <g id="Norge" transform="translate(362.000000, 67.000000)">
                <g transform="translate(0.000000, 10.000000)">
                    <g id="noreg" transform="translate(4.000000, 0.000000)" fill="#4F9161">
                        <polygon id="Fill-10" points="661.555996 0.00035195388 636.081473 53.8233702 628.274783 17.8185655 588.949681 73.982072 611.369463 0.00035195388 589.715709 2.79016706 515.293885 65.7146931 462.514102 78.0436111 417.795181 75.1916176 391.578056 113.742217 354.063778 142.876896 333.429051 203.096076 298.656778 257.159595 288.943218 291.408154 245.434246 351.189739 231.262732 388.39353 212.524334 441.139572 190.211139 481.925073 145.826037 550.415151 84.5297597 593.247847 16.7339588 651.21218 4.79142176 696.845249 -0.000351389207 749.542017 23.4279171 862.958912 62.6675144 894.996032 100.40551 891.451864 127.010334 864.134435 165.11026 815.468704 184.075889 838.934592 207.341348 796.8715 228.984561 724.988594 207.341348 588.06827 234.835186 540.587447 268.855487 536.724175 260.882473 499.071056 282.525686 396.381693 312.927852 360.128175 332.648968 324.498787 361.62801 248.051049 413.530491 219.527594 444.569843 194.75244 484.174885 153.968112 509.219542 194.425124 575.291195 206.975773 603.771264 177.309644 612.88395 115.695556 670.982588 84.8890993 688.051889 113.023059 712.435936 137.34302 758.056755 117.616047 727.539801 92.6097777 758.056755 58.4304366 731.614741 34.6865056 698.361639 19.9537478 676.616524 45.0221957 679.644325 7.12857591"></polygon>
                        <polygon id="Fill-11" points="327.655146 151.058985 321.441419 175.658162 319.962072 205.294962 305.462595 228.115602 271.435267 242.044734 232.080882 269.310542 256.344285 232.857584 289.188605 219.519734 279.8686 202.331516"></polygon>
                        <polygon id="Fill-12" points="536.579384 21.7878928 499.540652 39.623704 501.142986 52.2869775 522.156041 49.4326376 539.785222 28.5653368"></polygon>
                    </g>
                    <g id="poly" transform="translate(0.000000, 55.000000)" fill="#FFDC8C">
                        <polygon id="Polygon-Copy" points="113.077654 727.994516 83.8342558 718.469795 65.760842 693.533752 65.760842 662.711108 83.8342558 637.775065 113.077654 628.250344 142.321051 637.775065 160.394465 662.711108 160.394465 693.533752 142.321051 718.469795"></polygon>
                        <polygon id="Polygon-Copy-3" points="171.117679 719.728147 157.371368 715.250905 148.87568 703.529332 148.87568 689.040671 157.371368 677.319099 171.117679 672.841856 184.863991 677.319099 193.359678 689.040671 193.359678 703.529332 184.863991 715.250905"></polygon>
                        <polygon id="Polygon-Copy-15" points="135.241999 643.886291 121.495688 639.409048 113 627.687476 113 613.198815 121.495688 601.477242 135.241999 597 148.98831 601.477242 157.483998 613.198815 157.483998 627.687476 148.98831 639.409048"></polygon>
                        <polygon id="Polygon-Copy-17" points="170.241999 580.886291 156.495688 576.409048 148 564.687476 148 550.198815 156.495688 538.477242 170.241999 534 183.98831 538.477242 192.483998 550.198815 192.483998 564.687476 183.98831 576.409048"></polygon>
                        <polygon id="Polygon-Copy-10" points="66.241999 814.886291 52.4956876 810.409048 44 798.687476 44 784.198815 52.4956876 772.477242 66.241999 768 79.9883103 772.477242 88.483998 784.198815 88.483998 798.687476 79.9883103 810.409048"></polygon>
                        <polygon id="Polygon-Copy-19" points="22.241999 677.886291 8.49568764 673.409048 -7.81597009e-14 661.687476 -7.14772351e-14 647.198815 8.49568764 635.477242 22.241999 631 35.9883103 635.477242 44.483998 647.198815 44.483998 661.687476 35.9883103 673.409048"></polygon>
                        <polygon id="Polygon-Copy-9" points="211.241999 447.886291 197.495688 443.409048 189 431.687476 189 417.198815 197.495688 405.477242 211.241999 401 224.98831 405.477242 233.483998 417.198815 233.483998 431.687476 224.98831 443.409048"></polygon>
                        <polygon id="Polygon-Copy-18" points="281.241999 315.886291 267.495688 311.409048 259 299.687476 259 285.198815 267.495688 273.477242 281.241999 269 294.98831 273.477242 303.483998 285.198815 303.483998 299.687476 294.98831 311.409048"></polygon>
                        <polygon id="Polygon-Copy-4" points="137.53787 744.422968 127.90475 741.285413 121.951155 733.071187 121.951155 722.917845 127.90475 714.703619 137.53787 711.566064 147.170989 714.703619 153.124584 722.917845 153.124584 733.071187 147.170989 741.285413"></polygon>
                        <polygon id="Polygon-Copy-14" points="123.490291 605.954588 113.857172 602.817033 107.903577 594.602807 107.903577 584.449465 113.857172 576.235239 123.490291 573.097684 133.123411 576.235239 139.077006 584.449465 139.077006 594.602807 133.123411 602.817033"></polygon>
                        <polygon id="Polygon-Copy-6" points="391.163847 113.101032 376.714168 108.3947 367.783776 96.0733608 367.783776 80.8433483 376.714168 68.5220094 391.163847 63.8156767 405.613526 68.5220094 414.543919 80.8433483 414.543919 96.0733608 405.613526 108.3947"></polygon>
                        <polygon id="Polygon-Copy-7" points="561.4881 138.917171 538.937214 131.572235 525 112.342942 525 88.574229 538.937214 69.3449362 561.4881 62 584.038985 69.3449362 597.976199 88.574229 597.976199 112.342942 584.038985 131.572235"></polygon>
                        <polygon id="Polygon-Copy-11" points="535.4881 101.917171 512.937214 94.5722347 499 75.342942 499 51.574229 512.937214 32.3449362 535.4881 25 558.038985 32.3449362 571.976199 51.574229 571.976199 75.342942 558.038985 94.5722347"></polygon>
                        <polygon id="Polygon-Copy-12" points="595.4881 76.9171709 572.937214 69.5722347 559 50.342942 559 26.574229 572.937214 7.34493625 595.4881 -3.41060513e-13 618.038985 7.34493625 631.976199 26.574229 631.976199 50.342942 618.038985 69.5722347"></polygon>
                        <polygon id="Polygon-Copy-5" points="199.690036 720.642678 192.465196 718.289511 188 712.128842 188 704.513836 192.465196 698.353166 199.690036 696 206.914875 698.353166 211.380072 704.513836 211.380072 712.128842 206.914875 718.289511"></polygon>
                        <polygon id="Polygon-Copy-13" points="170.690036 767.642678 163.465196 765.289511 159 759.128842 159 751.513836 163.465196 745.353166 170.690036 743 177.914875 745.353166 182.380072 751.513836 182.380072 759.128842 177.914875 765.289511"></polygon>
                        <polygon id="Polygon-Copy-8" points="196.855293 459.271982 189.630454 456.918816 185.165258 450.758146 185.165258 443.14314 189.630454 436.982471 196.855293 434.629304 204.080133 436.982471 208.545329 443.14314 208.545329 450.758146 204.080133 456.918816"></polygon>
                        <polygon id="Polygon-Copy-16" points="303.382762 156.519084 296.157923 154.165917 291.692727 148.005248 291.692727 140.390242 296.157923 134.229572 303.382762 131.876406 310.607602 134.229572 315.072798 140.390242 315.072798 148.005248 310.607602 154.165917"></polygon>
                    </g>
                </g>
            </g>
        </g>
    </g>
</svg>